<svg width="77" height="77" viewBox="0 0 77 77" fill="none" xmlns="http://www.w3.org/2000/svg">
<g clip-path="url(#clip0_490_15988)">
<path d="M52.9377 55.3436L62.1135 60.7657L59.7072 64.6798L48.1252 57.7498V41.7082H52.9377V55.3436ZM73.7918 54.5415C73.7918 66.9578 63.7497 76.9998 51.3335 76.9998C45.2056 76.9998 39.6872 74.5615 35.6447 70.5832H19.2502C15.6889 70.5832 12.8335 67.7278 12.8335 64.1665V12.8332C12.8335 11.1314 13.5095 9.49926 14.7129 8.2959C15.9163 7.09254 17.5484 6.4165 19.2502 6.4165H22.4585V28.8748L30.4793 24.0623L38.5002 28.8748V6.4165H57.7502C59.452 6.4165 61.0841 7.09254 62.2874 8.2959C63.4908 9.49926 64.1668 11.1314 64.1668 12.8332V36.1257C69.9739 40.2003 73.7918 46.9057 73.7918 54.5415ZM67.3752 54.5415C67.3752 45.6865 60.1885 38.4998 51.3335 38.4998C42.4785 38.4998 35.2918 45.6865 35.2918 54.5415C35.2918 63.3965 42.4785 70.5832 51.3335 70.5832C60.1885 70.5832 67.3752 63.3965 67.3752 54.5415Z" fill="#F5722C"/>
</g>
<defs>
<clipPath id="clip0_490_15988">
<rect width="77" height="77" fill="white"/>
</clipPath>
</defs>
</svg>
