<svg width="137" height="91" viewBox="0 0 137 91" fill="none" xmlns="http://www.w3.org/2000/svg">
<path d="M123.194 43.3486C123.308 38.138 123.076 32.9746 120.335 28.3791C115.999 21.0991 108.277 16.4144 100.165 14.4816C93.779 12.9601 87.1251 14.7892 81.1609 17.086C78.3345 18.178 75.801 19.6941 72.7143 19.7159C69.3328 19.7414 66.075 18.482 62.9846 17.2425C55.1986 14.1212 46.0586 12.5797 37.7357 14.6345C33.6025 15.6537 29.5057 17.7576 26.601 21.03C23.2103 24.852 22.3331 29.7186 21.2684 34.5562C19.8706 40.8934 14.4234 45.64 11.0018 50.8871C7.21616 56.691 9.74414 64.5371 14.6217 68.8286C31.1219 83.3559 52.3139 64.2459 70.5249 67.3035C79.9434 68.8905 88.9651 72.4814 98.5146 73.3386C104.051 73.8354 110.088 73.7408 115.399 71.6442C118.808 70.301 122.193 68.0697 123.452 64.457C124.593 61.181 123.521 57.783 123.199 54.4688C122.85 50.8525 123.11 47.0869 123.194 43.3486Z" fill="#FFC100"/>
<path opacity="0.7" d="M123.194 43.3486C123.308 38.138 123.076 32.9746 120.335 28.3791C115.999 21.0991 108.277 16.4144 100.165 14.4816C93.779 12.9601 87.1251 14.7892 81.1609 17.086C78.3345 18.178 75.801 19.6941 72.7143 19.7159C69.3328 19.7414 66.075 18.482 62.9846 17.2425C55.1986 14.1212 46.0586 12.5797 37.7357 14.6345C33.6025 15.6537 29.5057 17.7576 26.601 21.03C23.2103 24.852 22.3331 29.7186 21.2684 34.5562C19.8706 40.8934 14.4234 45.64 11.0018 50.8871C7.21616 56.691 9.74414 64.5371 14.6217 68.8286C31.1219 83.3559 52.3139 64.2459 70.5249 67.3035C79.9434 68.8905 88.9651 72.4814 98.5146 73.3386C104.051 73.8354 110.088 73.7408 115.399 71.6442C118.808 70.301 122.193 68.0697 123.452 64.457C124.593 61.181 123.521 57.783 123.199 54.4688C122.85 50.8525 123.11 47.0869 123.194 43.3486Z" fill="white"/>
<path d="M8.36475 43.2217L10.9109 67.6261" stroke="#263238" stroke-width="0.364" stroke-linecap="round" stroke-linejoin="round"/>
<path d="M10.5015 62.9557L9.34766 61.7363" stroke="#263238" stroke-width="0.364" stroke-linecap="round" stroke-linejoin="round"/>
<path d="M9.69644 62.1003C9.69406 61.9138 9.65191 61.7301 9.57282 61.5612C9.49373 61.3923 9.37951 61.2423 9.2378 61.1211C8.94114 60.8572 7.3814 60.2002 7.2358 60.7571C7.072 61.3468 8.66814 62.5207 9.69644 62.1003Z" fill="white" stroke="#263238" stroke-width="0.182" stroke-linecap="round" stroke-linejoin="round"/>
<path d="M9.69703 62.1003L8.21191 61.1758" stroke="#263238" stroke-width="0.091" stroke-linecap="round" stroke-linejoin="round"/>
<path d="M10.7911 65.7297L9.63721 64.5103" stroke="#263238" stroke-width="0.364" stroke-linecap="round" stroke-linejoin="round"/>
<path d="M9.98598 64.8757C9.98419 64.6891 9.9423 64.5052 9.86317 64.3362C9.78404 64.1673 9.66951 64.0173 9.52734 63.8965C9.23068 63.6326 7.67094 62.9756 7.52534 63.5325C7.36154 64.1222 8.9595 65.2961 9.98598 64.8757Z" fill="white" stroke="#263238" stroke-width="0.182" stroke-linecap="round" stroke-linejoin="round"/>
<path d="M9.98623 64.8757L8.50293 63.9512" stroke="#263238" stroke-width="0.091" stroke-linecap="round" stroke-linejoin="round"/>
<path d="M9.79535 56.1818L8.63965 54.9624" stroke="#263238" stroke-width="0.364" stroke-linecap="round" stroke-linejoin="round"/>
<path d="M8.99051 55.3283C8.98802 55.1417 8.94565 54.9578 8.86623 54.7889C8.78681 54.62 8.67219 54.4701 8.53005 54.3492C8.23521 54.0853 6.67547 53.4282 6.52805 53.9852C6.36971 54.5748 7.96221 55.7487 8.99051 55.3283Z" fill="white" stroke="#263238" stroke-width="0.182" stroke-linecap="round" stroke-linejoin="round"/>
<path d="M8.99098 55.3284L7.50586 54.4038" stroke="#263238" stroke-width="0.091" stroke-linecap="round" stroke-linejoin="round"/>
<path d="M10.0844 58.9572L8.92871 57.7378" stroke="#263238" stroke-width="0.364" stroke-linecap="round" stroke-linejoin="round"/>
<path d="M9.28165 58.1037C9.27927 57.9173 9.23712 57.7335 9.15803 57.5646C9.07894 57.3958 8.96472 57.2457 8.82301 57.1246C8.52635 56.8607 6.96661 56.2036 6.82101 56.7606C6.65539 57.3502 8.25153 58.5241 9.28165 58.1037Z" fill="white" stroke="#263238" stroke-width="0.182" stroke-linecap="round" stroke-linejoin="round"/>
<path d="M9.28053 58.1038L7.79541 57.1792" stroke="#263238" stroke-width="0.091" stroke-linecap="round" stroke-linejoin="round"/>
<path d="M9.32331 51.6735L8.16943 50.4541" stroke="#263238" stroke-width="0.364" stroke-linecap="round" stroke-linejoin="round"/>
<path d="M8.51918 50.82C8.51739 50.6335 8.47551 50.4495 8.39637 50.2805C8.31724 50.1116 8.20271 49.9617 8.06054 49.8409C7.76388 49.577 6.20414 48.9199 6.05854 49.4769C5.89474 50.0665 7.4927 51.2404 8.51918 50.82Z" fill="white" stroke="#263238" stroke-width="0.182" stroke-linecap="round" stroke-linejoin="round"/>
<path d="M8.51943 50.8201L7.03613 49.8955" stroke="#263238" stroke-width="0.091" stroke-linecap="round" stroke-linejoin="round"/>
<path d="M8.85066 47.1457L7.69678 45.9263" stroke="#263238" stroke-width="0.364" stroke-linecap="round" stroke-linejoin="round"/>
<path d="M8.04811 46.2916C8.04485 46.1059 8.0021 45.9231 7.92271 45.7552C7.84331 45.5873 7.7291 45.4382 7.58765 45.3179C7.29099 45.054 5.73307 44.397 5.58565 44.9539C5.42367 45.5381 7.01981 46.712 8.04811 46.2916Z" fill="white" stroke="#263238" stroke-width="0.182" stroke-linecap="round" stroke-linejoin="round"/>
<path d="M8.04811 46.2917L6.56299 45.3672" stroke="#263238" stroke-width="0.091" stroke-linecap="round" stroke-linejoin="round"/>
<path d="M10.3062 61.3124L11.1852 59.8818" stroke="#263238" stroke-width="0.364" stroke-linecap="round" stroke-linejoin="round"/>
<path d="M10.9199 60.3115C10.8842 60.1283 10.8877 59.9397 10.9304 59.758C10.9731 59.5763 11.0539 59.4058 11.1674 59.2577C11.404 58.9374 12.7945 57.9837 13.0529 58.4806C13.3295 59.032 12.0119 60.5099 10.9199 60.3115Z" fill="white" stroke="#263238" stroke-width="0.182" stroke-linecap="round" stroke-linejoin="round"/>
<path d="M10.916 60.3113L12.2537 59.0337" stroke="#263238" stroke-width="0.091" stroke-linecap="round" stroke-linejoin="round"/>
<path d="M9.54443 54.0086L10.4235 52.5781" stroke="#263238" stroke-width="0.364" stroke-linecap="round" stroke-linejoin="round"/>
<path d="M10.1553 53.0077C10.119 52.8248 10.1224 52.6363 10.1651 52.4549C10.2078 52.2734 10.2888 52.1032 10.4028 51.9557C10.6376 51.6354 12.0281 50.6708 12.2865 51.1767C12.5668 51.7282 11.2473 53.206 10.1553 53.0077Z" fill="white" stroke="#263238" stroke-width="0.182" stroke-linecap="round" stroke-linejoin="round"/>
<path d="M10.1553 53.0076L11.4912 51.73" stroke="#263238" stroke-width="0.091" stroke-linecap="round" stroke-linejoin="round"/>
<path d="M9.20898 50.8L10.088 49.3677" stroke="#263238" stroke-width="0.364" stroke-linecap="round" stroke-linejoin="round"/>
<path d="M9.8282 49.7991C9.7919 49.6159 9.7952 49.4272 9.83789 49.2454C9.88059 49.0636 9.96168 48.8931 10.0757 48.7453C10.3105 48.425 11.701 47.4604 11.9594 47.9682C12.2324 48.5196 10.9202 49.9975 9.8282 49.7991Z" fill="white" stroke="#263238" stroke-width="0.182" stroke-linecap="round" stroke-linejoin="round"/>
<path d="M9.82031 49.7991L11.1562 48.5215" stroke="#263238" stroke-width="0.091" stroke-linecap="round" stroke-linejoin="round"/>
<path d="M8.71973 46.0954L9.59697 44.6631" stroke="#263238" stroke-width="0.364" stroke-linecap="round" stroke-linejoin="round"/>
<path d="M9.32955 45.0925C9.29381 44.9102 9.29741 44.7224 9.3401 44.5416C9.38278 44.3608 9.46357 44.1912 9.57707 44.0441C9.81185 43.7238 11.2023 42.7592 11.4608 43.267C11.741 43.8148 10.4215 45.2908 9.32955 45.0925Z" fill="white" stroke="#263238" stroke-width="0.182" stroke-linecap="round" stroke-linejoin="round"/>
<path d="M9.32861 45.0926L10.6645 43.8149" stroke="#263238" stroke-width="0.091" stroke-linecap="round" stroke-linejoin="round"/>
<path d="M8.34241 43.0871C8.30745 42.9053 8.31143 42.7182 8.3541 42.5382C8.39677 42.3581 8.47715 42.1891 8.58993 42.0424C8.82653 41.7221 10.217 40.7684 10.4754 41.2652C10.7557 41.8076 9.43623 43.2854 8.34241 43.0871Z" fill="white" stroke="#263238" stroke-width="0.182" stroke-linecap="round" stroke-linejoin="round"/>
<path d="M8.34277 43.0867L9.68047 41.8091" stroke="#263238" stroke-width="0.091" stroke-linecap="round" stroke-linejoin="round"/>
<path d="M8.42086 43.1344C8.23451 43.1507 8.04684 43.1266 7.87065 43.0638C7.69445 43.0009 7.53387 42.9009 7.39984 42.7704C7.105 42.5028 6.29328 41.0195 6.82472 40.8157C7.40166 40.6082 8.73572 42.0751 8.42086 43.1344Z" fill="white" stroke="#263238" stroke-width="0.182" stroke-linecap="round" stroke-linejoin="round"/>
<path d="M8.42124 43.1415L7.29102 41.6782" stroke="#263238" stroke-width="0.091" stroke-linecap="round" stroke-linejoin="round"/>
<path d="M15.0823 46.583L12.5488 70.9874" stroke="#263238" stroke-width="0.364" stroke-linecap="round" stroke-linejoin="round"/>
<path d="M13.1095 66.3319L12.2305 64.9014" stroke="#263238" stroke-width="0.364" stroke-linecap="round" stroke-linejoin="round"/>
<path d="M12.4998 65.3381C12.5356 65.1551 12.5319 64.9666 12.4889 64.7851C12.4459 64.6037 12.3646 64.4336 12.2505 64.2861C12.0157 63.9658 10.6234 63.003 10.3668 63.509C10.0865 64.0531 11.406 65.531 12.4998 65.3381Z" fill="white" stroke="#263238" stroke-width="0.182" stroke-linecap="round" stroke-linejoin="round"/>
<path d="M12.4999 65.3309L11.2368 64.1206" stroke="#263238" stroke-width="0.091" stroke-linecap="round" stroke-linejoin="round"/>
<path d="M13.8122 59.5594L12.9331 58.1289" stroke="#263238" stroke-width="0.364" stroke-linecap="round" stroke-linejoin="round"/>
<path d="M13.202 58.5585C13.2366 58.3763 13.2323 58.1889 13.1893 58.0085C13.1463 57.8282 13.0657 57.6589 12.9526 57.512C12.7178 57.1935 11.3274 56.238 11.0689 56.7367C10.7886 57.2808 12.1081 58.7587 13.202 58.5585Z" fill="white" stroke="#263238" stroke-width="0.182" stroke-linecap="round" stroke-linejoin="round"/>
<path d="M13.2025 58.5584L11.9395 57.3481" stroke="#263238" stroke-width="0.091" stroke-linecap="round" stroke-linejoin="round"/>
<path d="M13.5241 62.3353L12.645 60.9048" stroke="#263238" stroke-width="0.364" stroke-linecap="round" stroke-linejoin="round"/>
<path d="M12.922 61.3343C12.9583 61.1512 12.955 60.9624 12.9123 60.7806C12.8696 60.5989 12.7885 60.4283 12.6744 60.2805C12.4397 59.962 11.0474 59.0065 10.7907 59.5052C10.5014 60.0603 11.83 61.5345 12.922 61.3343Z" fill="white" stroke="#263238" stroke-width="0.182" stroke-linecap="round" stroke-linejoin="round"/>
<path d="M12.9126 61.3343L11.6514 60.124" stroke="#263238" stroke-width="0.091" stroke-linecap="round" stroke-linejoin="round"/>
<path d="M14.2795 55.0516L13.4004 53.6211" stroke="#263238" stroke-width="0.364" stroke-linecap="round" stroke-linejoin="round"/>
<path d="M13.6702 54.0543C13.7065 53.871 13.703 53.6821 13.66 53.5003C13.617 53.3185 13.5355 53.1481 13.4209 53.0005C13.1861 52.6802 11.7956 51.7174 11.5372 52.2252C11.2569 52.7803 12.5764 54.249 13.6702 54.0543Z" fill="white" stroke="#263238" stroke-width="0.182" stroke-linecap="round" stroke-linejoin="round"/>
<path d="M13.6698 54.0505L12.4067 52.8384" stroke="#263238" stroke-width="0.091" stroke-linecap="round" stroke-linejoin="round"/>
<path d="M14.7493 50.5233L13.8721 49.0928" stroke="#263238" stroke-width="0.364" stroke-linecap="round" stroke-linejoin="round"/>
<path d="M14.1394 49.5226C14.1757 49.3394 14.1724 49.1506 14.1297 48.9689C14.087 48.7871 14.0059 48.6166 13.8919 48.4688C13.6553 48.1485 12.2648 47.1857 12.0064 47.6935C11.7261 48.2449 13.0474 49.7209 14.1394 49.5226Z" fill="white" stroke="#263238" stroke-width="0.182" stroke-linecap="round" stroke-linejoin="round"/>
<path d="M14.1395 49.5222L12.8765 48.3101" stroke="#263238" stroke-width="0.091" stroke-linecap="round" stroke-linejoin="round"/>
<path d="M13.2583 64.6866L14.4104 63.4653" stroke="#263238" stroke-width="0.364" stroke-linecap="round" stroke-linejoin="round"/>
<path d="M14.061 63.8314C14.0634 63.6449 14.1056 63.4611 14.1847 63.2923C14.2637 63.1234 14.378 62.9734 14.5197 62.8522C14.8163 62.5865 16.3761 61.9295 16.5217 62.4882C16.6855 63.0761 15.0893 64.2463 14.061 63.8314Z" fill="white" stroke="#263238" stroke-width="0.182" stroke-linecap="round" stroke-linejoin="round"/>
<path d="M14.061 63.831L15.6317 62.8555" stroke="#263238" stroke-width="0.091" stroke-linecap="round" stroke-linejoin="round"/>
<path d="M14.0156 57.3828L15.1695 56.1616" stroke="#263238" stroke-width="0.364" stroke-linecap="round" stroke-linejoin="round"/>
<path d="M14.8184 56.5277C14.8207 56.3412 14.8629 56.1574 14.942 55.9886C15.0211 55.8197 15.1353 55.6697 15.277 55.5485C15.5737 55.2828 17.1334 54.6258 17.279 55.1845C17.4428 55.7724 15.8467 56.9463 14.8184 56.5277Z" fill="white" stroke="#263238" stroke-width="0.182" stroke-linecap="round" stroke-linejoin="round"/>
<path d="M14.8184 56.5278L16.3908 55.5522" stroke="#263238" stroke-width="0.091" stroke-linecap="round" stroke-linejoin="round"/>
<path d="M14.3486 54.1725L15.5025 52.9531" stroke="#263238" stroke-width="0.364" stroke-linecap="round" stroke-linejoin="round"/>
<path d="M15.1514 53.3263C15.1538 53.1399 15.1959 52.9561 15.275 52.7872C15.3541 52.6184 15.4683 52.4684 15.61 52.3472C15.9067 52.0833 17.4664 51.4263 17.612 51.9741C17.7758 52.5638 16.1797 53.7377 15.1514 53.3263Z" fill="white" stroke="#263238" stroke-width="0.182" stroke-linecap="round" stroke-linejoin="round"/>
<path d="M15.1514 53.317L16.7238 52.3433" stroke="#263238" stroke-width="0.091" stroke-linecap="round" stroke-linejoin="round"/>
<path d="M14.8369 49.4678L15.9908 48.2466" stroke="#263238" stroke-width="0.364" stroke-linecap="round" stroke-linejoin="round"/>
<path d="M15.6411 48.6121C15.6429 48.4256 15.6848 48.2416 15.7639 48.0726C15.8431 47.9037 15.9576 47.7537 16.0998 47.6329C16.3946 47.3672 17.9543 46.7102 18.1018 47.2598C18.2637 47.8659 16.6694 49.0307 15.6411 48.6121Z" fill="white" stroke="#263238" stroke-width="0.182" stroke-linecap="round" stroke-linejoin="round"/>
<path d="M15.6411 48.6122L17.2118 47.6367" stroke="#263238" stroke-width="0.091" stroke-linecap="round" stroke-linejoin="round"/>
<path d="M15.0889 46.4464C15.0906 46.2595 15.1325 46.0753 15.2116 45.906C15.2908 45.7368 15.4053 45.5865 15.5475 45.4654C15.8442 45.2015 17.4021 44.5445 17.5495 45.1014C17.7115 45.6911 16.1172 46.865 15.0889 46.4464Z" fill="white" stroke="#263238" stroke-width="0.182" stroke-linecap="round" stroke-linejoin="round"/>
<path d="M15.0889 46.4467L16.6595 45.4712" stroke="#263238" stroke-width="0.091" stroke-linecap="round" stroke-linejoin="round"/>
<path d="M15.153 46.5155C14.9677 46.4938 14.7891 46.4327 14.6294 46.3364C14.4696 46.24 14.3323 46.1106 14.2266 45.9568C13.9955 45.6346 13.4986 44.0148 14.0665 43.9238C14.678 43.8274 15.6772 45.5364 15.153 46.5155Z" fill="white" stroke="#263238" stroke-width="0.182" stroke-linecap="round" stroke-linejoin="round"/>
<path d="M15.1531 46.5159L14.3486 44.8506" stroke="#263238" stroke-width="0.091" stroke-linecap="round" stroke-linejoin="round"/>
<path d="M12.1792 36.646V67.5059" stroke="#263238" stroke-width="0.364" stroke-linecap="round" stroke-linejoin="round"/>
<path d="M12.205 62.8668L11.1821 61.5327" stroke="#263238" stroke-width="0.364" stroke-linecap="round" stroke-linejoin="round"/>
<path d="M11.4932 61.933C11.5105 61.7473 11.4877 61.5601 11.4265 61.384C11.3653 61.2079 11.267 61.0469 11.1383 60.912C10.8708 60.6171 9.3875 59.8036 9.18366 60.3332C8.96162 60.912 10.4285 62.2442 11.4932 61.933Z" fill="white" stroke="#263238" stroke-width="0.182" stroke-linecap="round" stroke-linejoin="round"/>
<path d="M11.4933 61.9332L10.1138 60.8594" stroke="#263238" stroke-width="0.091" stroke-linecap="round" stroke-linejoin="round"/>
<path d="M12.205 57.0661L11.1821 55.7339" stroke="#263238" stroke-width="0.364" stroke-linecap="round" stroke-linejoin="round"/>
<path d="M11.4932 56.1326C11.5103 55.947 11.4875 55.7598 11.4263 55.5837C11.3651 55.4076 11.2669 55.2466 11.1383 55.1116C10.8708 54.8186 9.3875 54.0032 9.18366 54.5347C8.96162 55.1116 10.4285 56.4439 11.4932 56.1326Z" fill="white" stroke="#263238" stroke-width="0.182" stroke-linecap="round" stroke-linejoin="round"/>
<path d="M11.4933 56.1324L10.1138 55.0586" stroke="#263238" stroke-width="0.091" stroke-linecap="round" stroke-linejoin="round"/>
<path d="M12.205 50.2575L11.1821 48.9253" stroke="#263238" stroke-width="0.364" stroke-linecap="round" stroke-linejoin="round"/>
<path d="M11.4932 49.3223C11.5105 49.1367 11.4877 48.9495 11.4265 48.7733C11.3653 48.5972 11.267 48.4363 11.1383 48.3013C10.8708 48.0065 9.3875 47.1929 9.18366 47.7244C8.96162 48.3031 10.4285 49.6354 11.4932 49.3223Z" fill="white" stroke="#263238" stroke-width="0.182" stroke-linecap="round" stroke-linejoin="round"/>
<path d="M11.4933 49.3238L10.1138 48.25" stroke="#263238" stroke-width="0.091" stroke-linecap="round" stroke-linejoin="round"/>
<path d="M12.205 45.7238L11.1821 44.3916" stroke="#263238" stroke-width="0.364" stroke-linecap="round" stroke-linejoin="round"/>
<path d="M11.4932 44.7922C11.5105 44.6062 11.4877 44.4188 11.4265 44.2423C11.3653 44.0659 11.2671 43.9046 11.1383 43.7693C10.8708 43.4763 9.3875 42.661 9.18366 43.1924C8.96162 43.7693 10.4285 45.1034 11.4932 44.7922Z" fill="white" stroke="#263238" stroke-width="0.182" stroke-linecap="round" stroke-linejoin="round"/>
<path d="M11.4933 44.7919L10.1138 43.7163" stroke="#263238" stroke-width="0.091" stroke-linecap="round" stroke-linejoin="round"/>
<path d="M12.205 41.1721L11.1821 39.8398" stroke="#263238" stroke-width="0.364" stroke-linecap="round" stroke-linejoin="round"/>
<path d="M11.4932 40.2383C11.5105 40.0527 11.4877 39.8655 11.4265 39.6894C11.3653 39.5132 11.267 39.3523 11.1383 39.2173C10.8708 38.9225 9.3875 38.1089 9.18366 38.6404C8.96162 39.2173 10.4285 40.5496 11.4932 40.2383Z" fill="white" stroke="#263238" stroke-width="0.182" stroke-linecap="round" stroke-linejoin="round"/>
<path d="M11.4933 40.2383L10.1138 39.1646" stroke="#263238" stroke-width="0.091" stroke-linecap="round" stroke-linejoin="round"/>
<path d="M12.1812 64.6374L13.204 63.3052" stroke="#263238" stroke-width="0.364" stroke-linecap="round" stroke-linejoin="round"/>
<path d="M12.893 63.7001C12.877 63.5138 12.9012 63.3262 12.964 63.15C13.0268 62.9738 13.1267 62.8132 13.257 62.6791C13.5245 62.3842 15.0078 61.5707 15.2117 62.1003C15.4246 62.6827 13.9595 64.015 12.893 63.7001Z" fill="white" stroke="#263238" stroke-width="0.182" stroke-linecap="round" stroke-linejoin="round"/>
<path d="M12.8931 63.7038L14.3563 62.5718" stroke="#263238" stroke-width="0.091" stroke-linecap="round" stroke-linejoin="round"/>
<path d="M12.1812 55.4136L13.204 54.0796" stroke="#263238" stroke-width="0.364" stroke-linecap="round" stroke-linejoin="round"/>
<path d="M12.893 54.4799C12.877 54.2935 12.9012 54.1059 12.964 53.9298C13.0268 53.7536 13.1267 53.593 13.257 53.4589C13.5245 53.164 15.0078 52.3505 15.2117 52.8801C15.4246 53.4589 13.9595 54.7911 12.893 54.4799Z" fill="white" stroke="#263238" stroke-width="0.182" stroke-linecap="round" stroke-linejoin="round"/>
<path d="M12.8931 54.4802L14.3563 53.3481" stroke="#263238" stroke-width="0.091" stroke-linecap="round" stroke-linejoin="round"/>
<path d="M12.1812 50.8601L13.204 49.5278" stroke="#263238" stroke-width="0.364" stroke-linecap="round" stroke-linejoin="round"/>
<path d="M12.893 49.9284C12.8769 49.7418 12.9011 49.5539 12.9639 49.3775C13.0267 49.201 13.1267 49.0401 13.257 48.9056C13.5245 48.6125 15.0078 47.7972 15.2117 48.3286C15.4246 48.9056 13.9595 50.2323 12.893 49.9284Z" fill="white" stroke="#263238" stroke-width="0.182" stroke-linecap="round" stroke-linejoin="round"/>
<path d="M12.8931 49.9284L14.3563 48.7964" stroke="#263238" stroke-width="0.091" stroke-linecap="round" stroke-linejoin="round"/>
<path d="M12.1812 44.843L13.204 43.5107" stroke="#263238" stroke-width="0.364" stroke-linecap="round" stroke-linejoin="round"/>
<path d="M12.893 43.9092C12.877 43.7229 12.9012 43.5353 12.964 43.3591C13.0268 43.183 13.1267 43.0224 13.257 42.8882C13.5245 42.5934 15.0078 41.7798 15.2117 42.3113C15.4246 42.8882 13.9595 44.2259 12.893 43.9092Z" fill="white" stroke="#263238" stroke-width="0.182" stroke-linecap="round" stroke-linejoin="round"/>
<path d="M12.8931 43.9094L14.3563 42.7773" stroke="#263238" stroke-width="0.091" stroke-linecap="round" stroke-linejoin="round"/>
<path d="M12.1812 40.1129L13.204 38.7788" stroke="#263238" stroke-width="0.364" stroke-linecap="round" stroke-linejoin="round"/>
<path d="M12.893 39.1791C12.877 38.9928 12.9012 38.8052 12.964 38.629C13.0268 38.4528 13.1267 38.2922 13.257 38.1581C13.5245 37.8632 15.0078 37.0497 15.2117 37.5793C15.4246 38.1581 13.9595 39.494 12.893 39.1791Z" fill="white" stroke="#263238" stroke-width="0.182" stroke-linecap="round" stroke-linejoin="round"/>
<path d="M12.8931 39.1794L14.3563 38.0474" stroke="#263238" stroke-width="0.091" stroke-linecap="round" stroke-linejoin="round"/>
<path d="M12.1215 37.0809C12.1055 36.8946 12.1297 36.707 12.1925 36.5308C12.2553 36.3547 12.3552 36.1941 12.4855 36.0599C12.7403 35.7651 14.2272 34.9442 14.4311 35.4902C14.6531 36.0599 13.188 37.3921 12.1215 37.0809Z" fill="white" stroke="#263238" stroke-width="0.182" stroke-linecap="round" stroke-linejoin="round"/>
<path d="M12.1211 37.0808L13.5826 35.9487" stroke="#263238" stroke-width="0.091" stroke-linecap="round" stroke-linejoin="round"/>
<path d="M12.1942 37.1445C12.0076 37.142 11.8236 37.0997 11.6548 37.0203C11.4859 36.9408 11.3359 36.8262 11.215 36.6841C10.9511 36.3874 10.305 34.8259 10.851 34.6821C11.4425 34.5183 12.6128 36.1162 12.1942 37.1445Z" fill="white" stroke="#263238" stroke-width="0.182" stroke-linecap="round" stroke-linejoin="round"/>
<path d="M12.1921 37.1446L11.2202 35.5703" stroke="#263238" stroke-width="0.091" stroke-linecap="round" stroke-linejoin="round"/>
<path d="M13.4493 75.51H10.1806L9.77295 67.2563H13.857L13.4493 75.51Z" fill="#263238" stroke="#263238" stroke-width="0.182" stroke-linecap="round" stroke-linejoin="round"/>
<path d="M130.88 31.5186H117.972V41.2537H130.88V31.5186Z" stroke="#263238" stroke-width="0.182" stroke-linecap="round" stroke-linejoin="round"/>
<path d="M130.157 32.1411H118.698V40.6332H130.157V32.1411Z" stroke="#263238" stroke-width="0.182" stroke-linecap="round" stroke-linejoin="round"/>
<path d="M125.26 41.27H123.138V44.8409H125.26V41.27Z" stroke="#263238" stroke-width="0.182" stroke-linecap="round" stroke-linejoin="round"/>
<path d="M128.021 44.8848H120.381V52.7726H128.021V44.8848Z" stroke="#263238" stroke-width="0.182" stroke-linecap="round" stroke-linejoin="round"/>
<path d="M128.019 44.8848H126.612V52.7726H128.019V44.8848Z" stroke="#263238" stroke-width="0.182" stroke-linecap="round" stroke-linejoin="round"/>
<path d="M124.272 55.8829H116.662L120.32 52.7871H127.93L124.272 55.8829Z" stroke="#263238" stroke-width="0.182" stroke-linecap="round" stroke-linejoin="round"/>
<path d="M124.272 55.8828H116.662V75.6644H124.272V55.8828Z" stroke="#263238" stroke-width="0.182" stroke-linecap="round" stroke-linejoin="round"/>
<path d="M128.013 75.6643H124.251V55.8828L128.013 52.6978V75.6643Z" stroke="#263238" stroke-width="0.182" stroke-linecap="round" stroke-linejoin="round"/>
<path d="M95.0183 30.201L96.1758 30.4649L96.4434 29.291L95.3313 29.0362C95.3313 29.0034 95.3313 28.9707 95.3313 28.9379C95.3322 28.5808 95.2604 28.2272 95.1202 27.8987L96.0302 27.1798L95.2786 26.237L94.4159 26.925C94.1136 26.6631 93.7558 26.4733 93.3694 26.3699V25.2451H92.1645V26.3244C91.7679 26.403 91.3944 26.5711 91.0725 26.8158L90.2008 26.1205L89.4491 27.0633L90.3009 27.7422C90.1204 28.0992 90.0234 28.4924 90.0169 28.8924L88.9067 29.1454L89.1761 30.3193L90.2681 30.0699C90.4346 30.421 90.6755 30.7315 90.9743 30.9799L90.4647 32.0374L91.5567 32.5597L92.059 31.5205C92.4292 31.6122 92.815 31.6215 93.1892 31.5478L93.7079 32.6252L94.7999 32.1029L94.2757 31.0582C94.5816 30.8287 94.8347 30.5364 95.0183 30.201V30.201ZM91.4911 28.9379C91.4908 28.7038 91.5599 28.4749 91.6896 28.2802C91.8194 28.0854 92.004 27.9335 92.2202 27.8436C92.4363 27.7538 92.6742 27.7301 92.9038 27.7756C93.1334 27.821 93.3444 27.9336 93.51 28.0989C93.6756 28.2643 93.7885 28.4751 93.8343 28.7046C93.8801 28.9341 93.8567 29.1721 93.7673 29.3884C93.6778 29.6046 93.5262 29.7895 93.3316 29.9196C93.137 30.0496 92.9082 30.1191 92.6741 30.1191C92.3607 30.1191 92.0601 29.9947 91.8383 29.7732C91.6165 29.5518 91.4916 29.2513 91.4911 28.9379V28.9379Z" stroke="#263238" stroke-width="0.182" stroke-linecap="round" stroke-linejoin="round"/>
<path d="M89.3616 25.4504L90.5191 25.7143L90.7866 24.5386L89.6746 24.2856C89.6746 24.2529 89.6746 24.2201 89.6746 24.1855C89.6744 23.8291 89.6026 23.4763 89.4635 23.1481L90.3735 22.4201L89.6218 21.4792L88.7591 22.1672C88.4567 21.9051 88.099 21.7147 87.7126 21.6102V20.4873H86.5078V21.5666C86.1109 21.6444 85.7373 21.8125 85.4158 22.058L84.544 21.3627L83.7924 22.3037L84.6441 22.9825C84.4641 23.3397 84.3671 23.7329 84.3602 24.1328L83.25 24.3857L83.5175 25.5615L84.6095 25.3121C84.776 25.6627 85.0162 25.9731 85.3139 26.2221L84.8116 27.2996L85.9036 27.8219L86.4041 26.7809C86.6089 26.8313 86.8191 26.857 87.0301 26.8573C87.1994 26.8576 87.3683 26.8412 87.5343 26.8082L88.0548 27.8874L89.1468 27.3633L88.6336 26.3077C88.9337 26.0762 89.1818 25.7841 89.3616 25.4504V25.4504ZM85.8344 24.1764C85.8344 23.9425 85.9038 23.7137 86.0338 23.5192C86.1638 23.3247 86.3485 23.173 86.5647 23.0835C86.7808 22.994 87.0187 22.9705 87.2482 23.0162C87.4777 23.0618 87.6885 23.1745 87.8539 23.3399C88.0193 23.5054 88.132 23.7162 88.1777 23.9457C88.2233 24.1751 88.1999 24.413 88.1103 24.6292C88.0208 24.8453 87.8692 25.0301 87.6746 25.1601C87.4801 25.2901 87.2514 25.3594 87.0174 25.3594C86.7062 25.358 86.408 25.234 86.1876 25.0143C85.9672 24.7945 85.8422 24.4968 85.8399 24.1855L85.8344 24.1764Z" stroke="#263238" stroke-width="0.182" stroke-linecap="round" stroke-linejoin="round"/>
<path d="M45.8326 32.578L46.3422 32.0211L45.778 31.5042L45.2884 32.0393L45.2356 32.0047C45.0384 31.8924 44.8205 31.8212 44.595 31.7954L44.4803 31.0674L43.7232 31.1875L43.8324 31.8791C43.5926 31.9636 43.3754 32.1018 43.1972 32.2831L42.5766 31.9301L42.1962 32.5962L42.7932 32.9347C42.7115 33.1789 42.6866 33.4384 42.7204 33.6936L42.0615 33.9575L42.3473 34.6692L42.9897 34.4125C43.1301 34.6241 43.3168 34.8008 43.5357 34.9294L43.3264 35.6228L44.0544 35.8449L44.2601 35.1606C44.5073 35.1809 44.756 35.1461 44.9881 35.0586L45.4121 35.672L46.0419 35.237L45.6251 34.6328C45.7165 34.5355 45.7965 34.428 45.8635 34.3124C45.9169 34.2188 45.9608 34.12 45.9945 34.0176L46.7535 34.0686L46.8063 33.3042L46.0783 33.2532C46.0451 33.0133 45.9613 32.7831 45.8326 32.578V32.578ZM44.0253 34.1286C43.8961 34.055 43.7916 33.9448 43.7251 33.8118C43.6585 33.6788 43.633 33.529 43.6515 33.3815C43.6701 33.2339 43.7321 33.0952 43.8295 32.9829C43.927 32.8706 44.0556 32.7897 44.199 32.7504C44.3424 32.7112 44.4943 32.7154 44.6353 32.7625C44.7764 32.8096 44.9003 32.8975 44.9914 33.015C45.0825 33.1325 45.1367 33.2744 45.1471 33.4228C45.1575 33.5711 45.1237 33.7192 45.05 33.8483C45.0017 33.9346 44.9368 34.0105 44.8591 34.0716C44.7813 34.1327 44.6923 34.1778 44.5971 34.2044C44.5018 34.2309 44.4023 34.2384 44.3042 34.2263C44.206 34.2143 44.1113 34.1829 44.0253 34.1341V34.1286Z" stroke="#263238" stroke-width="0.182" stroke-linecap="round" stroke-linejoin="round"/>
<path d="M41.4302 34.2156L41.9416 33.6696L41.3756 33.1509L40.886 33.6696L40.8333 33.6351C40.6357 33.5235 40.4179 33.4524 40.1926 33.4258L40.078 32.6978L39.3227 32.8161L39.43 33.5095C39.1905 33.5944 38.9733 33.7326 38.7949 33.9135L38.1742 33.5586L37.7939 34.2247L38.3908 34.5651C38.309 34.8092 38.2841 35.0688 38.318 35.324L37.6592 35.5861L37.9449 36.2977L38.5874 36.0411C38.7282 36.2527 38.9148 36.43 39.1334 36.5598L38.9241 37.2514L39.6521 37.4734L39.8596 36.7891C40.1068 36.8096 40.3555 36.7748 40.5876 36.6872L41.0116 37.3024L41.6413 36.8656L41.2246 36.2613C41.3164 36.1644 41.3965 36.0568 41.463 35.941C41.5162 35.847 41.5606 35.7483 41.5958 35.6462L42.3548 35.6971L42.4057 34.9436L41.6686 34.8927C41.6385 34.6525 41.5572 34.4216 41.4302 34.2156ZM39.623 35.7681C39.4939 35.6944 39.3896 35.5842 39.3232 35.4513C39.2568 35.3184 39.2312 35.1688 39.2498 35.0214C39.2683 34.874 39.3302 34.7354 39.4274 34.6231C39.5247 34.5108 39.6531 34.4299 39.7964 34.3905C39.9396 34.3511 40.0913 34.3551 40.2324 34.4019C40.3734 34.4487 40.4973 34.5362 40.5886 34.6535C40.6799 34.7707 40.7344 34.9123 40.7452 35.0605C40.756 35.2087 40.7227 35.3567 40.6494 35.486C40.6004 35.5717 40.5349 35.6469 40.4567 35.7073C40.3785 35.7677 40.2892 35.8121 40.1939 35.838C40.0986 35.8638 39.9991 35.8707 39.9011 35.858C39.8032 35.8454 39.7086 35.8136 39.623 35.7645V35.7681Z" stroke="#263238" stroke-width="0.182" stroke-linecap="round" stroke-linejoin="round"/>
<path d="M106.14 32.5778L106.652 32.0318L106.088 31.5149L105.598 32.05L105.543 32.0154C105.347 31.9031 105.129 31.8319 104.905 31.8061L104.79 31.0781L104.033 31.1982L104.142 31.8898C103.902 31.9748 103.684 32.1129 103.505 32.2939L102.884 31.9408L102.506 32.6069L103.103 32.9454C103.021 33.1896 102.996 33.4492 103.03 33.7044L102.371 33.9683L102.655 34.6799L103.299 34.4233C103.439 34.6352 103.626 34.8121 103.845 34.9402L103.636 35.6336L104.364 35.8556L104.57 35.1713C104.817 35.1917 105.066 35.1569 105.298 35.0694L105.722 35.6827L106.351 35.2477L105.935 34.6435C106.026 34.5457 106.106 34.4383 106.173 34.3232C106.226 34.2291 106.27 34.1304 106.304 34.0283L107.063 34.0793L107.116 33.3149L106.379 33.2639C106.349 33.0208 106.268 32.7868 106.14 32.5778V32.5778ZM104.333 34.1284C104.204 34.0548 104.101 33.9447 104.035 33.812C103.968 33.6794 103.943 33.5301 103.962 33.3831C103.981 33.2361 104.042 33.0979 104.14 32.9861C104.237 32.8742 104.365 32.7936 104.508 32.7545C104.651 32.7154 104.802 32.7195 104.943 32.7664C105.083 32.8132 105.207 32.9007 105.298 33.0177C105.389 33.1347 105.443 33.276 105.454 33.4239C105.464 33.5717 105.431 33.7193 105.358 33.8482C105.309 33.9343 105.244 34.01 105.167 34.0709C105.089 34.1319 105 34.1769 104.905 34.2035C104.809 34.23 104.71 34.2375 104.612 34.2256C104.514 34.2136 104.419 34.1825 104.333 34.1339V34.1284Z" stroke="#263238" stroke-width="0.182" stroke-linecap="round" stroke-linejoin="round"/>
<path d="M101.738 34.2156L102.248 33.6696L101.684 33.1509L101.192 33.6696L101.138 33.6351C100.941 33.5233 100.724 33.4521 100.499 33.4258L100.384 32.6978L99.6271 32.8161L99.7363 33.5095C99.4962 33.5944 99.2785 33.7325 99.0993 33.9135L98.4787 33.5586L98.0983 34.232L98.6989 34.5796C98.6171 34.8237 98.5922 35.0834 98.6261 35.3386L97.9673 35.6007L98.2512 36.3123L98.8955 36.0557C99.0363 36.2673 99.2229 36.4446 99.4415 36.5744L99.2322 37.266L99.9602 37.488L100.166 36.8037C100.413 36.824 100.662 36.7892 100.894 36.7018L101.318 37.3169L101.948 36.8801L101.531 36.2759C101.623 36.1789 101.703 36.0714 101.769 35.9556C101.822 35.8615 101.866 35.7628 101.9 35.6607L102.659 35.7117L102.712 34.9491L101.984 34.8981C101.952 34.6557 101.868 34.4231 101.738 34.2156V34.2156ZM99.9311 35.7681C99.8019 35.6943 99.6975 35.5839 99.6312 35.4508C99.5648 35.3177 99.5394 35.1679 99.5582 35.0203C99.577 34.8728 99.6392 34.7342 99.7368 34.622C99.8345 34.5098 99.9632 34.429 100.107 34.39C100.25 34.351 100.402 34.3555 100.543 34.4028C100.684 34.4502 100.808 34.5383 100.899 34.656C100.99 34.7738 101.044 34.9158 101.054 35.0642C101.064 35.2126 101.03 35.3606 100.956 35.4896C100.856 35.6613 100.692 35.7865 100.5 35.8379C100.308 35.8894 100.104 35.863 99.9311 35.7645V35.7681Z" stroke="#263238" stroke-width="0.182" stroke-linecap="round" stroke-linejoin="round"/>
<path d="M44.5844 24.2656L38.8823 24.8972" stroke="#263238" stroke-width="1.82" stroke-linecap="round" stroke-linejoin="round"/>
<path d="M46.329 24.0728L43.3042 24.4076" stroke="#263238" stroke-width="0.91" stroke-linecap="round" stroke-linejoin="round"/>
<path d="M53.5989 26.6252C55.2677 24.9564 55.2677 22.2506 53.5989 20.5818C51.93 18.9129 49.2243 18.9129 47.5554 20.5818C45.8866 22.2506 45.8866 24.9564 47.5554 26.6252C49.2243 28.2941 51.93 28.2941 53.5989 26.6252Z" stroke="#263238" stroke-width="0.182" stroke-linecap="round" stroke-linejoin="round"/>
<path d="M50.9597 26.9722C50.2936 27.0455 49.6207 26.9197 49.0261 26.6106C48.4315 26.3015 47.9419 25.8231 47.6191 25.2358C47.2964 24.6485 47.155 23.9787 47.2129 23.3111C47.2707 22.6435 47.5252 22.008 47.9442 21.485C48.3631 20.962 48.9278 20.5749 49.5667 20.3727C50.2056 20.1706 50.8901 20.1624 51.5337 20.3492C52.1772 20.536 52.751 20.9094 53.1824 21.4222C53.6137 21.935 53.8834 22.5642 53.9572 23.2303C54.0558 24.124 53.7954 25.0202 53.2333 25.7219C52.6712 26.4236 51.8534 26.8734 50.9597 26.9722V26.9722Z" stroke="#263238" stroke-width="0.182" stroke-linecap="round" stroke-linejoin="round"/>
<path d="M72.6667 14.1777H65.7197V23.2632H72.6667V14.1777Z" stroke="#263238" stroke-width="0.182" stroke-linecap="round" stroke-linejoin="round"/>
<path d="M66.8207 14.6835C66.765 14.6831 66.7118 14.6606 66.6726 14.6211C66.6334 14.5815 66.6114 14.5281 66.6114 14.4724V13.6807C66.6109 13.6529 66.6159 13.6253 66.6262 13.5995C66.6365 13.5737 66.6519 13.5502 66.6714 13.5304C66.6908 13.5105 66.7141 13.4948 66.7397 13.4841C66.7653 13.4733 66.7929 13.4678 66.8207 13.4678C66.8483 13.4675 66.8757 13.4728 66.9013 13.4832C66.9269 13.4936 66.9502 13.509 66.9698 13.5284C66.9895 13.5479 67.005 13.571 67.0157 13.5966C67.0263 13.6221 67.0318 13.6494 67.0318 13.6771V14.4688C67.0323 14.4968 67.0272 14.5247 67.0168 14.5507C67.0064 14.5767 66.9909 14.6004 66.9712 14.6204C66.9516 14.6404 66.9282 14.6563 66.9023 14.6671C66.8764 14.678 66.8487 14.6835 66.8207 14.6835Z" fill="#263238" stroke="#263238" stroke-width="0.182" stroke-linecap="round" stroke-linejoin="round"/>
<path d="M68.4021 14.6835C68.3461 14.6835 68.2924 14.6613 68.2528 14.6217C68.2132 14.5821 68.1909 14.5284 68.1909 14.4724V13.6807C68.1905 13.6528 68.1956 13.625 68.206 13.5991C68.2164 13.5731 68.2319 13.5496 68.2516 13.5297C68.2713 13.5099 68.2947 13.4942 68.3206 13.4835C68.3464 13.4729 68.3741 13.4675 68.4021 13.4678C68.43 13.4675 68.4577 13.4729 68.4836 13.4835C68.5094 13.4942 68.5329 13.5099 68.5526 13.5297C68.5722 13.5496 68.5877 13.5731 68.5982 13.5991C68.6086 13.625 68.6137 13.6528 68.6132 13.6807V14.4724C68.6132 14.5001 68.6077 14.5276 68.5971 14.5532C68.5865 14.5788 68.571 14.6021 68.5514 14.6217C68.5318 14.6413 68.5085 14.6569 68.4829 14.6675C68.4572 14.6781 68.4298 14.6835 68.4021 14.6835Z" fill="#263238" stroke="#263238" stroke-width="0.182" stroke-linecap="round" stroke-linejoin="round"/>
<path d="M69.9836 14.6835C69.9276 14.6835 69.8739 14.6613 69.8343 14.6217C69.7947 14.5821 69.7725 14.5284 69.7725 14.4724V13.6807C69.772 13.6528 69.7771 13.625 69.7875 13.5991C69.7979 13.5731 69.8135 13.5496 69.8331 13.5297C69.8528 13.5099 69.8763 13.4942 69.9021 13.4835C69.928 13.4729 69.9557 13.4675 69.9836 13.4678C70.0112 13.4675 70.0385 13.4728 70.064 13.4832C70.0895 13.4937 70.1127 13.5091 70.1322 13.5285C70.1516 13.548 70.167 13.5712 70.1775 13.5967C70.1879 13.6222 70.1932 13.6495 70.1929 13.6771V14.4688C70.1936 14.4967 70.1888 14.5245 70.1786 14.5506C70.1684 14.5766 70.1531 14.6003 70.1336 14.6203C70.1141 14.6403 70.0907 14.6562 70.065 14.6671C70.0392 14.678 70.0116 14.6836 69.9836 14.6835Z" fill="#263238" stroke="#263238" stroke-width="0.182" stroke-linecap="round" stroke-linejoin="round"/>
<path d="M71.5637 14.6835C71.5077 14.6835 71.454 14.6613 71.4144 14.6217C71.3748 14.5821 71.3526 14.5284 71.3526 14.4724V13.6807C71.3521 13.6528 71.3572 13.625 71.3676 13.5991C71.378 13.5731 71.3935 13.5496 71.4132 13.5297C71.4329 13.5099 71.4563 13.4942 71.4822 13.4835C71.508 13.4729 71.5357 13.4675 71.5637 13.4678C71.5913 13.4675 71.6187 13.4728 71.6443 13.4832C71.67 13.4936 71.6932 13.509 71.7129 13.5284C71.7325 13.5479 71.7481 13.571 71.7587 13.5966C71.7693 13.6221 71.7748 13.6494 71.7748 13.6771V14.4688C71.7753 14.4968 71.7702 14.5247 71.7598 14.5507C71.7494 14.5767 71.7339 14.6004 71.7143 14.6204C71.6946 14.6404 71.6712 14.6563 71.6453 14.6671C71.6195 14.678 71.5917 14.6835 71.5637 14.6835Z" fill="#263238" stroke="#263238" stroke-width="0.182" stroke-linecap="round" stroke-linejoin="round"/>
<path d="M66.6226 16.6855H71.7349" stroke="#263238" stroke-width="0.182" stroke-linecap="round" stroke-linejoin="round"/>
<path d="M66.6226 18.0034H71.7349" stroke="#263238" stroke-width="0.182" stroke-linecap="round" stroke-linejoin="round"/>
<path d="M69.2046 19.3208H71.7344" stroke="#263238" stroke-width="0.182" stroke-linecap="round" stroke-linejoin="round"/>
<path d="M69.2046 20.6387H71.7344" stroke="#263238" stroke-width="0.182" stroke-linecap="round" stroke-linejoin="round"/>
<path d="M66.4639 19.8998L67.676 21.0063L68.5732 18.5293" stroke="#263238" stroke-width="0.364" stroke-linecap="round" stroke-linejoin="round"/>
<path d="M104.149 51.4946H32.2174C31.1198 51.4946 30.23 52.3844 30.23 53.4821V53.817C30.23 54.9146 31.1198 55.8044 32.2174 55.8044H104.149C105.247 55.8044 106.137 54.9146 106.137 53.817V53.4821C106.137 52.3844 105.247 51.4946 104.149 51.4946Z" fill="white" stroke="#263238" stroke-width="0.182" stroke-linecap="round" stroke-linejoin="round"/>
<path d="M103.98 52.1772H32.387C31.6372 52.1772 31.0293 52.7851 31.0293 53.535V53.7625C31.0293 54.5123 31.6372 55.1202 32.387 55.1202H103.98C104.73 55.1202 105.338 54.5123 105.338 53.7625V53.535C105.338 52.7851 104.73 52.1772 103.98 52.1772Z" fill="#263238" stroke="#263238" stroke-width="0.182" stroke-linecap="round" stroke-linejoin="round"/>
<path d="M33.8377 55.0109C34.5986 55.0109 35.2154 54.394 35.2154 53.6331C35.2154 52.8722 34.5986 52.2554 33.8377 52.2554C33.0768 52.2554 32.46 52.8722 32.46 53.6331C32.46 54.394 33.0768 55.0109 33.8377 55.0109Z" fill="white" stroke="#263238" stroke-width="0.182" stroke-linecap="round" stroke-linejoin="round"/>
<path d="M34.3762 53.6334C34.3762 53.5254 34.3442 53.4198 34.2842 53.3301C34.2242 53.2403 34.1389 53.1703 34.0391 53.129C33.9394 53.0876 33.8296 53.0768 33.7237 53.0979C33.6177 53.119 33.5205 53.171 33.4441 53.2473C33.3677 53.3237 33.3157 53.421 33.2947 53.5269C33.2736 53.6328 33.2844 53.7426 33.3257 53.8423C33.3671 53.9421 33.437 54.0274 33.5268 54.0874C33.6166 54.1474 33.7222 54.1794 33.8302 54.1794C33.975 54.1794 34.1139 54.1219 34.2163 54.0195C34.3187 53.9171 34.3762 53.7782 34.3762 53.6334Z" fill="white" stroke="#263238" stroke-width="0.182" stroke-linecap="round" stroke-linejoin="round"/>
<path d="M40.741 55.0109C41.5019 55.0109 42.1188 54.394 42.1188 53.6331C42.1188 52.8722 41.5019 52.2554 40.741 52.2554C39.9801 52.2554 39.3633 52.8722 39.3633 53.6331C39.3633 54.394 39.9801 55.0109 40.741 55.0109Z" fill="white" stroke="#263238" stroke-width="0.182" stroke-linecap="round" stroke-linejoin="round"/>
<path d="M41.2771 53.6334C41.2771 53.5254 41.245 53.4198 41.185 53.3301C41.125 53.2403 41.0398 53.1703 40.94 53.129C40.8402 53.0876 40.7305 53.0768 40.6245 53.0979C40.5186 53.119 40.4213 53.171 40.345 53.2473C40.2686 53.3237 40.2166 53.421 40.1956 53.5269C40.1745 53.6328 40.1853 53.7426 40.2266 53.8423C40.2679 53.9421 40.3379 54.0274 40.4277 54.0874C40.5175 54.1474 40.6231 54.1794 40.7311 54.1794C40.8759 54.1794 41.0147 54.1219 41.1171 54.0195C41.2195 53.9171 41.2771 53.7782 41.2771 53.6334Z" fill="white" stroke="#263238" stroke-width="0.182" stroke-linecap="round" stroke-linejoin="round"/>
<path d="M47.6419 55.0109C48.4028 55.0109 49.0196 54.394 49.0196 53.6331C49.0196 52.8722 48.4028 52.2554 47.6419 52.2554C46.881 52.2554 46.2642 52.8722 46.2642 53.6331C46.2642 54.394 46.881 55.0109 47.6419 55.0109Z" fill="white" stroke="#263238" stroke-width="0.182" stroke-linecap="round" stroke-linejoin="round"/>
<path d="M48.1804 53.6334C48.1804 53.5254 48.1484 53.4198 48.0884 53.3301C48.0284 53.2403 47.9431 53.1703 47.8433 53.129C47.7436 53.0876 47.6338 53.0768 47.5279 53.0979C47.4219 53.119 47.3247 53.171 47.2483 53.2473C47.1719 53.3237 47.1199 53.421 47.0989 53.5269C47.0778 53.6328 47.0886 53.7426 47.1299 53.8423C47.1713 53.9421 47.2412 54.0274 47.331 54.0874C47.4208 54.1474 47.5264 54.1794 47.6344 54.1794C47.7792 54.1794 47.9181 54.1219 48.0205 54.0195C48.1229 53.9171 48.1804 53.7782 48.1804 53.6334Z" fill="white" stroke="#263238" stroke-width="0.182" stroke-linecap="round" stroke-linejoin="round"/>
<path d="M54.5452 55.0109C55.3061 55.0109 55.923 54.394 55.923 53.6331C55.923 52.8722 55.3061 52.2554 54.5452 52.2554C53.7843 52.2554 53.1675 52.8722 53.1675 53.6331C53.1675 54.394 53.7843 55.0109 54.5452 55.0109Z" fill="white" stroke="#263238" stroke-width="0.182" stroke-linecap="round" stroke-linejoin="round"/>
<path d="M55.0842 53.6334C55.0842 53.5254 55.0522 53.4198 54.9922 53.3301C54.9322 53.2403 54.8469 53.1703 54.7471 53.129C54.6474 53.0876 54.5376 53.0768 54.4317 53.0979C54.3258 53.119 54.2285 53.171 54.1521 53.2473C54.0757 53.3237 54.0237 53.421 54.0027 53.5269C53.9816 53.6328 53.9924 53.7426 54.0337 53.8423C54.0751 53.9421 54.1451 54.0274 54.2348 54.0874C54.3246 54.1474 54.4302 54.1794 54.5382 54.1794C54.683 54.1794 54.8219 54.1219 54.9243 54.0195C55.0267 53.9171 55.0842 53.7782 55.0842 53.6334Z" fill="white" stroke="#263238" stroke-width="0.182" stroke-linecap="round" stroke-linejoin="round"/>
<path d="M81.3397 55.0109C82.1006 55.0109 82.7174 54.394 82.7174 53.6331C82.7174 52.8722 82.1006 52.2554 81.3397 52.2554C80.5788 52.2554 79.9619 52.8722 79.9619 53.6331C79.9619 54.394 80.5788 55.0109 81.3397 55.0109Z" fill="white" stroke="#263238" stroke-width="0.182" stroke-linecap="round" stroke-linejoin="round"/>
<path d="M81.8786 53.6334C81.8786 53.5254 81.8466 53.4198 81.7866 53.3301C81.7266 53.2403 81.6413 53.1703 81.5416 53.129C81.4418 53.0876 81.332 53.0768 81.2261 53.0979C81.1202 53.119 81.0229 53.171 80.9465 53.2473C80.8702 53.3237 80.8182 53.421 80.7971 53.5269C80.776 53.6328 80.7869 53.7426 80.8282 53.8423C80.8695 53.9421 80.9395 54.0274 81.0293 54.0874C81.1191 54.1474 81.2246 54.1794 81.3326 54.1794C81.4774 54.1794 81.6163 54.1219 81.7187 54.0195C81.8211 53.9171 81.8786 53.7782 81.8786 53.6334Z" fill="white" stroke="#263238" stroke-width="0.182" stroke-linecap="round" stroke-linejoin="round"/>
<path d="M88.2425 55.0109C89.0034 55.0109 89.6202 54.394 89.6202 53.6331C89.6202 52.8722 89.0034 52.2554 88.2425 52.2554C87.4816 52.2554 86.8647 52.8722 86.8647 53.6331C86.8647 54.394 87.4816 55.0109 88.2425 55.0109Z" fill="white" stroke="#263238" stroke-width="0.182" stroke-linecap="round" stroke-linejoin="round"/>
<path d="M88.7815 53.6334C88.7815 53.5254 88.7494 53.4198 88.6894 53.3301C88.6294 53.2403 88.5442 53.1703 88.4444 53.129C88.3446 53.0876 88.2348 53.0768 88.1289 53.0979C88.023 53.119 87.9257 53.171 87.8494 53.2473C87.773 53.3237 87.721 53.421 87.6999 53.5269C87.6789 53.6328 87.6897 53.7426 87.731 53.8423C87.7723 53.9421 87.8423 54.0274 87.9321 54.0874C88.0219 54.1474 88.1275 54.1794 88.2355 54.1794C88.3803 54.1794 88.5191 54.1219 88.6215 54.0195C88.7239 53.9171 88.7815 53.7782 88.7815 53.6334Z" fill="white" stroke="#263238" stroke-width="0.182" stroke-linecap="round" stroke-linejoin="round"/>
<path d="M95.1458 55.0109C95.9067 55.0109 96.5235 54.394 96.5235 53.6331C96.5235 52.8722 95.9067 52.2554 95.1458 52.2554C94.3849 52.2554 93.7681 52.8722 93.7681 53.6331C93.7681 54.394 94.3849 55.0109 95.1458 55.0109Z" fill="white" stroke="#263238" stroke-width="0.182" stroke-linecap="round" stroke-linejoin="round"/>
<path d="M95.6848 53.6334C95.6848 53.5254 95.6528 53.4198 95.5928 53.3301C95.5328 53.2403 95.4475 53.1703 95.3477 53.129C95.2479 53.0876 95.1382 53.0768 95.0322 53.0979C94.9263 53.119 94.829 53.171 94.7527 53.2473C94.6763 53.3237 94.6243 53.421 94.6033 53.5269C94.5822 53.6328 94.593 53.7426 94.6343 53.8423C94.6757 53.9421 94.7456 54.0274 94.8354 54.0874C94.9252 54.1474 95.0308 54.1794 95.1388 54.1794C95.2836 54.1794 95.4225 54.1219 95.5249 54.0195C95.6272 53.9171 95.6848 53.7782 95.6848 53.6334Z" fill="white" stroke="#263238" stroke-width="0.182" stroke-linecap="round" stroke-linejoin="round"/>
<path d="M102.049 55.0109C102.81 55.0109 103.427 54.394 103.427 53.6331C103.427 52.8722 102.81 52.2554 102.049 52.2554C101.288 52.2554 100.671 52.8722 100.671 53.6331C100.671 54.394 101.288 55.0109 102.049 55.0109Z" fill="white" stroke="#263238" stroke-width="0.182" stroke-linecap="round" stroke-linejoin="round"/>
<path d="M102.586 53.6333C102.586 53.525 102.554 53.419 102.493 53.3291C102.433 53.2391 102.347 53.1691 102.247 53.1281C102.147 53.087 102.036 53.0768 101.93 53.0986C101.824 53.1204 101.727 53.1733 101.651 53.2506C101.575 53.3279 101.524 53.426 101.504 53.5325C101.484 53.639 101.496 53.7491 101.538 53.8487C101.581 53.9482 101.652 54.0329 101.743 54.0918C101.834 54.1507 101.941 54.1811 102.049 54.1793C102.192 54.1769 102.329 54.1184 102.429 54.0162C102.53 53.9141 102.586 53.7766 102.586 53.6333Z" fill="white" stroke="#263238" stroke-width="0.182" stroke-linecap="round" stroke-linejoin="round"/>
<path d="M87.4251 55.8028C88.417 52.7641 88.6751 49.5338 88.1783 46.3762C87.6815 43.2185 86.4439 40.2235 84.5669 37.6362C82.6898 35.049 80.2267 32.9431 77.3791 31.4909C74.5315 30.0388 71.3805 29.2817 68.1841 29.2817C64.9876 29.2817 61.8366 30.0388 58.989 31.4909C56.1415 32.9431 53.6783 35.049 51.8013 37.6362C49.9242 40.2235 48.6866 43.2185 48.1898 46.3762C47.693 49.5338 47.9511 52.7641 48.943 55.8028H87.4251Z" fill="#263238" stroke="#263238" stroke-width="0.182" stroke-linecap="round" stroke-linejoin="round"/>
<path d="M50.2193 53.8062H86.1498C87.1152 53.8062 88.041 54.1897 88.7236 54.8723C89.4063 55.5549 89.7898 56.4808 89.7898 57.4462V61.2208H46.5757V57.448C46.5754 56.9695 46.6695 56.4957 46.8526 56.0536C47.0356 55.6115 47.304 55.2099 47.6425 54.8716C47.9809 54.5334 48.3827 54.2652 48.8248 54.0824C49.267 53.8995 49.7409 53.8057 50.2193 53.8062Z" fill="white" stroke="#263238" stroke-width="0.182" stroke-linecap="round" stroke-linejoin="round"/>
<path d="M42.2238 60.2236H94.143C94.9809 60.2236 95.7846 60.5565 96.3771 61.149C96.9696 61.7416 97.3025 62.5452 97.3025 63.3832V75.6281H39.0625V63.3832C39.0625 62.9681 39.1443 62.5571 39.3032 62.1736C39.4621 61.7902 39.695 61.4418 39.9885 61.1484C40.2821 60.855 40.6306 60.6223 41.0142 60.4636C41.3977 60.3049 41.8088 60.2234 42.2238 60.2236Z" fill="white" stroke="#263238" stroke-width="0.182" stroke-linecap="round" stroke-linejoin="round"/>
<path d="M44.3951 62.0674H42.6079V63.9529H44.3951V62.0674Z" fill="white" stroke="#263238" stroke-width="0.182" stroke-linecap="round" stroke-linejoin="round"/>
<path d="M47.4713 62.0674H45.6841V63.9529H47.4713V62.0674Z" fill="white" stroke="#263238" stroke-width="0.182" stroke-linecap="round" stroke-linejoin="round"/>
<path d="M91.4371 62.0674H89.6499V63.9529H91.4371V62.0674Z" fill="white" stroke="#263238" stroke-width="0.182" stroke-linecap="round" stroke-linejoin="round"/>
<path d="M94.5123 62.0674H92.7251V63.9529H94.5123V62.0674Z" fill="white" stroke="#263238" stroke-width="0.182" stroke-linecap="round" stroke-linejoin="round"/>
<path d="M47.6367 66.0366H97.2918" stroke="#263238" stroke-width="0.182" stroke-linecap="round" stroke-linejoin="round"/>
<path d="M39.1338 66.0366H46.3119" stroke="#263238" stroke-width="0.182" stroke-linecap="round" stroke-linejoin="round"/>
<path d="M40.7222 75.4659L42.6077 73.0835H57.4935V75.5642" fill="#263238"/>
<path d="M40.7222 75.4659L42.6077 73.0835H57.4935V75.5642" stroke="#263238" stroke-width="0.182" stroke-linecap="round" stroke-linejoin="round"/>
<path d="M95.7029 75.4659L93.8174 73.0835H78.9316V75.5642" fill="#263238"/>
<path d="M95.7029 75.4659L93.8174 73.0835H78.9316V75.5642" stroke="#263238" stroke-width="0.182" stroke-linecap="round" stroke-linejoin="round"/>
<path d="M63.5488 70.8307C63.3996 70.6906 63.2558 70.545 63.1211 70.3921L63.5488 70.8307Z" fill="white"/>
<path d="M63.5488 70.8307C63.3996 70.6906 63.2558 70.545 63.1211 70.3921" stroke="#263238" stroke-width="0.182" stroke-linecap="round" stroke-linejoin="round"/>
<path d="M62.4007 69.4127C61.7856 68.3942 61.4614 67.2265 61.4634 66.0366H74.5674C74.5674 67.7743 73.8771 69.4408 72.6484 70.6696C71.4196 71.8983 69.7531 72.5886 68.0154 72.5886C66.7696 72.5908 65.5493 72.2359 64.4992 71.5658" fill="white"/>
<path d="M62.4007 69.4127C61.7856 68.3942 61.4614 67.2265 61.4634 66.0366H74.5674C74.5674 67.7743 73.8771 69.4408 72.6484 70.6696C71.4196 71.8983 69.7531 72.5886 68.0154 72.5886V72.5886C66.7696 72.5908 65.5493 72.2359 64.4992 71.5658" stroke="#263238" stroke-width="0.182" stroke-linecap="round" stroke-linejoin="round"/>
<path d="M70.0872 61.4751C76.6923 60.423 81.1939 54.2157 80.1418 47.6107C79.0898 41.0056 72.8825 36.504 66.2774 37.556C59.6723 38.6081 55.1707 44.8154 56.2228 51.4205C57.2748 58.0255 63.4821 62.5271 70.0872 61.4751Z" fill="white" stroke="#263238" stroke-width="0.182" stroke-linecap="round" stroke-linejoin="round"/>
<path d="M62.7954 54.8271L76.6947 40.9277" stroke="#263238" stroke-width="0.182" stroke-linecap="round" stroke-linejoin="round"/>
<path d="M61.4395 56.1831L62.1383 55.4824" stroke="#263238" stroke-width="0.182" stroke-linecap="round" stroke-linejoin="round"/>
<path d="M59.6743 57.9468L60.7845 56.8384" stroke="#263238" stroke-width="0.182" stroke-linecap="round" stroke-linejoin="round"/>
<path d="M69.0879 53.5375C71.3068 53.037 72.6999 50.8325 72.1995 48.6136C71.699 46.3947 69.4945 45.0016 67.2756 45.502C65.0566 46.0025 63.6635 48.207 64.164 50.4259C64.6645 52.6449 66.869 54.038 69.0879 53.5375Z" fill="#263238" stroke="#263238" stroke-width="0.182" stroke-linecap="round" stroke-linejoin="round"/>
<path d="M131.025 75.6284H133.588" stroke="#263238" stroke-width="0.182" stroke-linecap="round" stroke-linejoin="round"/>
<path d="M6.54834 75.6284H129.013" stroke="#263238" stroke-width="0.182" stroke-linecap="round" stroke-linejoin="round"/>
<path d="M86.0494 46.1153L86.8138 43.3616L85.4215 43.7256C84.5433 41.1105 83.0816 38.7295 81.1471 36.7628C79.2126 34.7962 76.856 33.2954 74.2558 32.3743L72.2902 30.1611L71.7806 31.6918C68.6026 31.0489 65.3105 31.2691 62.2465 32.3295C59.1825 33.3899 56.4585 35.2517 54.3577 37.7214L51.797 38.6478L52.9418 39.6124C51.0207 42.5569 49.9993 45.9974 50.0024 49.5132H53.8499C53.847 46.9051 54.5596 44.3461 55.9102 42.1149L57.1077 43.1232L57.7101 39.7398C59.3219 38.0051 61.3392 36.6979 63.581 35.9355C65.8227 35.1731 68.2188 34.9794 70.5539 35.3718L70.0953 36.7459L73.253 36.098C75.1958 36.8319 76.9559 37.9793 78.4115 39.4607C79.8671 40.9421 80.9834 42.7221 81.6832 44.6775L80.0889 45.0888L84.9519 50.0501L86.033 46.168H86.0603C86.0555 46.1507 86.0519 46.1331 86.0494 46.1153Z" fill="#FFC100"/>
<path d="M51.1872 47.0851C51.2309 46.7502 51.4548 46.6228 51.786 46.6665L52.878 46.8085C53.2074 46.8521 53.3894 47.0323 53.3458 47.3672L53.2802 47.8732L51.1235 47.5911L51.1872 47.0851ZM53.1237 47.3417C53.1456 47.1706 53.0491 47.0724 52.8525 47.0469L51.7442 46.9013C51.5458 46.8758 51.4275 46.945 51.4038 47.1215L51.3711 47.3799L53.0891 47.6038L53.1237 47.3417Z" fill="#263238"/>
<path d="M52.4162 45.682L52.6291 45.7275L52.5199 46.2462L53.277 46.4046L53.4099 45.7658L53.6265 45.8113L53.4445 46.6867L51.3169 46.2426L51.4989 45.3672L51.7137 45.4127L51.5808 46.0497L52.3088 46.2026L52.4162 45.682Z" fill="#263238"/>
<path d="M52.3399 44.2808L52.3981 44.2972L52.3344 44.5174L52.2653 44.4974C52.0833 44.4446 51.9468 44.4847 51.9013 44.6503C51.8558 44.8159 51.9431 44.9215 52.1269 44.9742C52.5947 45.1089 52.8422 44.4282 53.4301 44.5902C53.7449 44.6794 53.9087 44.8923 53.8159 45.2108C53.7231 45.5293 53.4755 45.6203 53.1589 45.5293L53.0406 45.4948L53.1024 45.2764L53.2335 45.3146C53.4155 45.3692 53.5538 45.3237 53.5975 45.1562C53.6412 44.9888 53.5574 44.8796 53.37 44.825C52.9041 44.6921 52.6584 45.371 52.0705 45.209C51.7484 45.1162 51.5918 44.9087 51.681 44.5957C51.7702 44.2826 52.025 44.1898 52.3399 44.2808Z" fill="#263238"/>
<path d="M52.019 43.6235L54.072 44.3352L53.9919 44.5627L51.939 43.851L52.019 43.6235Z" fill="#263238"/>
<path d="M52.9801 42.6082L53.153 42.6792L53.0656 42.8921L52.8836 42.8157C52.7016 42.7429 52.5633 42.7702 52.496 42.934C52.4286 43.0978 52.5087 43.2143 52.6907 43.2871L53.7536 43.7239C53.9356 43.7967 54.0739 43.7676 54.1394 43.6056C54.2049 43.4436 54.1267 43.3253 53.9465 43.2525L53.5443 43.0869L53.4587 43.2944L53.2585 43.2125L53.4296 42.792L54.0229 43.0341C54.3269 43.1597 54.4688 43.3854 54.3414 43.6966C54.214 44.0078 53.9556 44.0606 53.6517 43.9405L52.6106 43.5146C52.3067 43.389 52.1647 43.1633 52.2903 42.8557C52.4159 42.5482 52.6743 42.4845 52.9801 42.6082Z" fill="#263238"/>
<path d="M54.6782 42.8718L54.5817 43.0665L52.6416 42.0855L52.7799 41.8107L54.4088 42.071L53.0074 41.363L53.1039 41.1719L55.044 42.151L54.9293 42.3767L53.1093 42.0782L54.6782 42.8718Z" fill="#263238"/>
<path d="M60.3329 34.116C60.6332 33.9613 60.8644 34.0723 61.0191 34.3708L61.5159 35.3445C61.667 35.6393 61.6233 35.8905 61.323 36.047L60.8698 36.2818L59.8779 34.349L60.3329 34.116ZM61.2247 35.8541C61.3794 35.774 61.4067 35.6393 61.3121 35.4628L60.8007 34.4691C60.7097 34.2871 60.5859 34.2343 60.4276 34.3144L60.1964 34.4345L60.9899 35.9742L61.2247 35.8541Z" fill="#263238"/>
<path d="M62.173 34.3305L62.2585 34.5307L61.7689 34.7364L62.071 35.448L62.6698 35.195L62.7572 35.397L61.9327 35.7465L61.0864 33.7445L61.9109 33.395L61.9964 33.5989L61.3958 33.8518L61.6852 34.5362L62.173 34.3305Z" fill="#263238"/>
<path d="M62.4263 33.2094L63.36 34.8911L63.0961 32.9855L63.3072 32.9146L63.6093 35.0986L63.2708 35.2114L62.1934 33.2786L62.4263 33.2094Z" fill="#263238"/>
<path d="M64.5824 33.5829L64.6334 33.794L64.1183 33.9214L64.3003 34.6731L64.9318 34.5147L64.9846 34.7295L64.1238 34.9443L63.5996 32.8349L64.4677 32.6201L64.5205 32.8349L63.889 32.9914L64.071 33.7103L64.5824 33.5829Z" fill="#263238"/>
<path d="M65.1778 34.691L64.8047 32.5507L65.0431 32.5088L65.3798 34.4325L65.9913 34.327L66.0277 34.5436L65.1778 34.691Z" fill="#263238"/>
<path d="M65.986 32.8855C65.9514 32.5542 66.0952 32.3249 66.4246 32.2921C66.754 32.2594 66.9433 32.4541 66.9706 32.7854L67.0816 33.9047C67.1144 34.2323 66.9724 34.4652 66.6394 34.498C66.3063 34.5307 66.1225 34.3305 66.0934 34.0029L65.986 32.8855ZM66.3372 33.992C66.3554 34.1904 66.4519 34.296 66.6248 34.2778C66.7977 34.2596 66.8687 34.1376 66.8487 33.9411L66.734 32.7981C66.7158 32.6034 66.623 32.4923 66.4464 32.5105C66.2699 32.5287 66.2026 32.6543 66.2226 32.8491L66.3372 33.992Z" fill="#263238"/>
<path d="M67.7572 32.2324C68.0975 32.2324 68.2486 32.4235 68.2559 32.7511V33.0132C68.2559 33.3572 68.1066 33.541 67.7627 33.5483H67.5479L67.5679 34.4055H67.3259L67.2749 32.2324H67.7572ZM67.7572 33.3244C67.9392 33.3244 68.0211 33.2352 68.0175 33.0259V32.7384C68.0175 32.54 67.9392 32.4417 67.7608 32.4454H67.5297L67.5497 33.3244H67.7572Z" fill="#263238"/>
<path d="M77.3501 37.5723L78.5677 36.0435L78.2601 35.7941L78.3984 35.623L79.2138 36.2728L79.0773 36.4457L78.7642 36.1945L77.5467 37.7233L77.3501 37.5723Z" fill="#263238"/>
<path d="M79.3519 37.6941L79.2044 37.8542L78.8059 37.492L78.2817 38.0599L78.7604 38.5021L78.6111 38.6641L77.9541 38.0581L79.4283 36.4619L80.0853 37.068L79.9361 37.23L79.4574 36.7877L78.9533 37.3337L79.3519 37.6941Z" fill="#263238"/>
<path d="M80.5936 38.3547L80.5517 38.3966L80.3934 38.2291L80.4462 38.18C80.5881 38.0453 80.6282 37.9125 80.5026 37.7869C80.377 37.6613 80.2496 37.6831 80.1095 37.8142C79.7455 38.1472 80.2187 38.7114 79.7709 39.13C79.5307 39.3557 79.2668 39.3867 79.0429 39.1428C78.8191 38.8989 78.8609 38.6405 79.1066 38.4148L79.1976 38.3292L79.3523 38.4949L79.2522 38.5877C79.1103 38.7224 79.0812 38.8589 79.1995 38.9863C79.3178 39.1137 79.4579 39.0936 79.5999 38.9608C79.9639 38.6295 79.4907 38.0672 79.9384 37.6486C80.1823 37.4192 80.4407 37.3919 80.6664 37.6285C80.8921 37.8651 80.8338 38.1309 80.5936 38.3547Z" fill="#263238"/>
<path d="M79.6992 39.8579L81.2189 38.6312L80.9678 38.32L81.1388 38.1816L81.794 38.9934L81.623 39.1317L81.37 38.8205L79.8521 40.0471L79.6992 39.8579Z" fill="#263238"/>
<path d="M82.0822 39.3992L80.3241 40.6732L80.1821 40.4766L81.9402 39.2026L82.0822 39.3992Z" fill="#263238"/>
<path d="M80.5735 41.0322L80.457 40.8502L82.277 39.6763L82.4445 39.9365L81.3925 41.2105L82.7157 40.3624L82.8303 40.5444L81.0103 41.7183L80.8756 41.5054L82.0532 40.0894L80.5735 41.0322Z" fill="#263238"/>
<path d="M83.0197 41.9584L82.8541 42.0457L82.7467 41.8437L82.9287 41.7491C83.1016 41.6581 83.169 41.5343 83.0853 41.3851C83.0015 41.2358 82.8614 41.2158 82.6885 41.3086L81.6748 41.8546C81.5037 41.9456 81.4363 42.073 81.5201 42.2186C81.6038 42.3642 81.7439 42.3879 81.915 42.2951L82.299 42.0912L82.1935 41.8928L82.3846 41.7909L82.5993 42.1913L82.0351 42.4916C81.7457 42.6481 81.48 42.6136 81.3217 42.3096C81.1633 42.0057 81.2835 41.7782 81.5747 41.6235L82.5647 41.092C82.8559 40.9373 83.1198 40.9719 83.2764 41.2649C83.4329 41.558 83.3091 41.8037 83.0197 41.9584Z" fill="#263238"/>
<path d="M101.596 44.4624H93.4697V51.5367H101.596V44.4624Z" fill="#FFC100" stroke="#263238" stroke-width="0.182" stroke-linecap="round" stroke-linejoin="round"/>
<path d="M101.596 44.4624H97.0317V51.5367H101.596V44.4624Z" fill="#FFC100" stroke="#263238" stroke-width="0.182" stroke-linecap="round" stroke-linejoin="round"/>
<path d="M91.8628 47.2891H92.9439" stroke="#263238" stroke-width="0.182" stroke-linecap="round" stroke-linejoin="round"/>
<path d="M92.1084 43.4561L92.8946 43.9475" stroke="#263238" stroke-width="0.182" stroke-linecap="round" stroke-linejoin="round"/>
<path d="M94.8604 42.4238L95.2535 43.4558" stroke="#263238" stroke-width="0.182" stroke-linecap="round" stroke-linejoin="round"/>
<path d="M103.261 47.2891H102.18" stroke="#263238" stroke-width="0.182" stroke-linecap="round" stroke-linejoin="round"/>
<path d="M103.016 43.4561L102.229 43.9475" stroke="#263238" stroke-width="0.182" stroke-linecap="round" stroke-linejoin="round"/>
<path d="M100.264 42.4238L99.8706 43.4558" stroke="#263238" stroke-width="0.182" stroke-linecap="round" stroke-linejoin="round"/>
<path d="M97.561 43.4069V42.0801" stroke="#263238" stroke-width="0.182" stroke-linecap="round" stroke-linejoin="round"/>
<path d="M38.6129 50.0154H40.3802C41.019 49.4785 41.1191 48.3428 41.6542 47.6749H41.6378C41.872 47.3399 42.0241 46.9545 42.0815 46.5497C42.139 46.145 42.1002 45.7325 41.9684 45.3456C41.8366 44.9586 41.6154 44.6082 41.3228 44.3228C41.0303 44.0373 40.6745 43.8248 40.2845 43.7026C39.8944 43.5803 39.481 43.5517 39.0779 43.6191C38.6747 43.6864 38.2931 43.8479 37.964 44.0903C37.6349 44.3328 37.3676 44.6494 37.1837 45.0145C36.9998 45.3795 36.9046 45.7828 36.9058 46.1916C36.9058 46.905 37.288 47.5202 37.6338 48.139C37.9796 48.7578 38.1052 49.5841 38.6129 50.0154Z" fill="#FFC100" stroke="#263238" stroke-width="0.182" stroke-linecap="round" stroke-linejoin="round"/>
<path d="M40.3551 50.23H38.6006V50.5994H40.3551V50.23Z" fill="#263238"/>
<path d="M38.6006 50.6611H40.3551V50.6903C40.3551 50.7805 40.3192 50.8671 40.2554 50.9309C40.1916 50.9947 40.105 51.0306 40.0147 51.0306H38.9482C38.8579 51.0306 38.7714 50.9947 38.7075 50.9309C38.6437 50.8671 38.6079 50.7805 38.6079 50.6903V50.6611H38.6006Z" fill="#263238"/>
<path d="M35.459 46.2261H36.4745" stroke="#263238" stroke-width="0.182" stroke-linecap="round" stroke-linejoin="round"/>
<path d="M35.8286 43.394L36.8442 44.2258" stroke="#263238" stroke-width="0.182" stroke-linecap="round" stroke-linejoin="round"/>
<path d="M38.1689 42.1929L38.5075 43.1156" stroke="#263238" stroke-width="0.182" stroke-linecap="round" stroke-linejoin="round"/>
<path d="M43.7416 46.2261H42.7261" stroke="#263238" stroke-width="0.182" stroke-linecap="round" stroke-linejoin="round"/>
<path d="M43.3725 43.394L42.3569 44.2258" stroke="#263238" stroke-width="0.182" stroke-linecap="round" stroke-linejoin="round"/>
<path d="M41.0319 42.1929L40.6934 43.1156" stroke="#263238" stroke-width="0.182" stroke-linecap="round" stroke-linejoin="round"/>
<path d="M111.119 53.0783L112.04 75.1021H113.683L114.626 57.3517H115.086L116.839 75.1021H118.35L118.744 52.9473L111.119 53.0783Z" fill="#263238" stroke="#263238" stroke-width="0.182" stroke-linecap="round" stroke-linejoin="round"/>
<path d="M117.954 38.9443H111.775V53.0785H117.954V38.9443Z" fill="#FFC100" stroke="#263238" stroke-width="0.182" stroke-linecap="round" stroke-linejoin="round"/>
<path d="M113.382 38.7095L113.224 61.8489H109.994V39.1335L113.382 38.7095Z" fill="white" stroke="#263238" stroke-width="0.182" stroke-linecap="round" stroke-linejoin="round"/>
<path d="M113.329 46.4408L113.382 38.7095L112.753 38.7877L112.059 41.1446L112.958 41.94L112.112 42.8918L113.329 46.4408Z" fill="white" stroke="#263238" stroke-width="0.182" stroke-linecap="round" stroke-linejoin="round"/>
<path d="M109.994 39.1299L105.757 46.7011C105.757 46.7011 105.704 47.5492 106.339 47.8659C106.975 48.1826 107.451 48.1316 107.613 48.026C107.775 47.9205 110.161 46.2242 110.161 46.2242L109.994 39.1299Z" fill="white" stroke="#263238" stroke-width="0.182" stroke-linecap="round" stroke-linejoin="round"/>
<path d="M113.33 37.914V39.3445L114.178 40.7204L115.554 39.1334V37.439L113.33 37.914Z" fill="white" stroke="#263238" stroke-width="0.182" stroke-linecap="round" stroke-linejoin="round"/>
<path d="M113.712 32.5396H114.804C115.186 32.5396 115.553 32.6914 115.823 32.9617C116.094 33.2321 116.245 33.5987 116.245 33.981V36.5818C116.245 37.0678 116.052 37.534 115.709 37.8777C115.365 38.2214 114.899 38.4145 114.413 38.4145H114.107C113.866 38.415 113.627 38.3679 113.404 38.276C113.182 38.1842 112.979 38.0492 112.809 37.879C112.638 37.7088 112.503 37.5066 112.41 37.284C112.318 37.0614 112.271 36.8228 112.271 36.5818V33.981C112.271 33.5987 112.422 33.2321 112.693 32.9617C112.963 32.6914 113.33 32.5396 113.712 32.5396Z" fill="white" stroke="#263238" stroke-width="0.182" stroke-linecap="round" stroke-linejoin="round"/>
<path d="M113.34 35.3022V36.7309H113.888" fill="white"/>
<path d="M113.34 35.3022V36.7309H113.888" stroke="#263238" stroke-width="0.182" stroke-linecap="round" stroke-linejoin="round"/>
<path d="M113.164 37.1808H113.905C114.109 37.1833 114.309 37.1194 114.474 36.9988L114.535 36.9551" fill="white"/>
<path d="M113.164 37.1808H113.905C114.109 37.1833 114.309 37.1194 114.474 36.9988L114.535 36.9551" stroke="#263238" stroke-width="0.182" stroke-linecap="round" stroke-linejoin="round"/>
<path d="M112.558 34.7944C112.644 34.7096 112.76 34.6621 112.881 34.6621C113.002 34.6621 113.118 34.7096 113.204 34.7944" fill="white"/>
<path d="M112.558 34.7944C112.644 34.7096 112.76 34.6621 112.881 34.6621C113.002 34.6621 113.118 34.7096 113.204 34.7944" stroke="#263238" stroke-width="0.182" stroke-linecap="round" stroke-linejoin="round"/>
<path d="M113.932 34.8329C114.058 34.7273 114.217 34.6694 114.382 34.6694C114.547 34.6694 114.706 34.7273 114.833 34.8329" fill="white"/>
<path d="M113.932 34.8329C114.058 34.7273 114.217 34.6694 114.382 34.6694C114.547 34.6694 114.706 34.7273 114.833 34.8329" stroke="#263238" stroke-width="0.182" stroke-linecap="round" stroke-linejoin="round"/>
<path d="M112.97 35.3713C112.97 35.5388 112.908 35.6734 112.831 35.6734C112.755 35.6734 112.695 35.5388 112.695 35.3713C112.695 35.2039 112.757 35.0674 112.831 35.0674C112.906 35.0674 112.97 35.2039 112.97 35.3713Z" fill="#263238"/>
<path d="M114.494 35.3713C114.494 35.5388 114.432 35.6734 114.358 35.6734C114.283 35.6734 114.221 35.5388 114.221 35.3713C114.221 35.2039 114.281 35.0674 114.358 35.0674C114.434 35.0674 114.494 35.2039 114.494 35.3713Z" fill="#263238"/>
<path d="M116.241 35.1349C116.241 35.1349 116.507 34.3941 116.771 34.9238C116.876 35.1596 116.921 35.4179 116.902 35.6755C116.883 35.9331 116.801 36.182 116.662 36.3998C116.64 36.4349 116.61 36.4643 116.574 36.4855C116.538 36.5067 116.498 36.5192 116.457 36.5218C116.415 36.5245 116.374 36.5173 116.336 36.5008C116.298 36.4844 116.264 36.4591 116.238 36.4271L116.241 35.1349Z" fill="white" stroke="#263238" stroke-width="0.182" stroke-linecap="round" stroke-linejoin="round"/>
<path d="M116.242 35.6408V34.1029C116.242 33.8977 116.202 33.6945 116.123 33.5048C116.045 33.3151 115.93 33.1428 115.785 32.9976C115.64 32.8524 115.468 32.7372 115.278 32.6586C115.089 32.58 114.885 32.5396 114.68 32.5396H113.832C113.616 32.5397 113.402 32.5849 113.204 32.6723C113.006 32.7597 112.829 32.8875 112.684 33.0473C113.03 33.166 113.389 33.2448 113.754 33.2821C114.118 33.2821 115.182 33.1747 115.182 33.1747C115.182 33.1747 114.866 34.0756 115.235 34.2868C115.466 34.4169 115.717 34.5068 115.978 34.5525V35.7173L116.242 35.6408Z" fill="#263238" stroke="#263238" stroke-width="0.182" stroke-linecap="round" stroke-linejoin="round"/>
<path d="M115.553 38.8149L115.712 61.7469H120.531C120.531 61.7469 120.054 50.4156 120.054 50.2573C120.054 50.0989 119.524 48.6193 119.524 48.6193L119.736 39.0861L115.553 38.8149Z" fill="white" stroke="#263238" stroke-width="0.182" stroke-linecap="round" stroke-linejoin="round"/>
<path d="M116.03 41.9399L117.142 41.3029L116.454 38.8714L115.553 38.8149L115.606 46.4953L117.089 42.839L116.03 41.9399Z" fill="white" stroke="#263238" stroke-width="0.182" stroke-linecap="round" stroke-linejoin="round"/>
<path d="M114.705 46.3877L114.865 47.922L122.278 48.7173C122.278 48.7173 122.642 48.1877 122.278 46.9701C121.914 45.7526 119.73 39.0786 119.73 39.0786V45.6452L119.996 46.1748L114.705 46.3877Z" fill="white" stroke="#263238" stroke-width="0.182" stroke-linecap="round" stroke-linejoin="round"/>
<path d="M107.664 43.2628L109.835 48.7701H114.336L112.27 43.1572L107.664 43.2628Z" fill="#263238" stroke="#263238" stroke-width="0.182" stroke-linecap="round" stroke-linejoin="round"/>
<path d="M109.178 43.2192L109.477 43.707L110.989 43.7052L110.78 43.1992L109.178 43.2192Z" fill="white" stroke="#263238" stroke-width="0.182" stroke-linecap="round" stroke-linejoin="round"/>
<path d="M114.706 46.3881L113.912 45.6983L112.218 45.6455V46.4408L113.277 46.9177L113.701 47.3399L114.813 47.6056L114.706 46.3881Z" fill="white" stroke="#263238" stroke-width="0.182" stroke-linecap="round" stroke-linejoin="round"/>
<path d="M112.018 74.454L109.442 75.6279H113.814L113.668 74.4121L112.018 74.454Z" fill="white" stroke="#263238" stroke-width="0.182" stroke-linecap="round" stroke-linejoin="round"/>
<path d="M116.684 74.454L114.11 75.6279H118.482L118.336 74.4121L116.684 74.454Z" fill="white" stroke="#263238" stroke-width="0.182" stroke-linecap="round" stroke-linejoin="round"/>
<path d="M29.0602 43.6782L31.1313 47.4747L34.977 47.968L35.1244 49.151L28.9128 49.2492L28.0737 46.7831L29.0602 43.6782Z" fill="white" stroke="#263238" stroke-width="0.182" stroke-linecap="round" stroke-linejoin="round"/>
<path d="M19.9382 62.2661L19.4941 74.2472L20.9247 74.2963L23.045 62.5136L19.9382 62.2661Z" fill="#263238" stroke="#263238" stroke-width="0.182" stroke-linecap="round" stroke-linejoin="round"/>
<path d="M23.8818 62.7099L24.6226 74.2469L26.2988 74.296L27.2361 62.3149L23.8818 62.7099Z" fill="#263238" stroke="#263238" stroke-width="0.182" stroke-linecap="round" stroke-linejoin="round"/>
<path d="M26.2991 74.2962L28.9126 75.6284H24.4736L24.6229 74.2471L26.2991 74.2962Z" fill="white" stroke="#263238" stroke-width="0.182" stroke-linecap="round" stroke-linejoin="round"/>
<path d="M21.1698 74.2962L23.7833 75.6284H19.3462L19.4936 74.2471L21.1698 74.2962Z" fill="white" stroke="#263238" stroke-width="0.182" stroke-linecap="round" stroke-linejoin="round"/>
<path d="M26.7437 61.8221L29.7503 61.7239C29.7503 61.7239 28.3198 53.0461 28.3198 51.3699C28.3198 49.6937 28.6656 45.9463 28.6656 45.9463C28.6656 45.9463 26.9402 51.2716 26.8456 53.7359C26.7509 56.2002 26.7437 61.8221 26.7437 61.8221Z" fill="white" stroke="#263238" stroke-width="0.182" stroke-linecap="round" stroke-linejoin="round"/>
<path d="M26.3902 39.5361C26.3902 39.5361 25.6513 39.6836 23.7275 41.9021C21.8038 44.1207 20.0875 48.2139 19.931 49.6936C19.7745 51.1732 18.5005 62.5118 18.5005 62.5118C18.5005 62.5118 22.1004 63.005 24.0733 63.1051C25.3423 63.1572 26.6133 63.0908 27.8698 62.9068C27.8698 62.9068 27.3839 54.6239 27.4822 53.1443C27.5805 51.6646 28.8126 47.3749 28.9618 46.0463C29.1111 44.7177 29.6025 42.4463 29.0601 41.4107C28.5178 40.3752 26.3902 39.5361 26.3902 39.5361Z" fill="white" stroke="#263238" stroke-width="0.182" stroke-linecap="round" stroke-linejoin="round"/>
<path d="M32.6908 36.6531V36.6295C32.7545 35.5538 32.7163 34.5565 32.7163 34.5565C32.7163 34.5565 33.406 34.2598 32.9128 33.4226C32.4196 32.5854 31.4332 32.3306 30.1027 32.2378C30.1027 32.2378 27.8842 32.7838 27.6858 33.7666C27.4874 34.7494 27.6366 37.9526 27.6366 37.9526L27.2417 39.4323L29.2637 40.861L29.8097 39.587C29.8097 39.587 31.3877 39.9328 32.1284 39.0937C32.3104 38.8863 32.4378 38.5059 32.5288 38.0491L32.9237 37.8944L32.6908 36.6531Z" fill="white" stroke="#263238" stroke-width="0.182" stroke-linecap="round" stroke-linejoin="round"/>
<path d="M32.2031 36.4878C32.2031 36.7007 32.1394 36.8736 32.0593 36.8736C31.9792 36.8736 31.9155 36.7007 31.9155 36.4878C31.9155 36.2748 31.9792 36.1001 32.0593 36.1001C32.1394 36.1001 32.2031 36.273 32.2031 36.4878Z" fill="#263238"/>
<path d="M31.6152 35.7667C31.7061 35.6723 31.8269 35.6124 31.957 35.5971C32.0871 35.5819 32.2184 35.6122 32.3287 35.6829" stroke="#263238" stroke-width="0.182" stroke-linecap="round" stroke-linejoin="round"/>
<path d="M30.0956 32.2378C30.0956 32.2378 27.8771 32.7838 27.6787 33.7666C27.4803 34.7494 27.6295 37.9526 27.6295 37.9526L28.3703 37.6559C28.3184 37.207 28.3688 36.7522 28.5177 36.3255C28.7634 35.6357 29.0637 36.1781 29.0637 36.1781L29.2603 36.9662L29.5078 36.917L29.5569 35.9797C29.5569 35.9797 29.9519 35.7832 30.001 35.5356C30.0501 35.2881 29.8518 34.551 29.8518 34.551C30.2583 34.6283 30.6721 34.6613 31.0857 34.6493C31.6295 34.6461 32.1726 34.6133 32.7128 34.551C32.7128 34.551 33.4026 34.2544 32.9094 33.4172C32.4161 32.58 31.4261 32.3379 30.0956 32.2378Z" fill="#263238" stroke="#263238" stroke-width="0.182" stroke-linecap="round" stroke-linejoin="round"/>
<path d="M26.792 38.7954L30.0953 41.1632L29.7986 42.3954L26.0513 39.5361L26.792 38.7954Z" fill="white" stroke="#263238" stroke-width="0.182" stroke-linecap="round" stroke-linejoin="round"/>
<path d="M34.9767 47.9679L36.1106 47.2271L36.9987 46.9814L37.097 47.178L36.3563 47.5238L37.9833 47.3254V47.5238L37.0479 47.8678L38.3291 47.6712V48.017L37.1461 48.2136L38.1817 48.361L38.0834 48.6577L37.2444 48.7068L37.7376 48.8542L37.6394 49.0508L34.7783 49.2L34.9767 47.9679Z" fill="white" stroke="#263238" stroke-width="0.182" stroke-linecap="round" stroke-linejoin="round"/>
<path d="M26.8414 41.9022C26.8414 41.9022 24.8193 42.2972 24.8193 43.8751C24.8193 45.4531 28.3192 50.4817 28.4593 50.5309C28.5995 50.58 35.0659 49.397 35.0659 49.397L34.9677 47.9683L29.6514 47.8664L27.9261 42.5411C27.9261 42.5411 27.5803 41.8604 26.8414 41.9022Z" fill="white" stroke="#263238" stroke-width="0.182" stroke-linecap="round" stroke-linejoin="round"/>
<path d="M31.2075 38.1802C31.2075 38.1802 31.8045 38.6679 32.3814 38.4241" stroke="#263238" stroke-width="0.182" stroke-linecap="round" stroke-linejoin="round"/>
</svg>
