<svg width="107" height="107" viewBox="0 0 107 107" fill="none" xmlns="http://www.w3.org/2000/svg">
<path d="M107 81.8335H0V81.887H107V81.8335Z" fill="#EBEBEB"/>
<path d="M96.2786 85.2769H89.1909V85.3304H96.2786V85.2769Z" fill="#EBEBEB"/>
<path d="M70.8811 85.8589H69.0215V85.9124H70.8811V85.8589Z" fill="#EBEBEB"/>
<path d="M88.977 83.291H84.8704V83.3445H88.977V83.291Z" fill="#EBEBEB"/>
<path d="M20.469 83.6504H11.2263V83.7039H20.469V83.6504Z" fill="#EBEBEB"/>
<path d="M23.7304 83.6504H22.3757V83.7039H23.7304V83.6504Z" fill="#EBEBEB"/>
<path d="M48.182 84.5537H28.1345V84.6072H48.182V84.5537Z" fill="#EBEBEB"/>
<path d="M50.7181 72.2892H9.3968C9.07309 72.2886 8.76284 72.1597 8.53414 71.9306C8.30545 71.7015 8.177 71.391 8.177 71.0673V12.9813C8.17982 12.6594 8.30951 12.3517 8.5379 12.1249C8.76629 11.8981 9.07494 11.7706 9.3968 11.77H50.7181C51.0421 11.77 51.3529 11.8988 51.5821 12.1279C51.8113 12.3571 51.94 12.6679 51.94 12.992V71.0673C51.94 71.3914 51.8113 71.7022 51.5821 71.9313C51.3529 72.1605 51.0421 72.2892 50.7181 72.2892ZM9.3968 11.8128C9.08728 11.8134 8.79064 11.9367 8.57197 12.1558C8.35331 12.3749 8.2305 12.6717 8.2305 12.9813V71.0673C8.2305 71.3768 8.35331 71.6737 8.57197 71.8927C8.79064 72.1118 9.08728 72.2351 9.3968 72.2357H50.7181C51.0278 72.2351 51.3246 72.1119 51.5437 71.8929C51.7627 71.6739 51.8859 71.377 51.8865 71.0673V12.9813C51.8859 12.6715 51.7627 12.3747 51.5437 12.1557C51.3246 11.9367 51.0278 11.8134 50.7181 11.8128H9.3968Z" fill="#EBEBEB"/>
<path d="M97.0082 72.2892H55.6848C55.3609 72.2886 55.0505 72.1597 54.8214 71.9307C54.5924 71.7017 54.4635 71.3912 54.4629 71.0673V12.9813C54.4663 12.6592 54.5964 12.3515 54.8252 12.1247C55.0539 11.898 55.3628 11.7706 55.6848 11.77H97.0082C97.3297 11.7711 97.6378 11.8989 97.8658 12.1256C98.0937 12.3524 98.2231 12.6598 98.2259 12.9813V71.0673C98.2259 71.3906 98.0977 71.7008 97.8695 71.9298C97.6413 72.1588 97.3316 72.2881 97.0082 72.2892ZM55.6848 11.8128C55.3751 11.8134 55.0782 11.9367 54.8592 12.1557C54.6402 12.3747 54.517 12.6715 54.5164 12.9813V71.0673C54.517 71.377 54.6402 71.6739 54.8592 71.8929C55.0782 72.1119 55.3751 72.2351 55.6848 72.2357H97.0082C97.3179 72.2351 97.6148 72.1119 97.8338 71.8929C98.0528 71.6739 98.1761 71.377 98.1767 71.0673V12.9813C98.1761 12.6715 98.0528 12.3747 97.8338 12.1557C97.6148 11.9367 97.3179 11.8134 97.0082 11.8128H55.6848Z" fill="#EBEBEB"/>
<path d="M35.2009 14.0703H19.9534V65.7962H35.2009V14.0703Z" fill="#FAFAFA"/>
<path d="M32.9303 14.0703H32.0401L26.7222 65.7962H27.6124L32.9303 14.0703Z" fill="#F5F5F5"/>
<path d="M34.9313 14.2695H19.855V14.7254H34.9313V14.2695Z" fill="#E0E0E0"/>
<path d="M34.9313 65.3428H19.855V66.3186H34.9313V65.3428Z" fill="#EBEBEB"/>
<path d="M34.6808 66.2759H20.4348V66.3187H34.6808V66.2759Z" fill="#EBEBEB"/>
<path d="M20.4349 14.2697H34.6809V66.276H35.5348V13.6299H19.5811V66.276H20.4349V14.2697Z" fill="#EBEBEB"/>
<path d="M52.1689 14.0703H36.9214V65.7962H52.1689V14.0703Z" fill="#FAFAFA"/>
<path d="M47.9381 14.0703H43.0782L37.7603 65.7962H42.6202L47.9381 14.0703Z" fill="#F5F5F5"/>
<path d="M52.3273 14.2695H36.823V14.7254H52.3273V14.2695Z" fill="#E0E0E0"/>
<path d="M52.3273 65.3428H36.823V66.3186H52.3273V65.3428Z" fill="#EBEBEB"/>
<path d="M51.6488 66.2759H37.4028V66.3187H51.6488V66.2759Z" fill="#EBEBEB"/>
<path d="M37.4029 14.2697H51.6489V66.276H52.5006V13.6299H36.5491V66.276H37.4029V14.2697Z" fill="#EBEBEB"/>
<path d="M68.707 14.0703H53.8875V65.7962H68.707V14.0703Z" fill="#FAFAFA"/>
<path d="M62.2848 14.0703H61.3946L56.0767 65.7962H56.9669L62.2848 14.0703Z" fill="#F5F5F5"/>
<path d="M68.8673 14.2695H53.791V14.7254H68.8673V14.2695Z" fill="#E0E0E0"/>
<path d="M68.8673 65.3428H53.791V66.3186H68.8673V65.3428Z" fill="#EBEBEB"/>
<path d="M68.6171 66.2759H54.3711V66.3187H68.6171V66.2759Z" fill="#EBEBEB"/>
<path d="M54.371 14.2697H68.6148V66.276H69.4686V13.6299H53.5171V66.276H54.371V14.2697Z" fill="#EBEBEB"/>
<path d="M86.103 14.0703H70.8555V65.7962H86.103V14.0703Z" fill="#FAFAFA"/>
<path d="M84.6114 14.0703H79.7514L74.4314 65.7962H79.2935L84.6114 14.0703Z" fill="#F5F5F5"/>
<path d="M85.8334 14.2695H70.7571V14.7254H85.8334V14.2695Z" fill="#E0E0E0"/>
<path d="M85.8334 65.3428H70.7571V66.3186H85.8334V65.3428Z" fill="#EBEBEB"/>
<path d="M71.3368 14.2697H85.5828V66.276H86.4367V13.6299H70.4851V66.276H71.3368V14.2697Z" fill="#EBEBEB"/>
<path d="M85.5829 66.2759H71.3369V66.3187H85.5829V66.2759Z" fill="#EBEBEB"/>
<path d="M31.5521 53.8979H24.9331V65.3448H31.5521V53.8979Z" fill="#EBEBEB"/>
<path d="M30.281 52.2974V55.1692H29.761H26.7265H26.2043V52.2974H30.281Z" fill="#EBEBEB"/>
<path d="M30.281 55.1694H31.1284V54.322H30.281V55.1694Z" fill="#FAFAFA"/>
<path d="M28.6418 55.1694H29.4893V54.322H28.6418V55.1694Z" fill="#FAFAFA"/>
<path d="M27.0005 55.1694H27.8479V54.322H27.0005V55.1694Z" fill="#FAFAFA"/>
<path d="M25.3591 55.1694H26.2065V54.322H25.3591V55.1694Z" fill="#F0F0F0"/>
<path d="M30.281 56.708H31.1284V55.8606H30.281V56.708Z" fill="#F0F0F0"/>
<path d="M28.6418 56.708H29.4893V55.8606H28.6418V56.708Z" fill="#F0F0F0"/>
<path d="M27.0005 56.708H27.8479V55.8606H27.0005V56.708Z" fill="#FAFAFA"/>
<path d="M25.3591 56.708H26.2065V55.8606H25.3591V56.708Z" fill="#FAFAFA"/>
<path d="M30.281 58.2485H31.1284V57.4011H30.281V58.2485Z" fill="#F0F0F0"/>
<path d="M28.6418 58.2485H29.4893V57.4011H28.6418V58.2485Z" fill="#FAFAFA"/>
<path d="M27.0005 58.2485H27.8479V57.4011H27.0005V58.2485Z" fill="#FAFAFA"/>
<path d="M28.6418 53.8379H29.4893V52.9904H28.6418V53.8379Z" fill="#FAFAFA"/>
<path d="M27.0005 53.8379H27.8479V52.9904H27.0005V53.8379Z" fill="#F0F0F0"/>
<path d="M25.3591 58.2485H26.2065V57.4011H25.3591V58.2485Z" fill="#F0F0F0"/>
<path d="M30.281 59.7896H31.1284V58.9421H30.281V59.7896Z" fill="#FAFAFA"/>
<path d="M28.6418 59.7896H29.4893V58.9421H28.6418V59.7896Z" fill="#F0F0F0"/>
<path d="M27.0005 59.7896H27.8479V58.9421H27.0005V59.7896Z" fill="#F0F0F0"/>
<path d="M25.3591 59.7896H26.2065V58.9421H25.3591V59.7896Z" fill="#FAFAFA"/>
<path d="M30.281 61.3301H31.1284V60.4826H30.281V61.3301Z" fill="#F0F0F0"/>
<path d="M28.6418 61.3301H29.4893V60.4826H28.6418V61.3301Z" fill="#FAFAFA"/>
<path d="M27.0005 61.3301H27.8479V60.4826H27.0005V61.3301Z" fill="#FAFAFA"/>
<path d="M25.3591 61.3301H26.2065V60.4826H25.3591V61.3301Z" fill="#F0F0F0"/>
<path d="M30.281 62.8691H31.1284V62.0217H30.281V62.8691Z" fill="#F0F0F0"/>
<path d="M28.6418 62.8691H29.4893V62.0217H28.6418V62.8691Z" fill="#FAFAFA"/>
<path d="M27.0005 62.8691H27.8479V62.0217H27.0005V62.8691Z" fill="#F0F0F0"/>
<path d="M25.3591 62.8691H26.2065V62.0217H25.3591V62.8691Z" fill="#FAFAFA"/>
<path d="M30.281 64.4097H31.1284V63.5622H30.281V64.4097Z" fill="#FAFAFA"/>
<path d="M28.6418 64.4097H29.4893V63.5622H28.6418V64.4097Z" fill="#FAFAFA"/>
<path d="M27.0005 64.4097H27.8479V63.5622H27.0005V64.4097Z" fill="#F0F0F0"/>
<path d="M25.3591 64.4097H26.2065V63.5622H25.3591V64.4097Z" fill="#F0F0F0"/>
<path d="M78.1826 58.0669H72.2527V65.3429H78.1826V58.0669Z" fill="#F0F0F0"/>
<path d="M72.7686 58.8755H74.1467H74.5276H74.9064V59.6331H74.5276H74.1467H72.7686V58.8755Z" fill="#E6E6E6"/>
<path d="M72.7686 60.3457H74.1467H74.5276H74.9064V61.1054H74.5276H74.1467H72.7686V60.3457Z" fill="#FAFAFA"/>
<path d="M72.7686 61.8159H74.1467H74.5276H74.9064V62.5756H74.5276H74.1467H72.7686V61.8159Z" fill="#E6E6E6"/>
<path d="M72.7686 63.2861H74.1467H74.7331H74.9064V64.0458H74.7331H74.1467H72.7686V63.2861Z" fill="#FAFAFA"/>
<path d="M75.5271 58.8755H76.9074H77.2862H77.665V59.6331H77.2862H76.9074H75.5271V58.8755Z" fill="#FAFAFA"/>
<path d="M75.5271 60.3457H76.9074H77.4424H77.665V61.1054H77.4424H76.9074H75.5271V60.3457Z" fill="#FAFAFA"/>
<path d="M75.5271 61.8159H76.9074H77.2862H77.665V62.5756H77.2862H76.9074H75.5271V61.8159Z" fill="#E6E6E6"/>
<path d="M75.5271 63.2861H76.9074H77.2862H77.665V64.0458H77.2862H76.9074H75.5271V63.2861Z" fill="#FAFAFA"/>
<path d="M49.6073 60.8232H44.2188V65.3451H49.6073V60.8232Z" fill="#F0F0F0"/>
<path d="M48.5739 62.0771H49.2629V61.3881H48.5739V62.0771Z" fill="#FAFAFA"/>
<path d="M47.2384 62.0771H47.9275V61.3881H47.2384V62.0771Z" fill="#FAFAFA"/>
<path d="M45.9008 62.0771H46.5898V61.3881H45.9008V62.0771Z" fill="#FAFAFA"/>
<path d="M44.5656 62.0771H45.2546V61.3881H44.5656V62.0771Z" fill="#FAFAFA"/>
<path d="M48.5739 63.3291H49.2629V62.64H48.5739V63.3291Z" fill="#FAFAFA"/>
<path d="M47.2384 63.3291H47.9275V62.64H47.2384V63.3291Z" fill="#FAFAFA"/>
<path d="M45.9008 63.3291H46.5898V62.64H45.9008V63.3291Z" fill="#FAFAFA"/>
<path d="M44.5656 63.3291H45.2546V62.64H44.5656V63.3291Z" fill="#E6E6E6"/>
<path d="M48.5739 64.583H49.2629V63.8939H48.5739V64.583Z" fill="#E6E6E6"/>
<path d="M47.2384 64.583H47.9275V63.8939H47.2384V64.583Z" fill="#E6E6E6"/>
<path d="M45.9008 64.583H46.5898V63.8939H45.9008V64.583Z" fill="#FAFAFA"/>
<path d="M44.5656 64.583H45.2546V63.8939H44.5656V64.583Z" fill="#E6E6E6"/>
<path d="M43.4891 57.4805H38.1006V65.345H43.4891V57.4805Z" fill="#F0F0F0"/>
<path d="M43.1445 57.8247H41.1179V59.7678H43.1445V57.8247Z" fill="#FAFAFA"/>
<path d="M40.4716 57.8247H38.4451V59.7678H40.4716V57.8247Z" fill="#FAFAFA"/>
<path d="M43.1445 60.3311H41.1179V62.2742H43.1445V60.3311Z" fill="#FAFAFA"/>
<path d="M40.4716 60.3311H38.4451V62.2742H40.4716V60.3311Z" fill="#FAFAFA"/>
<path d="M43.1445 62.8369H41.1179V64.78H43.1445V62.8369Z" fill="#FAFAFA"/>
<path d="M40.4716 62.8369H38.4451V64.78H40.4716V62.8369Z" fill="#FAFAFA"/>
<path d="M53.5 91.4978C76.4157 91.4978 94.9925 90.4132 94.9925 89.0753C94.9925 87.7374 76.4157 86.6528 53.5 86.6528C30.5844 86.6528 12.0076 87.7374 12.0076 89.0753C12.0076 90.4132 30.5844 91.4978 53.5 91.4978Z" fill="#F5F5F5"/>
<path d="M95.1379 17.0366V64.168L89.4669 69.839H56.6372V17.0366H95.1379Z" fill="#92E3A9"/>
<path opacity="0.8" d="M95.1379 17.0366V64.168L89.4669 69.839H56.6372V17.0366H95.1379Z" fill="white"/>
<path opacity="0.2" d="M89.467 69.839V64.335H95.138L89.5783 69.8947" fill="black"/>
<path opacity="0.1" d="M71.2064 21.6141H60.5877C60.4385 21.6141 60.2953 21.5548 60.1898 21.4493C60.0842 21.3437 60.0249 21.2006 60.0249 21.0513C60.0246 20.9772 60.039 20.9038 60.0671 20.8352C60.0953 20.7667 60.1367 20.7044 60.189 20.6519C60.2413 20.5994 60.3034 20.5578 60.3719 20.5294C60.4403 20.501 60.5136 20.4863 60.5877 20.4863H71.2064C71.3559 20.4869 71.499 20.5467 71.6045 20.6526C71.71 20.7584 71.7692 20.9018 71.7692 21.0513C71.7692 21.2006 71.7099 21.3437 71.6044 21.4493C71.4988 21.5548 71.3557 21.6141 71.2064 21.6141Z" fill="black"/>
<path opacity="0.1" d="M90.4662 26.181H64.8675C64.7934 26.181 64.7201 26.1664 64.6516 26.138C64.5832 26.1095 64.5211 26.0679 64.4688 26.0154C64.4165 25.9629 64.3751 25.9006 64.3469 25.8321C64.3188 25.7635 64.3044 25.6901 64.3047 25.616C64.3047 25.4668 64.364 25.3236 64.4695 25.2181C64.5751 25.1125 64.7182 25.0532 64.8675 25.0532H90.4662C90.6155 25.0532 90.7586 25.1125 90.8642 25.2181C90.9697 25.3236 91.029 25.4668 91.029 25.616C91.029 25.7655 90.9698 25.9089 90.8643 26.0148C90.7588 26.1207 90.6157 26.1804 90.4662 26.181Z" fill="black"/>
<path opacity="0.1" d="M90.4664 28.4002H60.5877C60.4385 28.4002 60.2953 28.3409 60.1898 28.2354C60.0842 28.1298 60.0249 27.9867 60.0249 27.8374C60.0246 27.7633 60.039 27.6899 60.0671 27.6214C60.0953 27.5528 60.1367 27.4906 60.189 27.4381C60.2413 27.3856 60.3034 27.3439 60.3719 27.3155C60.4403 27.2871 60.5136 27.2725 60.5877 27.2725H90.4664C90.6159 27.273 90.759 27.3328 90.8645 27.4387C90.97 27.5446 91.0292 27.688 91.0292 27.8374C91.0292 27.9867 90.9699 28.1298 90.8644 28.2354C90.7588 28.3409 90.6157 28.4002 90.4664 28.4002Z" fill="black"/>
<path opacity="0.1" d="M90.4664 30.9081H60.5877C60.5136 30.9081 60.4403 30.8934 60.3719 30.865C60.3034 30.8366 60.2413 30.7949 60.189 30.7425C60.1367 30.69 60.0953 30.6277 60.0671 30.5591C60.039 30.4906 60.0246 30.4172 60.0249 30.3431C60.0249 30.1938 60.0842 30.0507 60.1898 29.9451C60.2953 29.8396 60.4385 29.7803 60.5877 29.7803H90.4664C90.6157 29.7803 90.7588 29.8396 90.8644 29.9451C90.9699 30.0507 91.0292 30.1938 91.0292 30.3431C91.0292 30.4926 90.97 30.6359 90.8645 30.7418C90.759 30.8477 90.6159 30.9075 90.4664 30.9081Z" fill="black"/>
<path opacity="0.1" d="M90.4664 33.4142H60.5877C60.4385 33.4142 60.2953 33.3549 60.1898 33.2494C60.0842 33.1438 60.0249 33.0007 60.0249 32.8514C60.0249 32.7021 60.0842 32.559 60.1898 32.4534C60.2953 32.3479 60.4385 32.2886 60.5877 32.2886H90.4664C90.6157 32.2886 90.7588 32.3479 90.8644 32.4534C90.9699 32.559 91.0292 32.7021 91.0292 32.8514C91.0292 33.0007 90.9699 33.1438 90.8644 33.2494C90.7588 33.3549 90.6157 33.4142 90.4664 33.4142Z" fill="black"/>
<path opacity="0.1" d="M90.4664 35.922H60.5877C60.4385 35.922 60.2953 35.8627 60.1898 35.7572C60.0842 35.6516 60.0249 35.5085 60.0249 35.3592C60.0246 35.2852 60.039 35.2119 60.0672 35.1435C60.0954 35.0751 60.1368 35.0129 60.1891 34.9606C60.2414 34.9083 60.3036 34.8668 60.372 34.8387C60.4404 34.8105 60.5137 34.7961 60.5877 34.7964H90.4664C90.6157 34.7964 90.7588 34.8557 90.8644 34.9612C90.9699 35.0668 91.0292 35.2099 91.0292 35.3592C91.0292 35.5085 90.9699 35.6516 90.8644 35.7572C90.7588 35.8627 90.6157 35.922 90.4664 35.922Z" fill="black"/>
<path opacity="0.1" d="M90.4664 38.43H60.5877C60.4385 38.43 60.2953 38.3707 60.1898 38.2652C60.0842 38.1596 60.0249 38.0165 60.0249 37.8672C60.0246 37.7931 60.039 37.7197 60.0671 37.6512C60.0953 37.5826 60.1367 37.5203 60.189 37.4678C60.2413 37.4154 60.3034 37.3737 60.3719 37.3453C60.4403 37.3169 60.5136 37.3022 60.5877 37.3022H90.4664C90.6159 37.3028 90.759 37.3626 90.8645 37.4685C90.97 37.5744 91.0292 37.7177 91.0292 37.8672C91.0292 38.0165 90.9699 38.1596 90.8644 38.2652C90.7588 38.3707 90.6157 38.43 90.4664 38.43Z" fill="black"/>
<path opacity="0.1" d="M90.4685 39.8105H60.5877C60.2769 39.8105 60.0249 40.0625 60.0249 40.3734V40.3755C60.0249 40.6863 60.2769 40.9383 60.5877 40.9383H90.4685C90.7794 40.9383 91.0314 40.6863 91.0314 40.3755V40.3734C91.0314 40.0625 90.7794 39.8105 90.4685 39.8105Z" fill="black"/>
<path opacity="0.1" d="M90.4664 43.442H60.5877C60.4385 43.442 60.2953 43.3827 60.1898 43.2772C60.0842 43.1716 60.0249 43.0285 60.0249 42.8792C60.0249 42.73 60.0842 42.5868 60.1898 42.4813C60.2953 42.3757 60.4385 42.3164 60.5877 42.3164H90.4664C90.6157 42.3164 90.7588 42.3757 90.8644 42.4813C90.9699 42.5868 91.0292 42.73 91.0292 42.8792C91.0292 43.0285 90.9699 43.1716 90.8644 43.2772C90.7588 43.3827 90.6157 43.442 90.4664 43.442Z" fill="black"/>
<path opacity="0.1" d="M90.4664 45.9523H60.5877C60.4385 45.9523 60.2953 45.893 60.1898 45.7875C60.0842 45.6819 60.0249 45.5388 60.0249 45.3895C60.0246 45.3155 60.039 45.2422 60.0672 45.1738C60.0954 45.1054 60.1368 45.0432 60.1891 44.9909C60.2414 44.9386 60.3036 44.8971 60.372 44.8689C60.4404 44.8407 60.5137 44.8264 60.5877 44.8267H90.4664C90.6157 44.8267 90.7588 44.886 90.8644 44.9915C90.9699 45.0971 91.0292 45.2402 91.0292 45.3895C91.0292 45.5388 90.9699 45.6819 90.8644 45.7875C90.7588 45.893 90.6157 45.9523 90.4664 45.9523Z" fill="black"/>
<path opacity="0.1" d="M90.4664 48.4603H60.5877C60.4385 48.4603 60.2953 48.401 60.1898 48.2955C60.0842 48.1899 60.0249 48.0468 60.0249 47.8975C60.0246 47.8234 60.039 47.75 60.0671 47.6814C60.0953 47.6129 60.1367 47.5506 60.189 47.4981C60.2413 47.4456 60.3034 47.404 60.3719 47.3756C60.4403 47.3471 60.5136 47.3325 60.5877 47.3325H90.4664C90.6159 47.3331 90.759 47.3929 90.8645 47.4988C90.97 47.6046 91.0292 47.748 91.0292 47.8975C91.0292 48.0468 90.9699 48.1899 90.8644 48.2955C90.7588 48.401 90.6157 48.4603 90.4664 48.4603Z" fill="black"/>
<path opacity="0.1" d="M90.4664 50.9686H60.5877C60.5136 50.9686 60.4403 50.954 60.3719 50.9256C60.3034 50.8971 60.2413 50.8555 60.189 50.803C60.1367 50.7505 60.0953 50.6882 60.0671 50.6197C60.039 50.5512 60.0246 50.4777 60.0249 50.4036C60.0249 50.2544 60.0842 50.1112 60.1898 50.0057C60.2953 49.9001 60.4385 49.8408 60.5877 49.8408H90.4664C90.6157 49.8408 90.7588 49.9001 90.8644 50.0057C90.9699 50.1112 91.0292 50.2544 91.0292 50.4036C91.0292 50.5531 90.97 50.6965 90.8645 50.8024C90.759 50.9083 90.6159 50.968 90.4664 50.9686Z" fill="black"/>
<path opacity="0.1" d="M73.3464 53.4743H60.5877C60.4385 53.4743 60.2953 53.415 60.1898 53.3094C60.0842 53.2039 60.0249 53.0607 60.0249 52.9115C60.0249 52.7622 60.0842 52.619 60.1898 52.5135C60.2953 52.4079 60.4385 52.3486 60.5877 52.3486H73.3464C73.4957 52.3486 73.6388 52.4079 73.7444 52.5135C73.8499 52.619 73.9092 52.7622 73.9092 52.9115C73.9092 53.0607 73.8499 53.2039 73.7444 53.3094C73.6388 53.415 73.4957 53.4743 73.3464 53.4743Z" fill="black"/>
<path d="M88.1681 28.5861L88.1274 28.5518C88.0118 28.4641 87.9455 28.4941 87.892 28.325C87.8535 28.203 87.892 28.0661 87.8471 27.9398C87.7451 27.7225 87.6286 27.5123 87.4982 27.3106L86.9718 26.3626C86.8543 26.1527 86.6583 25.9979 86.4269 25.9321C86.1955 25.8663 85.9474 25.8949 85.737 26.0117L80.8899 28.7123C80.8707 28.875 80.7358 28.9863 80.708 29.1403C80.6985 29.1859 80.7009 29.2331 80.7152 29.2774C80.7294 29.3217 80.755 29.3615 80.7893 29.3929C80.7349 29.3918 80.6823 29.373 80.6395 29.3394C80.3506 29.1789 80.2736 29.0505 79.9761 29.2131C79.8477 29.2816 79.7215 29.3543 79.5952 29.4271L78.3112 30.144L74.288 32.3846L69.58 35.0125L65.6574 37.1974C65.1224 37.4949 64.474 37.756 63.9968 38.1348C64.1294 38.2032 64.153 38.3081 64.0353 38.4108L63.8213 38.6055C63.8213 38.659 63.8983 38.6591 63.9475 38.6377L64.2129 38.5242C64.0285 38.7583 63.8065 38.9601 63.5559 39.1213C63.1351 39.3656 62.683 39.5513 62.212 39.6734L62.4388 39.3888C62.456 39.3653 62.4774 39.3353 62.4624 39.3075C62.4474 39.2796 62.4196 39.2775 62.3939 39.2754C62.2805 39.2625 62.1671 39.2754 62.0836 39.1919C61.3517 39.6199 60.5856 40.0265 59.8409 40.4417C59.631 40.5592 59.4762 40.7552 59.4104 40.9866C59.3446 41.218 59.3732 41.4661 59.4899 41.6765L64.3777 50.4505C64.4355 50.5545 64.5132 50.6462 64.6065 50.7202C64.6998 50.7942 64.8067 50.849 64.9212 50.8816C65.0357 50.9142 65.1555 50.9239 65.2738 50.9102C65.392 50.8964 65.5064 50.8594 65.6103 50.8014L66.8965 50.076C66.8965 49.924 67.0163 49.755 66.9264 49.6159C66.9137 49.599 66.9056 49.579 66.9029 49.5581C66.9029 49.5303 66.9286 49.5089 66.9521 49.4939C67.0839 49.4102 67.2349 49.3615 67.3908 49.3526C67.4443 49.3526 67.5149 49.3762 67.5064 49.4275C67.5064 49.3805 67.7824 49.282 67.8274 49.267C67.8488 49.3826 67.7696 49.5067 67.9044 49.5303C68.0392 49.5538 68.2447 49.3163 68.3324 49.2735L69.6164 48.5566L73.6824 46.2946L78.1422 43.81L81.1061 42.158C81.2131 42.0959 81.3393 42.0231 81.442 41.9718C81.4792 41.7755 81.5747 41.595 81.716 41.4539C81.93 41.3062 82.2681 41.4689 82.4457 41.2592C82.4799 41.2185 82.5013 41.1693 82.5313 41.1265C82.5911 41.0569 82.6638 40.9995 82.7453 40.9574C82.797 40.9168 82.8595 40.8922 82.9251 40.8868C82.9893 40.8868 83.0577 40.9403 83.0492 41.0045C83.49 40.9018 83.8881 40.6043 84.2775 40.3839C84.4188 40.3047 85.6578 39.7226 85.6536 39.6306C85.6364 39.346 85.8098 39.102 85.8012 38.8089C85.8012 38.7532 85.6921 38.3809 85.7413 38.353C84.6285 39.0164 83.4729 39.6199 82.3387 40.2491C82.3002 40.2726 82.1547 40.3218 82.1247 40.3646C82.1247 40.3646 82.114 40.3839 82.1097 40.3946L82.0776 40.4652V40.4823C82.0316 40.628 81.9773 40.7709 81.915 40.9103C81.915 40.9296 81.6732 41.2292 81.6539 41.1586C81.5597 40.814 81.4399 40.7605 81.1767 40.9018L80.8 41.1158L79.6038 41.7813L75.5742 44.0283L70.8255 46.6734L66.8686 48.8776L65.2101 49.7999C64.8792 49.2007 64.546 48.6022 64.2108 48.0044L63.5688 46.851C63.5038 46.6911 63.4078 46.5456 63.2863 46.423C63.1943 46.3545 63.038 46.3716 62.9567 46.3096C62.7577 46.1576 62.6143 45.8816 62.426 45.7039C62.2976 45.5841 62.1029 45.2246 62.1564 45.0256C62.2206 45.0512 62.2848 45.0791 62.349 45.0983C62.3154 44.9665 62.3229 44.8277 62.3704 44.7003C61.7284 43.6196 61.1377 42.4897 60.5235 41.3854L60.4829 41.3148L61.9809 40.4802L63.0744 39.8703C63.2993 39.7736 63.5143 39.6554 63.7164 39.5172C63.8555 39.3974 63.9968 39.2476 64.1444 39.1192C64.2435 39.0438 64.3513 38.9806 64.4654 38.9308L64.8699 38.734C64.8907 38.7215 64.9142 38.7141 64.9384 38.7126C64.9625 38.7152 64.9863 38.7209 65.009 38.7297C65.223 38.7746 65.7537 38.3787 65.9463 38.2717L67.1918 37.5784L70.9496 35.4833L75.632 32.8768L80.3185 30.2638L84.0892 28.1645L86.0152 27.0945L86.1051 27.0453L88.1873 30.7839C88.3162 31.0359 88.5224 31.2399 88.7758 31.3659C88.8614 31.3938 88.9577 31.4537 88.947 31.5414C88.9363 31.6292 88.8079 31.7019 88.8379 31.7918C88.8678 31.8817 89.0326 31.8474 89.0711 31.9288C89.1097 32.0101 89.0048 32.1428 89.0176 32.254C89.0619 32.3873 89.1277 32.5123 89.2124 32.6243L89.818 33.7135C90.1561 34.317 90.4921 34.9226 90.8324 35.5325L87.1302 37.5955C87.1485 37.6102 87.1637 37.6284 87.1751 37.649L87.1944 37.6982C87.2679 37.7242 87.3395 37.7557 87.4084 37.7924C87.4379 37.8088 87.4623 37.8331 87.4789 37.8626C87.4955 37.892 87.5037 37.9255 87.5025 37.9593C87.502 37.9927 87.4926 38.0253 87.4753 38.0539C87.458 38.0825 87.4334 38.106 87.4041 38.1219L87.1772 38.2503C87.1692 38.2999 87.1463 38.3459 87.1115 38.3822C87.0767 38.4185 87.0317 38.4434 86.9825 38.4536C86.9562 38.4558 86.9297 38.4558 86.9033 38.4536C86.8808 38.4701 86.855 38.4815 86.8277 38.4871C86.8003 38.4926 86.7721 38.4921 86.745 38.4857C86.6965 38.4708 86.6557 38.4378 86.631 38.3935C86.6063 38.3493 86.5996 38.2972 86.6123 38.2482C86.6211 38.2262 86.6326 38.2053 86.6465 38.1861C86.6303 38.1549 86.6229 38.1199 86.6252 38.0848C86.6274 38.0497 86.6393 38.0159 86.6594 37.9871H86.5909C86.5524 37.9871 86.5181 37.9657 86.4817 37.955C86.2893 38.0739 86.1394 38.2507 86.0537 38.46C86.0444 38.4715 86.0398 38.486 86.0409 38.5007C86.0409 38.5307 86.088 38.5328 86.1158 38.5456C86.18 38.5756 86.165 38.6698 86.1329 38.7318C86.1008 38.7939 86.0623 38.8731 86.1051 38.9287C86.1213 38.9474 86.1392 38.9646 86.1586 38.9801C86.2506 39.0849 86.1094 39.3888 86.3341 39.2647C86.3183 39.1986 86.3282 39.129 86.3619 39.0699C86.3999 39.0104 86.4586 38.9669 86.5267 38.948C86.693 38.9076 86.8629 38.8832 87.0339 38.8752L91.4958 36.38C91.7057 36.2624 91.8605 36.0665 91.9263 35.835C91.992 35.6036 91.9634 35.3556 91.8467 35.1452L91.821 35.1002L89.8052 31.4815L88.641 29.3886C88.5276 29.1896 88.427 28.982 88.3029 28.7851C88.2688 28.712 88.2233 28.6449 88.1681 28.5861Z" fill="#92E3A9"/>
<path d="M67.5512 40.4095C67.4036 40.2298 67.4485 40.2255 67.4207 40.0329C67.4207 40.0329 67.4207 40.0329 67.4207 40.0201L67.4036 40.0008L67.3779 39.9708C67.2773 40.0158 67.1767 40.065 67.0762 40.1206L65.1052 41.2185L65.8992 42.6416C65.7879 42.4447 66.1816 42.5025 66.1966 42.5003C66.2384 42.488 66.2815 42.4808 66.325 42.4789C66.3678 42.488 66.4054 42.5133 66.4299 42.5495C66.5122 42.6935 66.5367 42.8633 66.4984 43.0246C66.4748 43.2386 66.5882 43.4526 66.4663 43.6666C66.5711 43.8378 67.5191 45.5627 67.5234 45.5605L69.4944 44.4627C69.6078 44.3985 69.8774 44.2851 69.9438 44.1717C70.0101 44.0582 69.9052 43.8806 70.0229 43.8271C70.0673 43.8109 70.1147 43.8047 70.1617 43.8092C70.2088 43.8136 70.2542 43.8285 70.2947 43.8528C70.6701 43.4811 70.9114 42.9953 70.9807 42.4716C71.0501 41.9479 70.9435 41.4161 70.6778 40.9595C70.1235 39.9644 68.8652 39.3716 67.7631 39.8339C67.6861 39.866 67.7888 40.2105 67.6047 40.249C67.6399 40.18 67.6904 40.12 67.7524 40.0736M68.9808 43.6559L68.0627 44.1674C67.9878 44.0326 67.915 43.8977 67.838 43.7672C67.9343 43.9298 67.6689 43.8785 67.6133 43.8421C67.4785 43.7522 67.4421 43.4933 67.4378 43.3478C67.4346 43.0982 67.3604 42.8547 67.2238 42.6458C67.0084 42.2564 66.7944 41.8669 66.5818 41.4774L67.4999 40.9659C68.3559 40.4866 69.2119 40.6856 69.6741 41.5159C70.1364 42.3462 69.8432 43.183 68.9808 43.6559Z" fill="#92E3A9"/>
<path d="M74.0675 36.7652C74.1143 36.8669 74.1278 36.9807 74.106 37.0905C74.0953 37.1504 73.999 37.3045 74.0118 37.343C74.0461 37.4286 74.0803 37.5142 74.1124 37.5998C74.1182 37.6138 74.1261 37.6268 74.136 37.6384C74.1524 37.6494 74.1718 37.6554 74.1916 37.6555C74.5319 37.6854 74.5169 37.7197 74.5383 38.0064C74.5575 38.2525 74.7694 38.3938 74.8892 38.6078C75.0502 38.889 75.1201 39.2131 75.0894 39.5356C75.0587 39.8581 74.9289 40.1632 74.7179 40.409C74.5068 40.6548 74.2248 40.8292 73.9106 40.9082C73.5964 40.9873 73.2655 40.9671 72.9632 40.8505C72.9552 40.8583 72.9466 40.8654 72.9376 40.8719C72.8926 40.8946 72.841 40.9006 72.792 40.889C72.6808 40.8575 72.5801 40.7965 72.5006 40.7125C72.4211 40.6285 72.3658 40.5246 72.3405 40.4118C72.3373 40.3948 72.3373 40.3774 72.3405 40.3604C72.2799 40.2855 72.2262 40.2053 72.18 40.1208C72.07 39.9439 71.9977 39.7463 71.9677 39.5403C71.9376 39.3342 71.9504 39.1242 72.0052 38.9233C72.0601 38.7224 72.1558 38.535 72.2864 38.3728C72.417 38.2107 72.5796 38.0772 72.7642 37.9808C73.0318 37.8281 73.3386 37.7581 73.6459 37.7796L73.6288 37.7539C73.4447 37.51 74.1081 37.4115 73.8085 37.2467C73.6823 37.1783 73.7037 36.868 73.6716 36.7417C73.1854 36.7527 72.7096 36.8843 72.287 37.1248C70.9174 37.8887 70.4445 39.4017 71.1635 40.6921C71.466 41.2473 71.9664 41.6683 72.5652 41.8713C72.706 41.9326 72.8569 41.9674 73.0103 41.974C73.1858 41.959 73.1002 41.974 73.1751 41.8691C73.25 41.7643 73.205 41.7193 73.3185 41.6081C73.4319 41.4968 73.5646 41.4304 73.5881 41.2592C73.5881 41.3363 73.6737 41.3919 73.6737 41.4732C73.6737 41.4968 73.6737 41.5203 73.6737 41.5417C73.6783 41.5697 73.6909 41.5957 73.7101 41.6166C73.7829 41.7151 73.9048 41.8306 73.907 41.944C74.2201 41.8921 74.5206 41.7818 74.7929 41.6188C76.1561 40.8591 76.6398 39.3482 75.9164 38.0535C75.5419 37.3923 74.8379 36.808 74.0675 36.7652Z" fill="#92E3A9"/>
<path d="M78.4437 33.7863L79.9118 36.4206L76.2866 34.9868L75.4563 35.4512C76.017 36.457 76.6119 37.4521 77.1383 38.4771C77.1747 38.3659 77.2603 38.3445 77.363 38.3295C77.5556 38.3038 77.5492 38.4001 77.6541 38.5906C77.6669 38.6141 77.6819 38.6376 77.7054 38.6419C77.729 38.6462 77.7761 38.6077 77.8146 38.612C77.8531 38.6162 77.8681 38.6633 77.8574 38.6997C77.8438 38.7353 77.8259 38.7691 77.8039 38.8003C77.7418 38.918 77.8445 38.9929 77.8317 39.0999C77.8317 39.1555 77.6455 39.3824 77.6669 39.4209L77.8809 39.789L78.8739 39.2368L78.6085 38.7618H78.5593C78.2704 38.8003 78.3988 38.4215 78.3346 38.2653C78.2307 38.044 78.1127 37.8296 77.9815 37.6233L77.3973 36.5939L80.3441 37.7538C80.3364 37.6692 80.3466 37.5839 80.374 37.5034C80.3976 37.4585 80.588 37.375 80.588 37.3322C80.599 37.4703 80.6635 37.5985 80.7678 37.6896C80.8812 37.7902 80.8812 37.7752 80.8598 37.9528L81.0353 38.0235L81.8613 37.5634L79.4431 33.2256L78.4437 33.7863Z" fill="#92E3A9"/>
<path d="M83.4322 35.6373L82.8715 34.6336L84.8874 33.5101L84.4594 32.729L82.4457 33.8525L81.9214 32.9088L83.2824 32.1512C83.3399 32.0771 83.4129 32.0165 83.4964 31.9736C83.5386 31.9519 83.5874 31.9466 83.6334 31.9586L84.209 31.6398C84.209 31.6398 83.8003 30.91 83.7618 30.833C83.5649 30.9229 83.7618 31.1711 83.5627 31.291C83.6034 31.3338 83.6633 31.4857 83.5627 31.505C83.505 31.505 83.4621 31.4322 83.4044 31.4386C83.3466 31.445 83.3445 31.4729 83.3145 31.4643C83.3054 31.4617 83.297 31.4571 83.29 31.4508C83.2829 31.4445 83.2774 31.4367 83.2738 31.4279C83.2461 31.3634 83.2109 31.3023 83.169 31.246C83.0342 31.1155 81.8037 31.9351 81.6325 32.0314L80.4875 32.6734L82.9036 37.0112L83.8688 36.474L83.888 36.4484C83.9586 36.3585 84.0271 36.2665 84.102 36.183C84.1324 36.1541 84.1713 36.1358 84.213 36.1308C84.2546 36.1257 84.2967 36.1343 84.3331 36.1552C84.3504 36.1642 84.3657 36.1766 84.3781 36.1916L86.2634 35.1408L85.814 34.334L83.4322 35.6373Z" fill="#92E3A9"/>
<path d="M86.0067 81.7928C86.0067 81.7928 84.5986 78.7241 86.2057 75.696C87.8129 72.6679 88.2815 71.9553 87.2565 71.3368C86.2314 70.7183 85.7585 73.7571 85.7585 73.7571C85.7585 73.7571 84.9025 71.6642 85.6065 69.4771C86.3106 67.2901 86.7686 63.7205 85.7949 63.3375C84.8212 62.9544 85.6087 67.7865 84.7634 69.4343C84.3324 68.2777 84.054 67.0699 83.9352 65.8413C83.8196 64.0822 84.0015 61.2745 83.2311 60.5533C82.4607 59.8322 81.9707 60.3393 82.7261 64.2127C83.1802 66.5327 83.4315 68.8877 83.4772 71.2512C83.4772 71.2512 81.8059 66.158 80.6952 66.0103C79.5846 65.8627 79.576 67.5083 80.5369 68.94C81.4977 70.3717 83.3381 72.9311 83.6399 74.2579C83.6399 74.2579 81.808 70.4273 80.1581 71.6C78.5082 72.7727 81.594 75.0904 82.9679 75.9271C84.3418 76.7638 85.2984 82.0047 85.2984 82.0047L86.0067 81.7928Z" fill="#92E3A9"/>
<path opacity="0.2" d="M86.0067 81.7928C86.0067 81.7928 84.5986 78.7241 86.2057 75.696C87.8129 72.6679 88.2815 71.9553 87.2565 71.3368C86.2314 70.7183 85.7585 73.7571 85.7585 73.7571C85.7585 73.7571 84.9025 71.6642 85.6065 69.4771C86.3106 67.2901 86.7686 63.7205 85.7949 63.3375C84.8212 62.9544 85.6087 67.7865 84.7634 69.4343C84.3324 68.2777 84.054 67.0699 83.9352 65.8413C83.8196 64.0822 84.0015 61.2745 83.2311 60.5533C82.4607 59.8322 81.9707 60.3393 82.7261 64.2127C83.1802 66.5327 83.4315 68.8877 83.4772 71.2512C83.4772 71.2512 81.8059 66.158 80.6952 66.0103C79.5846 65.8627 79.576 67.5083 80.5369 68.94C81.4977 70.3717 83.3381 72.9311 83.6399 74.2579C83.6399 74.2579 81.808 70.4273 80.1581 71.6C78.5082 72.7727 81.594 75.0904 82.9679 75.9271C84.3418 76.7638 85.2984 82.0047 85.2984 82.0047L86.0067 81.7928Z" fill="black"/>
<path d="M84.8938 83.0533C84.8938 83.0533 86.2655 79.961 84.622 76.9585C82.9785 73.9561 82.5013 73.2499 83.5199 72.6143C84.5385 71.9788 85.0436 75.0133 85.0436 75.0133C85.0436 75.0133 85.8824 72.9097 85.1441 70.7333C84.4058 68.5569 83.9136 64.9938 84.8831 64.5979C85.8525 64.202 85.1228 69.0448 85.9873 70.6776C86.4048 69.5158 86.6681 68.3042 86.7706 67.0739C86.8669 65.3127 86.6507 62.5071 87.4126 61.7752C88.1744 61.0434 88.673 61.5356 87.9625 65.4282C87.5366 67.7535 87.314 70.1114 87.297 72.4752C87.297 72.4752 88.9063 67.3585 90.0255 67.1937C91.1447 67.0289 91.1618 68.6767 90.2202 70.1212C89.2786 71.5657 87.4596 74.1551 87.1707 75.4712C87.1707 75.4712 88.9576 71.6192 90.6204 72.7641C92.2832 73.909 89.2273 76.2737 87.8641 77.1297C86.5009 77.9857 85.6 83.2459 85.6 83.2459L84.8938 83.0533Z" fill="#92E3A9"/>
<path d="M91.2154 80.8491H79.8948L80.8107 88.9512H90.2995L91.2154 80.8491Z" fill="#263238"/>
<path d="M33.3047 29.9067H25.834C25.5462 29.9067 25.2703 30.021 25.0668 30.2245C24.8633 30.428 24.749 30.704 24.749 30.9917V38.2549C24.749 38.5426 24.8633 38.8186 25.0668 39.0221C25.2703 39.2255 25.5462 39.3399 25.834 39.3399H28.2244L26.6151 41.5269L29.3971 39.3399H33.3026C33.5904 39.3399 33.8663 39.2255 34.0698 39.0221C34.2733 38.8186 34.3876 38.5426 34.3876 38.2549V30.9917C34.3876 30.7043 34.2736 30.4287 34.0706 30.2253C33.8675 30.0219 33.5921 29.9073 33.3047 29.9067Z" fill="#92E3A9"/>
<path opacity="0.6" d="M33.3047 29.9067H25.834C25.5462 29.9067 25.2703 30.021 25.0668 30.2245C24.8633 30.428 24.749 30.704 24.749 30.9917V38.2549C24.749 38.5426 24.8633 38.8186 25.0668 39.0221C25.2703 39.2255 25.5462 39.3399 25.834 39.3399H28.2244L26.6151 41.5269L29.3971 39.3399H33.3026C33.5904 39.3399 33.8663 39.2255 34.0698 39.0221C34.2733 38.8186 34.3876 38.5426 34.3876 38.2549V30.9917C34.3876 30.7043 34.2736 30.4287 34.0706 30.2253C33.8675 30.0219 33.5921 29.9073 33.3047 29.9067Z" fill="white"/>
<path d="M29.5706 38.0152C31.4439 38.0152 32.9625 36.4966 32.9625 34.6233C32.9625 32.75 31.4439 31.2314 29.5706 31.2314C27.6973 31.2314 26.1787 32.75 26.1787 34.6233C26.1787 36.4966 27.6973 38.0152 29.5706 38.0152Z" fill="#92E3A9"/>
<path opacity="0.2" d="M32.3998 35.2893C32.7688 33.7261 31.8006 32.1597 30.2374 31.7908C28.6742 31.4218 27.1078 32.39 26.7389 33.9532C26.3699 35.5164 27.3381 37.0828 28.9013 37.4517C30.4645 37.8207 32.0309 36.8526 32.3998 35.2893Z" fill="black"/>
<path d="M29.2088 36.0122C29.1694 36.0131 29.1302 36.0061 29.0935 35.9918C29.0567 35.9775 29.0232 35.9561 28.9948 35.9288L27.76 34.7197C27.7032 34.6646 27.6707 34.5893 27.6695 34.5102C27.6683 34.4311 27.6985 34.3548 27.7536 34.2981C27.8086 34.2413 27.884 34.2088 27.963 34.2076C28.0421 34.2064 28.1184 34.2366 28.1752 34.2917L29.1874 35.2825L30.9379 33.3287C30.9916 33.2746 31.064 33.2431 31.1401 33.2409C31.2163 33.2386 31.2904 33.2656 31.3473 33.3164C31.4041 33.3672 31.4393 33.4378 31.4455 33.5138C31.4518 33.5897 31.4286 33.6652 31.3809 33.7246L29.4228 35.9095C29.3958 35.9397 29.3628 35.9641 29.326 35.981C29.2892 35.9979 29.2493 36.0071 29.2088 36.0079V36.0122Z" fill="white"/>
<path d="M19.8807 84.0845L26.046 83.4768V76.5239H28.4899V83.4746L34.6809 84.0845C34.9776 84.1133 35.2529 84.2515 35.4531 84.4723C35.6533 84.6931 35.7641 84.9806 35.7638 85.2787V86.2053H18.7979V85.2787C18.7975 84.9806 18.9083 84.6931 19.1085 84.4723C19.3087 84.2515 19.584 84.1133 19.8807 84.0845Z" fill="#263238"/>
<path opacity="0.1" d="M19.8807 84.0845L26.046 83.4768V76.5239H28.4899V83.4746L34.6809 84.0845C34.9776 84.1133 35.2529 84.2515 35.4531 84.4723C35.6533 84.6931 35.7641 84.9806 35.7638 85.2787V86.2053H18.7979V85.2787C18.7975 84.9806 18.9083 84.6931 19.1085 84.4723C19.3087 84.2515 19.584 84.1133 19.8807 84.0845Z" fill="white"/>
<path d="M35.111 88.9511C35.9939 88.9511 36.7096 88.2354 36.7096 87.3525C36.7096 86.4696 35.9939 85.7539 35.111 85.7539C34.2282 85.7539 33.5125 86.4696 33.5125 87.3525C33.5125 88.2354 34.2282 88.9511 35.111 88.9511Z" fill="#263238"/>
<path d="M19.4504 88.9511C20.3333 88.9511 21.049 88.2354 21.049 87.3525C21.049 86.4696 20.3333 85.7539 19.4504 85.7539C18.5675 85.7539 17.8518 86.4696 17.8518 87.3525C17.8518 88.2354 18.5675 88.9511 19.4504 88.9511Z" fill="#263238"/>
<path d="M28.0256 78.3857H26.5019C26.2675 78.3857 26.0427 78.2926 25.877 78.1269C25.7112 77.9611 25.6181 77.7363 25.6181 77.5019V70.6668H28.9094V77.5019C28.9094 77.7363 28.8163 77.9611 28.6506 78.1269C28.4848 78.2926 28.26 78.3857 28.0256 78.3857Z" fill="#263238"/>
<path opacity="0.2" d="M28.0256 78.3857H26.5019C26.2675 78.3857 26.0427 78.2926 25.877 78.1269C25.7112 77.9611 25.6181 77.7363 25.6181 77.5019V70.6668H28.9094V77.5019C28.9094 77.7363 28.8163 77.9611 28.6506 78.1269C28.4848 78.2926 28.26 78.3857 28.0256 78.3857Z" fill="white"/>
<path d="M18.7335 57.2705C18.7335 57.2705 20.5653 68.6938 24.1819 70.6691H20.5054C20.5054 70.6691 16.8674 66.7742 15.7717 57.2705H18.7335Z" fill="#263238"/>
<path opacity="0.1" d="M18.7335 57.2705C18.7335 57.2705 20.5653 68.6938 24.1819 70.6691H20.5054C20.5054 70.6691 16.8674 66.7742 15.7717 57.2705H18.7335Z" fill="white"/>
<path d="M20.33 69.0532H34.6509C34.9347 69.0532 35.2068 69.166 35.4075 69.3666C35.6082 69.5673 35.7209 69.8394 35.7209 70.1232V71.5549H19.26V70.1232C19.26 69.8394 19.3727 69.5673 19.5734 69.3666C19.7741 69.166 20.0462 69.0532 20.33 69.0532Z" fill="#92E3A9"/>
<path d="M35.9691 70.3032H18.9968C18.7592 70.3032 18.5667 70.4958 18.5667 70.7334V71.1228C18.5667 71.3604 18.7592 71.553 18.9968 71.553H35.9691C36.2067 71.553 36.3993 71.3604 36.3993 71.1228V70.7334C36.3993 70.4958 36.2067 70.3032 35.9691 70.3032Z" fill="#263238"/>
<path opacity="0.6" d="M35.9691 70.3032H18.9968C18.7592 70.3032 18.5667 70.4958 18.5667 70.7334V71.1228C18.5667 71.3604 18.7592 71.553 18.9968 71.553H35.9691C36.2067 71.553 36.3993 71.3604 36.3993 71.1228V70.7334C36.3993 70.4958 36.2067 70.3032 35.9691 70.3032Z" fill="white"/>
<path d="M15.3374 59.5944H21.2203C22.9451 59.5944 24.0644 58.212 23.722 56.5064L23.264 54.2294C22.9216 52.5174 21.246 51.1436 19.5233 51.1436H13.6404C11.9156 51.1436 10.7964 52.526 11.1388 54.2294L11.5967 56.5064C11.9391 58.2077 13.6126 59.5944 15.3374 59.5944Z" fill="#92E3A9"/>
<path d="M46.5535 78.7284L45.2054 79.2569L44.2359 77.4294L43.3542 75.7666L44.848 74.8721L45.751 76.9115L46.5535 78.7284Z" fill="#E4897B"/>
<path opacity="0.2" d="M45.751 76.9115L44.2359 77.4294L43.3542 75.7666L44.848 74.8721L45.751 76.9115Z" fill="black"/>
<path d="M45.4707 75.9144L43.6368 76.8988C43.6368 76.8988 36.7053 64.7115 35.6396 64.8142C34.5739 64.9169 24.4624 71.3583 21.3786 68.9786C18.2949 66.599 21.2952 59.4342 21.2952 59.4342C21.2952 59.4342 27.6745 57.611 28.3572 59.0062C28.5371 59.424 28.69 59.8529 28.8151 60.2902C28.9499 60.7289 29.0527 61.0992 29.0527 61.0992C29.2474 61.02 35.5476 58.437 38.3595 59.8152C41.2293 61.2318 45.4707 75.9144 45.4707 75.9144Z" fill="#263238"/>
<path opacity="0.3" d="M45.4707 75.9144L43.6368 76.8988C43.6368 76.8988 36.7053 64.7115 35.6396 64.8142C34.5739 64.9169 24.4624 71.3583 21.3786 68.9786C18.2949 66.599 21.2952 59.4342 21.2952 59.4342C21.2952 59.4342 27.6745 57.611 28.3572 59.0062C28.5371 59.424 28.69 59.8529 28.8151 60.2902C28.9499 60.7289 29.0527 61.0992 29.0527 61.0992C29.2474 61.02 35.5476 58.437 38.3595 59.8152C41.2293 61.2318 45.4707 75.9144 45.4707 75.9144Z" fill="white"/>
<path d="M35.5069 85.8524L34.0688 85.6877L34.0602 83.6589L34.0581 81.7971L35.7979 81.7158L35.6438 83.905L35.5069 85.8524Z" fill="#E4897B"/>
<path opacity="0.2" d="M35.6395 83.9497L34.0559 83.6972V81.8161L35.7957 81.7241L35.6395 83.9497Z" fill="black"/>
<path d="M42.7402 76.2931L45.4238 74.9492L45.7041 76.0877L43.6711 77.1363L42.7402 76.2931Z" fill="#92E3A9"/>
<path d="M26.1423 68.9978C26.1423 68.9978 26.5832 68.9486 33.3648 67.6924C33.3648 67.6924 33.5189 76.3636 33.8399 82.8286L35.9286 82.8949C35.9286 82.8949 38.9246 68.5569 38.5715 66.3827C38.2184 64.2085 35.6418 63.9238 35.6418 63.9238C35.6418 63.9238 31.1671 67.4099 26.1423 68.9978Z" fill="#263238"/>
<path opacity="0.4" d="M26.1423 68.9978C26.1423 68.9978 26.5832 68.9486 33.3648 67.6924C33.3648 67.6924 33.5189 76.3636 33.8399 82.8286L35.9286 82.8949C35.9286 82.8949 38.9246 68.5569 38.5715 66.3827C38.2184 64.2085 35.6418 63.9238 35.6418 63.9238C35.6418 63.9238 31.1671 67.4099 26.1423 68.9978Z" fill="white"/>
<path opacity="0.3" d="M26.1423 68.9978C26.1423 68.9978 26.5832 68.9486 33.3648 67.6924C33.3648 67.6924 33.5189 76.3636 33.8399 82.8286L35.9286 82.8949C35.9286 82.8949 38.9246 68.5569 38.5715 66.3827C38.2184 64.2085 35.6418 63.9238 35.6418 63.9238C35.6418 63.9238 31.1671 67.4099 26.1423 68.9978Z" fill="black"/>
<path d="M33.4568 82.2509L36.3051 82.1846L35.9156 83.3573L33.6044 83.3787L33.4568 82.2509Z" fill="#92E3A9"/>
<path opacity="0.3" d="M29.0613 61.1034L25.3655 62.4195C25.3655 62.4195 27.3086 60.9685 28.8237 60.2944C28.9585 60.7331 29.0613 61.1034 29.0613 61.1034Z" fill="black"/>
<path d="M20.8672 58.9933L21.0041 60.0183L27.9313 58.5482L27.7708 57.3369L20.8672 58.9933Z" fill="#263238"/>
<path opacity="0.2" d="M20.8672 58.9933L21.0041 60.0183L27.9313 58.5482L27.7708 57.3369L20.8672 58.9933Z" fill="black"/>
<path d="M23.1625 58.2485L22.8174 58.3125L23.1433 60.0694L23.4884 60.0054L23.1625 58.2485Z" fill="#263238"/>
<path d="M26.1831 57.8039L24.6716 58.1445L24.9299 59.2907L26.4414 58.95L26.1831 57.8039Z" fill="white"/>
<path d="M27.155 57.0882L26.811 57.1514L27.1327 58.9025L27.4766 58.8394L27.155 57.0882Z" fill="#263238"/>
<path opacity="0.3" d="M23.1625 58.2485L22.8174 58.3125L23.1433 60.0694L23.4884 60.0054L23.1625 58.2485Z" fill="white"/>
<path opacity="0.3" d="M27.155 57.0882L26.811 57.1514L27.1327 58.9025L27.4766 58.8394L27.155 57.0882Z" fill="white"/>
<path d="M49.2329 81.121C49.0079 81.052 48.7721 81.0251 48.5374 81.0418C48.5374 81.0418 47.6664 80.678 46.6114 78.9468L45.7126 79.0645C45.5613 79.0872 45.4207 79.1558 45.3097 79.2611C45.1987 79.3663 45.1227 79.5031 45.092 79.653C45.0855 79.6955 45.0855 79.7388 45.092 79.7814C45.1307 79.9986 45.1836 80.2131 45.2504 80.4234C45.4808 81.119 45.7531 81.8 46.0657 82.4628L46.2112 82.4029L45.7468 81.106C45.5928 80.6631 46.1299 81.0376 46.4145 81.4656C46.6991 81.8936 47.1036 82.3087 48.0645 81.9449C49.1815 81.5084 49.6245 81.2772 49.2329 81.121Z" fill="#263238"/>
<path d="M46.3868 78.4863C46.3868 78.4863 47.8292 80.6777 48.5375 81.0415C48.5375 81.0415 47.7436 81.6835 46.6843 80.652C45.3168 79.3273 45.0878 79.781 45.0878 79.781C45.0756 79.5215 45.0878 79.2614 45.1242 79.0042C45.2333 78.5013 46.3868 78.4863 46.3868 78.4863Z" fill="#E4897B"/>
<path d="M37.664 88.4031C37.459 88.2849 37.2342 88.2052 37.0006 88.1677C37.0006 88.1677 36.2409 87.6092 35.631 85.6789L34.7301 85.5804C34.5772 85.566 34.4236 85.5994 34.2906 85.6761C34.1575 85.7528 34.0516 85.8689 33.9875 86.0084C33.9683 86.0468 33.9553 86.088 33.949 86.1304C33.934 86.3492 33.934 86.5687 33.949 86.7874C34.007 87.5178 34.11 88.2439 34.2571 88.9616L34.4134 88.9381L34.2743 87.5642C34.2293 87.0977 34.6637 87.5899 34.8392 88.0735C35.0147 88.5572 35.3079 89.0558 36.3265 88.9295C37.5164 88.769 38 88.6492 37.664 88.4031Z" fill="#263238"/>
<path d="M35.5241 85.1718C35.5241 85.1718 36.4058 87.6435 37.0071 88.1678C37.0071 88.1678 36.0848 88.5958 35.2951 87.3503C34.2786 85.7389 33.9512 86.1262 33.9512 86.1262C33.999 85.8719 34.0707 85.6225 34.1652 85.3815C34.392 84.9107 35.5241 85.1718 35.5241 85.1718Z" fill="#E4897B"/>
<path d="M19.3584 41.5157L17.548 41.8795C17.4772 41.9391 17.3937 41.9815 17.3038 42.0034C17.214 42.0253 17.1203 42.0261 17.0301 42.0058C16.4908 41.7918 15.714 41.1648 15.6155 40.9358C15.47 40.6126 15.6155 39.6646 15.9965 39.4934C16.3774 39.3222 17.6892 40.9058 17.6892 40.9058L19.6345 40.4671L19.3584 41.5157Z" fill="#E4897B"/>
<path d="M25.068 47.5336C25.068 47.5336 24.9033 41.6678 24.2249 41.4175C23.5465 41.1671 18.4469 41.8669 18.4469 41.8669L18.3228 40.5272C18.3228 40.5272 24.257 39.6134 25.4062 40.1549C26.5553 40.6963 26.9341 49.4382 26.7244 51.1224L25.068 47.5336Z" fill="#92E3A9"/>
<path opacity="0.6" d="M25.068 47.5336C25.068 47.5336 24.9033 41.6678 24.2249 41.4175C23.5465 41.1671 18.4469 41.8669 18.4469 41.8669L18.3228 40.5272C18.3228 40.5272 24.257 39.6134 25.4062 40.1549C26.5553 40.6963 26.9341 49.4382 26.7244 51.1224L25.068 47.5336Z" fill="white"/>
<path d="M18.5347 41.9952L18.1794 40.5229L18.6888 40.3389L19.0119 42.0402L18.5347 41.9952Z" fill="#92E3A9"/>
<path opacity="0.7" d="M18.5347 41.9952L18.1794 40.5229L18.6888 40.3389L19.0119 42.0402L18.5347 41.9952Z" fill="white"/>
<path d="M25.038 46.8018C25.038 46.8018 24.5821 48.5865 22.3865 49.1558C20.1909 49.725 17.762 48.2377 17.762 48.2377L18.2456 52.4963L20.9334 59.2052L27.8028 57.414C27.8028 57.414 27.392 49.6094 25.038 46.8018Z" fill="#92E3A9"/>
<path opacity="0.7" d="M25.038 46.8018C25.038 46.8018 24.5821 48.5865 22.3865 49.1558C20.1909 49.725 17.762 48.2377 17.762 48.2377L18.2456 52.4963L20.9334 59.2052L27.8028 57.414C27.8028 57.414 27.392 49.6094 25.038 46.8018Z" fill="white"/>
<path opacity="0.6" d="M26.2319 53.8788L27.036 53.6251C27.1251 53.597 27.1745 53.502 27.1464 53.413L26.6674 51.8946C26.6393 51.8056 26.5443 51.7562 26.4553 51.7842L25.6512 52.0379C25.5621 52.066 25.5127 52.161 25.5408 52.25L26.0199 53.7684C26.0479 53.8575 26.1429 53.9069 26.2319 53.8788Z" fill="#92E3A9"/>
<path opacity="0.2" d="M26.0681 53.4159L26.9824 53.1274L26.5877 51.8764L25.6734 52.1649L26.0681 53.4159Z" fill="black"/>
<path d="M26.0375 51.4241L25.8354 51.4878L26.0679 52.2245L26.2699 52.1608L26.0375 51.4241Z" fill="#263238"/>
<path d="M20.3686 40.1357C18.6759 40.1357 17.5588 41.9291 17.9547 44.7731C18.3506 47.6172 19.9363 48.4368 19.9363 48.4368L19.8358 47.7499C21.5961 48.1494 23.4111 48.2506 25.205 48.0495C25.205 48.0495 24.3875 45.7297 24.6529 43.3607C24.6529 43.3607 25.19 40.1315 20.3686 40.1357Z" fill="#263238"/>
<path opacity="0.2" d="M23.7305 48.5779L24.4217 51.1459L23.2062 50.2193C23.2062 50.2193 24.3896 52.9243 24.7042 54.4993C24.7042 54.4993 23.6813 51.8179 22.7996 50.3477L22.2839 51.82L20.2102 49.7078C20.2102 49.7078 22.042 48.304 23.7305 48.5779Z" fill="black"/>
<path d="M22.7204 49.4059L20.6104 49.4701C21.5456 48.2738 19.855 46.1895 19.855 46.1895L21.9393 46.641C22.4358 48.704 23.294 48.766 23.294 48.766L22.7204 49.4059Z" fill="#E4897B"/>
<path opacity="0.2" d="M22.5214 48.1221C21.7163 48.0548 20.9674 47.6819 20.4285 47.0799C20.262 46.7707 20.0702 46.4758 19.855 46.1982L21.9393 46.6519C22.0497 47.1711 22.2465 47.6681 22.5214 48.1221Z" fill="black"/>
<path d="M21.9373 41.0067C23.7542 41.1587 24.2592 42.1795 24.2357 44.0648C24.2078 46.4188 23.5487 48.0388 21.3188 47.3497C18.2886 46.4145 18.9178 40.7542 21.9373 41.0067Z" fill="#E4897B"/>
<path d="M23.0693 43.8701C23.1923 44.1539 23.3489 44.4219 23.5358 44.6683C23.476 44.7385 23.3981 44.791 23.3105 44.82C23.223 44.8491 23.1292 44.8536 23.0393 44.8331L23.0693 43.8701Z" fill="#DE5753"/>
<path d="M21.8389 43.5659L22.2326 43.4375C22.2326 43.4375 22.0229 43.7499 21.8389 43.5659Z" fill="#263238"/>
<path d="M21.9756 43.5213C21.9024 43.4853 21.8186 43.4772 21.7398 43.4984C21.6611 43.5197 21.5928 43.5689 21.5476 43.6368C21.6148 43.6062 21.6878 43.5903 21.7616 43.5903C21.8354 43.5903 21.9084 43.6062 21.9756 43.6368V43.5213Z" fill="#263238"/>
<path d="M21.2438 42.6542C21.2236 42.6537 21.2044 42.6452 21.1903 42.6307C21.1829 42.6237 21.177 42.6152 21.1729 42.6058C21.1688 42.5964 21.1667 42.5863 21.1667 42.5761C21.1667 42.5659 21.1688 42.5558 21.1729 42.5464C21.177 42.537 21.1829 42.5285 21.1903 42.5215C21.3097 42.4172 21.4516 42.3419 21.605 42.3018C21.7584 42.2617 21.919 42.2578 22.0742 42.2904C22.0943 42.2947 22.1119 42.3068 22.1232 42.324C22.1344 42.3413 22.1383 42.3623 22.1341 42.3824C22.1298 42.4026 22.1177 42.4202 22.1005 42.4315C22.0832 42.4427 22.0622 42.4466 22.0421 42.4424C21.9126 42.4159 21.7788 42.4189 21.6506 42.4511C21.5225 42.4834 21.4032 42.544 21.3016 42.6285C21.2944 42.6368 21.2856 42.6433 21.2756 42.6478C21.2656 42.6522 21.2548 42.6544 21.2438 42.6542Z" fill="#263238"/>
<path d="M24.0944 42.6863C24.0774 42.687 24.0608 42.6817 24.0473 42.6714C23.9617 42.5929 23.8596 42.5345 23.7485 42.5004C23.6375 42.4663 23.5202 42.4575 23.4053 42.4745C23.3955 42.4771 23.3852 42.4778 23.3751 42.4766C23.365 42.4753 23.3552 42.472 23.3464 42.4669C23.3376 42.4618 23.3298 42.4551 23.3236 42.447C23.3173 42.439 23.3128 42.4297 23.3101 42.4199C23.3074 42.4101 23.3067 42.3998 23.308 42.3897C23.3093 42.3796 23.3126 42.3698 23.3176 42.361C23.3227 42.3521 23.3295 42.3444 23.3375 42.3382C23.3456 42.3319 23.3548 42.3273 23.3647 42.3247C23.5034 42.3001 23.6458 42.3076 23.7812 42.3466C23.9166 42.3855 24.0413 42.4549 24.1458 42.5494C24.1616 42.5624 24.1718 42.581 24.1742 42.6014C24.1766 42.6217 24.171 42.6422 24.1586 42.6585C24.1508 42.6679 24.141 42.6753 24.1298 42.6801C24.1187 42.685 24.1065 42.6871 24.0944 42.6863Z" fill="#263238"/>
<path d="M19.688 43.9043C19.688 43.9043 20.6617 42.4834 20.6296 41.3192C20.6296 41.3192 24.3553 40.1465 24.2291 43.8187C24.2291 43.8187 24.8497 40.6087 21.7317 40.2685C18.6137 39.9282 18.252 44.5121 19.7522 46.0101C19.7522 46.0101 19.0909 44.7946 19.688 43.9043Z" fill="#263238"/>
<path d="M19.9598 44.3131C19.9598 44.1012 19.8758 43.8979 19.7262 43.7479C19.5765 43.5978 19.3735 43.5133 19.1616 43.5127C18.5924 43.5277 18.2286 44.6619 19.6067 45.0578C19.8036 45.1134 19.9341 44.9272 19.9598 44.3131Z" fill="#E4897B"/>
<path d="M23.0543 45.3679C22.921 45.5469 22.8016 45.7358 22.6969 45.9329C22.6605 45.92 22.622 45.9093 22.5856 45.8943C22.0827 45.7167 21.9072 45.4663 21.8666 45.2523C21.8474 45.1436 21.8555 45.0319 21.8901 44.9271C21.9079 44.8668 21.9339 44.8092 21.9672 44.7559C22.2286 45.0044 22.5412 45.1928 22.8831 45.308C22.9858 45.3465 23.0543 45.3679 23.0543 45.3679Z" fill="#263238"/>
<path d="M22.8831 45.3036L22.774 45.4684C22.2989 45.2993 21.9886 45.1174 21.8901 44.9227C21.908 44.8624 21.9339 44.8048 21.9672 44.7515C22.2287 45 22.5412 45.1884 22.8831 45.3036Z" fill="white"/>
<path d="M22.5855 45.8944C22.0826 45.7168 21.9071 45.4664 21.8665 45.2524C22.0567 45.3225 22.2328 45.4262 22.3865 45.5585C22.4861 45.6471 22.5557 45.7645 22.5855 45.8944Z" fill="#DE5753"/>
<path d="M21.888 41.1413C21.888 41.1413 20.9057 44.0709 19.0268 43.8698C17.1479 43.6686 20.3686 40.1291 20.3686 40.1291C20.3686 40.1291 23.5379 39.2238 24.9182 40.9851C26.2985 42.7463 24.2355 43.8142 24.2355 43.8142C24.2355 43.8142 24.5437 41.5158 21.888 41.1413Z" fill="#263238"/>
<path d="M20.3901 43.6347C20.3792 43.6342 20.3687 43.6307 20.3597 43.6247C20.3506 43.6187 20.3434 43.6103 20.3387 43.6004C20.3338 43.5868 20.3344 43.5718 20.3404 43.5586C20.3464 43.5454 20.3573 43.5351 20.3708 43.5298C21.8688 42.9584 21.8346 40.949 21.8346 40.9276C21.834 40.9206 21.8349 40.9135 21.8372 40.9069C21.8395 40.9003 21.8432 40.8942 21.8481 40.8892C21.853 40.8841 21.8589 40.8801 21.8654 40.8775C21.8719 40.8749 21.8789 40.8737 21.8859 40.8741C21.8998 40.8745 21.9131 40.8799 21.9233 40.8894C21.9336 40.8988 21.94 40.9116 21.9416 40.9254C21.9416 40.9468 21.9758 43.0312 20.4093 43.6304L20.3901 43.6347Z" fill="#263238"/>
<path d="M23.6833 43.7434L24.0771 43.6172C24.0771 43.6172 23.8652 43.9275 23.6833 43.7434Z" fill="#263238"/>
<path d="M23.8203 43.6986C23.747 43.6624 23.6628 43.6543 23.5839 43.676C23.505 43.6977 23.4368 43.7476 23.3923 43.8163C23.4585 43.7834 23.531 43.7652 23.6049 43.7629C23.6788 43.7607 23.7523 43.7745 23.8203 43.8035V43.6986Z" fill="#263238"/>
<path d="M20.9078 48.6055L22.4978 49.4144L22.4721 51.0258L20.1995 49.7011L20.9078 48.6055Z" fill="#92E3A9"/>
<path d="M22.7397 48.3018L22.8339 49.2797L23.8718 50.3776L23.7306 48.5714L22.7397 48.3018Z" fill="#92E3A9"/>
<path d="M15.393 37.2359L14.7296 35.5239C14.7417 35.4323 14.7323 35.3392 14.7023 35.252C14.6722 35.1647 14.6222 35.0856 14.5562 35.021C14.094 34.6764 13.1396 34.364 12.8999 34.4004C12.5511 34.4517 11.8299 35.083 11.8919 35.496C11.954 35.9091 13.9913 36.1637 13.9913 36.1637L14.6675 38.0405L15.393 37.2359Z" fill="#E4897B"/>
<path d="M18.2498 52.4964C18.2498 52.4964 19.5338 51.4757 19.0224 49.2201L17.6421 42.9799L15.271 36.5342L14.1111 37.1205C14.1111 37.1205 16.0585 43.4186 16.2382 43.8444C16.3303 44.0584 16.6962 47.3262 17.1948 49.5154C17.6528 51.5313 18.2498 52.4964 18.2498 52.4964Z" fill="#92E3A9"/>
<path opacity="0.6" d="M18.2498 52.4964C18.2498 52.4964 19.5338 51.4757 19.0224 49.2201L17.6421 42.9799L15.271 36.5342L14.1111 37.1205C14.1111 37.1205 16.0585 43.4186 16.2382 43.8444C16.3303 44.0584 16.6962 47.3262 17.1948 49.5154C17.6528 51.5313 18.2498 52.4964 18.2498 52.4964Z" fill="white"/>
<path d="M13.908 36.9362L15.2626 36.2578L15.5579 36.7094L13.9743 37.4113L13.908 36.9362Z" fill="#92E3A9"/>
<path opacity="0.7" d="M13.908 36.9362L15.2626 36.2578L15.5579 36.7094L13.9743 37.4113L13.908 36.9362Z" fill="white"/>
<path opacity="0.6" d="M20.9078 48.6055L22.4978 49.4144L22.4721 51.0258L20.1995 49.7011L20.9078 48.6055Z" fill="white"/>
<path opacity="0.6" d="M22.7397 48.3018L22.8339 49.2797L23.8718 50.3776L23.7306 48.5714L22.7397 48.3018Z" fill="white"/>
<path d="M67.8939 45.2417H61.4824V50.2236H67.8939V45.2417Z" fill="white"/>
<path opacity="0.1" d="M67.894 45.2417H66.2505V50.2236H67.894V45.2417Z" fill="black"/>
<path d="M61.1145 54.623H68.3627V45.5815H66.0279L61.1145 47.9334V54.623Z" fill="#92E3A9"/>
<path opacity="0.2" d="M68.3626 45.5815H66.0278V54.623H68.3626V45.5815Z" fill="black"/>
<path opacity="0.7" d="M65.2554 49.7163H61.8613V51.3427H65.2554V49.7163Z" fill="white"/>
<path opacity="0.7" d="M65.2554 51.8862H61.8613V52.1195H65.2554V51.8862Z" fill="white"/>
<path opacity="0.7" d="M68.1358 52.5688H66.2505V53.9492H68.1358V52.5688Z" fill="white"/>
<path d="M65.1697 44.9697H58.7583V50.2234H65.1697V44.9697Z" fill="white"/>
<path opacity="0.1" d="M65.1696 44.9697H63.5261V50.2234H65.1696V44.9697Z" fill="black"/>
<path d="M58.3901 54.623H65.6383V45.5815H63.3036L58.3901 47.9334V54.623Z" fill="#92E3A9"/>
<path opacity="0.2" d="M65.6385 45.5815H63.3037V54.623H65.6385V45.5815Z" fill="black"/>
<path opacity="0.7" d="M62.531 49.7163H59.137V51.3427H62.531V49.7163Z" fill="white"/>
<path opacity="0.7" d="M62.531 51.8862H59.137V52.1195H62.531V51.8862Z" fill="white"/>
<path opacity="0.7" d="M65.4115 52.5688H63.5261V53.9492H65.4115V52.5688Z" fill="white"/>
<path d="M53.8877 88.9508H55.1995L57.5535 56.1553H55.8137L53.8877 88.9508Z" fill="#263238"/>
<path opacity="0.1" d="M53.8877 88.951H55.1995L57.438 57.784L57.5535 56.209H55.8137L55.7217 57.784L53.8877 88.951Z" fill="white"/>
<path opacity="0.2" d="M55.7217 57.707H57.438L57.5535 56.209H55.8137L55.7217 57.707Z" fill="black"/>
<path d="M44.2662 88.9508H45.5781L45.7921 56.1553H44.0522L44.2662 88.9508Z" fill="#263238"/>
<path opacity="0.1" d="M44.05 56.209L44.0864 61.4991L44.264 88.951H45.5759L45.7556 61.4991L45.7899 56.209H44.05Z" fill="white"/>
<path opacity="0.2" d="M44.05 56.209L44.0864 61.559H45.7556L45.7899 56.209H44.05Z" fill="black"/>
<path d="M30.3477 88.9508H31.6595L34.0135 56.1553H32.2737L30.3477 88.9508Z" fill="#263238"/>
<path opacity="0.1" d="M30.3477 88.951H31.6595L33.9001 57.784L34.0135 56.209H32.2737L32.1816 57.784L30.3477 88.951Z" fill="white"/>
<path opacity="0.2" d="M32.1816 57.707H33.9001L34.0135 56.209H32.2737L32.1816 57.707Z" fill="black"/>
<path d="M68.8847 88.9508H70.1965L68.2684 56.1553H66.5286L68.8847 88.9508Z" fill="#263238"/>
<path opacity="0.1" d="M66.5286 56.209L66.6463 57.784L68.8847 88.951H70.1944L68.3625 57.784L68.2684 56.209H66.5286Z" fill="white"/>
<path opacity="0.2" d="M68.2684 56.209H66.5286L66.6463 57.707H68.3625L68.2684 56.209Z" fill="black"/>
<path d="M69.1864 56.9771L31.3598 56.9771C31.2991 56.9771 31.239 56.9651 31.1829 56.9419C31.1268 56.9186 31.0759 56.8846 31.0329 56.8417C30.99 56.7987 30.956 56.7478 30.9327 56.6917C30.9095 56.6356 30.8976 56.5755 30.8976 56.5148V55.3357L69.6487 55.3357V56.5148C69.6487 56.5755 69.6367 56.6356 69.6135 56.6917C69.5903 56.7478 69.5562 56.7987 69.5133 56.8417C69.4704 56.8846 69.4194 56.9186 69.3633 56.9419C69.3073 56.9651 69.2471 56.9771 69.1864 56.9771Z" fill="#92E3A9"/>
<path opacity="0.4" d="M69.1864 56.9771L31.3598 56.9771C31.2991 56.9771 31.239 56.9651 31.1829 56.9419C31.1268 56.9186 31.0759 56.8846 31.0329 56.8417C30.99 56.7987 30.956 56.7478 30.9327 56.6917C30.9095 56.6356 30.8976 56.5755 30.8976 56.5148V55.3357L69.6487 55.3357V56.5148C69.6487 56.5755 69.6367 56.6356 69.6135 56.6917C69.5903 56.7478 69.5562 56.7987 69.5133 56.8417C69.4704 56.8846 69.4194 56.9186 69.3633 56.9419C69.3073 56.9651 69.2471 56.9771 69.1864 56.9771Z" fill="white"/>
<path opacity="0.2" d="M30.8976 56.1553L69.6487 56.1553V55.3335L30.8976 55.3335V56.1553Z" fill="black"/>
<path d="M30.0845 55.5475H70.4599C70.5207 55.5478 70.5809 55.536 70.6371 55.5129C70.6933 55.4898 70.7444 55.4558 70.7874 55.4128C70.8303 55.3698 70.8644 55.3187 70.8875 55.2625C70.9106 55.2063 70.9224 55.1461 70.9221 55.0853C70.9221 54.9627 70.8734 54.8451 70.7867 54.7584C70.7 54.6717 70.5825 54.623 70.4599 54.623H30.0845C29.9617 54.623 29.8439 54.6717 29.7569 54.7583C29.6699 54.8449 29.6207 54.9625 29.6201 55.0853C29.6201 55.1462 29.6321 55.2065 29.6555 55.2627C29.6789 55.3189 29.7131 55.3699 29.7563 55.4129C29.7994 55.4558 29.8506 55.4899 29.9069 55.513C29.9633 55.5361 30.0236 55.5478 30.0845 55.5475Z" fill="#92E3A9"/>
<path opacity="0.4" d="M30.0845 55.5475H70.4599C70.5207 55.5478 70.5809 55.536 70.6371 55.5129C70.6933 55.4898 70.7444 55.4558 70.7874 55.4128C70.8303 55.3698 70.8644 55.3187 70.8875 55.2625C70.9106 55.2063 70.9224 55.1461 70.9221 55.0853C70.9221 54.9627 70.8734 54.8451 70.7867 54.7584C70.7 54.6717 70.5825 54.623 70.4599 54.623H30.0845C29.9617 54.623 29.8439 54.6717 29.7569 54.7583C29.6699 54.8449 29.6207 54.9625 29.6201 55.0853C29.6201 55.1462 29.6321 55.2065 29.6555 55.2627C29.6789 55.3189 29.7131 55.3699 29.7563 55.4129C29.7994 55.4558 29.8506 55.4899 29.9069 55.513C29.9633 55.5361 30.0236 55.5478 30.0845 55.5475Z" fill="white"/>
<path d="M61.7841 54.6191V53.8958H62.2699L61.7841 53.6133H62.1479L61.6622 53.2966H61.2021V52.9328H61.7371L61.2021 52.721V51.9313H61.7371V51.4156H62.2699L61.7371 51.2358V50.8677H62.118L61.8055 50.5574L61.5359 50.2856H53.2669V50.6559H52.7212L53.329 50.9298V51.2358H52.2141V51.805H51.7197L52.2141 52.0533V52.6889H52.565V52.9927H53.2669V53.8958H52.8732L53.1963 54.219V54.6234L61.7841 54.6191Z" fill="#92E3A9"/>
<path opacity="0.7" d="M61.7841 54.6191V53.8958H62.2699L61.7841 53.6133H62.1479L61.6622 53.2966H61.2021V52.9328H61.7371L61.2021 52.721V51.9313H61.7371V51.4156H62.2699L61.7371 51.2358V50.8677H62.118L61.8055 50.5574L61.5359 50.2856H53.2669V50.6559H52.7212L53.329 50.9298V51.2358H52.2141V51.805H51.7197L52.2141 52.0533V52.6889H52.565V52.9927H53.2669V53.8958H52.8732L53.1963 54.219V54.6234L61.7841 54.6191Z" fill="white"/>
<path opacity="0.1" d="M61.7843 54.6191V53.8958H62.2701L61.7843 53.6133H62.1481L61.6624 53.2966H61.2023V52.9328H61.7373L61.2023 52.721V51.9313H61.7373V51.4156H62.2701L61.7373 51.2358V50.8677H62.1182L61.8057 50.5574L61.5361 50.2856H57.1812V50.6559H56.6355L57.2411 50.9298V51.2358H56.1262V51.805H55.6318L56.1262 52.0533V52.6889H56.4771V52.9927H57.1812V53.8958H56.7874L57.1084 54.219V54.6234L61.7843 54.6191Z" fill="black"/>
<path opacity="0.1" d="M53.3291 51.2355H57.241L53.3291 51.0942V51.2355Z" fill="black"/>
<path opacity="0.1" d="M53.2671 52.9927H57.1812L57.1983 53.2666L53.2671 52.9927Z" fill="black"/>
<path opacity="0.1" d="M52.5652 52.6885H56.4771L52.5652 52.8254V52.6885Z" fill="black"/>
<path opacity="0.1" d="M53.2671 53.8958H57.1812L53.2671 53.7524V53.8958Z" fill="black"/>
<path opacity="0.1" d="M53.1963 54.2188H57.1082V54.3685L53.1963 54.2188Z" fill="black"/>
<path opacity="0.1" d="M52.2141 51.8048H56.126L52.2141 51.6807V51.8048Z" fill="black"/>
<path opacity="0.1" d="M53.2671 50.6555H57.1812L53.2671 50.5186V50.6555Z" fill="black"/>
<path opacity="0.1" d="M61.737 50.8677H57.7673L61.737 50.9897V50.8677Z" fill="black"/>
<path opacity="0.1" d="M57.241 51.2358H61.7371L57.6604 51.3685L57.241 51.2358Z" fill="black"/>
<path opacity="0.1" d="M56.126 51.8047L61.7371 51.9309V51.8047H56.126Z" fill="black"/>
<path opacity="0.1" d="M56.126 52.0532H58.9016L56.126 52.188V52.0532Z" fill="black"/>
<path opacity="0.1" d="M61.2022 52.7206L57.1812 52.6885L61.2022 52.5986V52.7206Z" fill="black"/>
<path opacity="0.1" d="M61.2022 52.9326H57.1084L61.2022 53.0696V52.9326Z" fill="black"/>
<path opacity="0.1" d="M61.7842 53.6133H57.241V53.7524L61.7842 53.6133Z" fill="black"/>
<path opacity="0.1" d="M61.7842 53.8955H58.4929L61.7842 53.9875V53.8955Z" fill="black"/>
<path d="M51.2555 53.686V54.373C51.2555 54.5485 51.0415 54.6212 50.8724 54.6212H37.1508C36.9753 54.6212 36.7634 54.5485 36.7634 54.373V53.686H51.2555Z" fill="#263238"/>
<path opacity="0.4" d="M51.2555 53.686V54.373C51.2555 54.5485 51.0415 54.6212 50.8724 54.6212H37.1508C36.9753 54.6212 36.7634 54.5485 36.7634 54.373V53.686H51.2555Z" fill="white"/>
<path opacity="0.2" d="M51.2556 53.686V54.373C51.2556 54.5485 51.0416 54.6212 50.8725 54.6212H41.8225C41.647 54.6212 41.4373 54.5485 41.4373 54.373V53.686H51.2556Z" fill="black"/>
<path d="M53.5518 46.5554L51.9168 53.9663C51.8887 54.0865 51.8212 54.194 51.725 54.2715C51.6289 54.3491 51.5096 54.3923 51.3861 54.3943H42.4644C42.4089 54.393 42.3544 54.379 42.3053 54.3532C42.2561 54.3274 42.2136 54.2905 42.181 54.2456C42.1485 54.2006 42.1268 54.1487 42.1177 54.0939C42.1086 54.0391 42.1122 53.983 42.1285 53.9299L43.7591 46.5768C43.7926 46.4646 43.8635 46.3672 43.9601 46.301C44.0567 46.2348 44.1731 46.2038 44.2899 46.213H53.2137C53.4533 46.2045 53.6031 46.3136 53.5518 46.5554Z" fill="#263238"/>
<path opacity="0.4" d="M53.5515 46.5556L51.9166 53.9664C51.8885 54.0867 51.821 54.1941 51.7248 54.2716C51.6287 54.3492 51.5094 54.3924 51.3859 54.3944H42.7659C42.7104 54.3932 42.656 54.3791 42.6068 54.3533C42.5576 54.3275 42.5151 54.2907 42.4825 54.2457C42.45 54.2007 42.4283 54.1488 42.4192 54.094C42.4101 54.0393 42.4138 53.9831 42.43 53.93L44.0628 46.577C44.0959 46.4645 44.1667 46.3669 44.2634 46.3007C44.3601 46.2344 44.4767 46.2035 44.5935 46.2132H53.2134C53.4531 46.2046 53.6029 46.3138 53.5515 46.5556Z" fill="white"/>
<path opacity="0.2" d="M49.1519 50.3218C49.1519 50.9638 48.4714 51.471 47.9728 51.471C47.4742 51.471 47.1788 50.9553 47.3308 50.3218C47.4827 49.6884 47.9728 49.1941 48.4564 49.1748C48.3152 49.8168 48.6191 50.3218 49.1155 50.3218H49.1519Z" fill="black"/>
</svg>
