<svg width="113" height="113" viewBox="0 0 113 113" fill="none" xmlns="http://www.w3.org/2000/svg">
<path d="M84.6959 37.4594C82.7862 35.1745 80.777 32.9394 78.9464 30.5867C73.5857 23.6847 66.5345 17.038 57.6301 15.1803C48.615 13.3 37.8845 16.4979 32.4447 24.1819C28.8287 29.2872 27.4162 35.631 27.2896 41.8099C27.2331 44.6304 27.7168 47.4802 27.2625 50.2849C26.7608 53.3698 25.0296 56.075 23.5154 58.7486C21.5131 62.2855 20.6497 66.1795 21.8656 70.1661C24.616 79.1722 37.0347 83.3577 45.5662 81.8503C50.2173 81.0277 54.4797 78.7744 58.9861 77.3529C62.7016 76.18 66.5255 75.8387 70.3019 76.9597C78.908 79.5135 87.722 75.111 91.3674 67.0157C95.7676 57.2434 91.6499 46.1468 85.3468 38.2617C85.1321 37.986 84.9174 37.7215 84.6959 37.4594Z" fill="#FFC100"/>
<path opacity="0.7" d="M84.6959 37.4594C82.7862 35.1745 80.777 32.9394 78.9464 30.5867C73.5857 23.6847 66.5345 17.038 57.6301 15.1803C48.615 13.3 37.8845 16.4979 32.4447 24.1819C28.8287 29.2872 27.4162 35.631 27.2896 41.8099C27.2331 44.6304 27.7168 47.4802 27.2625 50.2849C26.7608 53.3698 25.0296 56.075 23.5154 58.7486C21.5131 62.2855 20.6497 66.1795 21.8656 70.1661C24.616 79.1722 37.0347 83.3577 45.5662 81.8503C50.2173 81.0277 54.4797 78.7744 58.9861 77.3529C62.7016 76.18 66.5255 75.8387 70.3019 76.9597C78.908 79.5135 87.722 75.111 91.3674 67.0157C95.7676 57.2434 91.6499 46.1468 85.3468 38.2617C85.1321 37.986 84.9174 37.7215 84.6959 37.4594Z" fill="white"/>
<path d="M56.1023 96.9723C73.9299 96.9723 88.3819 94.1796 88.3819 90.7347C88.3819 87.2897 73.9299 84.4971 56.1023 84.4971C38.2748 84.4971 23.8228 87.2897 23.8228 90.7347C23.8228 94.1796 38.2748 96.9723 56.1023 96.9723Z" fill="#FFC100"/>
<path opacity="0.5" d="M56.1023 96.9723C73.9299 96.9723 88.3819 94.1796 88.3819 90.7347C88.3819 87.2897 73.9299 84.4971 56.1023 84.4971C38.2748 84.4971 23.8228 87.2897 23.8228 90.7347C23.8228 94.1796 38.2748 96.9723 56.1023 96.9723Z" fill="white"/>
<path d="M70.1343 64.0322H45.8777C45.2948 64.0322 44.8223 64.5048 44.8223 65.0876V67.0448C44.8223 67.6277 45.2948 68.1002 45.8777 68.1002H70.1343C70.7172 68.1002 71.1897 67.6277 71.1897 67.0448V65.0876C71.1897 64.5048 70.7172 64.0322 70.1343 64.0322Z" fill="white"/>
<path d="M70.1345 68.2134H45.8779C45.5684 68.2134 45.2715 68.0906 45.0525 67.872C44.8334 67.6534 44.7101 67.3568 44.7095 67.0473V65.0879C44.7101 64.7782 44.8334 64.4813 45.0524 64.2623C45.2713 64.0433 45.5682 63.92 45.8779 63.9194H70.1345C70.4442 63.92 70.741 64.0433 70.96 64.2623C71.179 64.4813 71.3023 64.7782 71.3029 65.0879V67.0473C71.3023 67.3568 71.1789 67.6534 70.9599 67.872C70.7408 68.0906 70.444 68.2134 70.1345 68.2134ZM45.8779 64.1454C45.6279 64.1454 45.3882 64.2447 45.2115 64.4215C45.0348 64.5982 44.9355 64.8379 44.9355 65.0879V67.0473C44.9361 67.2968 45.0356 67.536 45.2123 67.7122C45.389 67.8885 45.6283 67.9874 45.8779 67.9874H70.1345C70.384 67.9874 70.6234 67.8885 70.8001 67.7122C70.9767 67.536 71.0763 67.2968 71.0769 67.0473V65.0879C71.0769 64.8379 70.9776 64.5982 70.8009 64.4215C70.6241 64.2447 70.3844 64.1454 70.1345 64.1454H45.8779Z" fill="#263238"/>
<path d="M47.5345 64.4575H45.8779V67.8001H47.5345V64.4575Z" fill="#FFC100"/>
<path d="M49.5999 64.4575H47.9434V67.8001H49.5999V64.4575Z" fill="#FFC100"/>
<path d="M51.6659 64.4575H50.0093V67.8001H51.6659V64.4575Z" fill="#FFC100"/>
<path d="M53.7313 64.4575H52.0747V67.8001H53.7313V64.4575Z" fill="#FFC100"/>
<path d="M55.7972 64.4575H54.1406V67.8001H55.7972V64.4575Z" fill="#FFC100"/>
<path d="M57.8626 64.4575H56.2061V67.8001H57.8626V64.4575Z" fill="#FFC100"/>
<path d="M59.9286 64.4575H58.272V67.8001H59.9286V64.4575Z" fill="#FFC100"/>
<path d="M61.994 64.4575H60.3374V67.8001H61.994V64.4575Z" fill="#FFC100"/>
<path d="M61.6322 36.3863L63.804 35.3964L63.352 32.7884L60.9564 32.603C60.6508 31.8032 60.2477 31.0442 59.7564 30.343L60.9926 28.2571L59.1191 26.3835L57.0173 27.6333C55.8066 26.8091 54.4359 26.2493 52.9945 25.9903L52.3888 23.5879H49.7401L49.1299 26.0038C48.3092 26.1604 47.5103 26.4146 46.7501 26.7609L44.8562 25.1224L42.6889 26.6411L43.5929 28.9848C43.0096 29.5799 42.499 30.2422 42.0719 30.9577L39.5859 30.7001L38.6819 33.1861L40.7453 34.5851C40.6462 35.1659 40.5963 35.7541 40.5961 36.3433C40.5961 36.5942 40.5961 36.8405 40.6255 37.0869L38.4536 38.2982L39.1316 40.8566L41.5905 40.8249C41.9548 41.5923 42.4101 42.3132 42.9465 42.9719L41.8843 45.1754L43.9183 46.8772L45.8845 45.4692C46.629 45.8991 47.4238 46.2353 48.2507 46.4704L48.6462 48.8411L51.2836 49.0671L52.0792 46.823C52.9448 46.7458 53.7975 46.5605 54.6171 46.2715L56.2805 47.9643L58.5744 46.6399L57.9439 44.3596C58.6087 43.7947 59.2009 43.1494 59.7067 42.4386L62.0367 42.8679L63.1667 40.4701L61.3384 38.9604C61.543 38.1179 61.6417 37.2532 61.6322 36.3863ZM57.7156 36.3411C57.7156 37.6485 57.3279 38.9266 56.6015 40.0137C55.8752 41.1008 54.8427 41.948 53.6348 42.4484C52.4269 42.9487 51.0978 43.0796 49.8155 42.8246C48.5331 42.5695 47.3553 41.9399 46.4308 41.0154C45.5063 40.0909 44.8767 38.913 44.6216 37.6307C44.3665 36.3484 44.4975 35.0193 44.9978 33.8113C45.4981 32.6034 46.3454 31.571 47.4325 30.8446C48.5196 30.1183 49.7977 29.7306 51.1051 29.7306C51.9734 29.7306 52.8332 29.9016 53.6353 30.234C54.4375 30.5663 55.1664 31.0535 55.7802 31.6675C56.3941 32.2816 56.881 33.0106 57.213 33.8129C57.5451 34.6152 57.7159 35.475 57.7156 36.3433V36.3411Z" fill="#FFC100"/>
<path d="M51.261 49.1938L48.6236 48.9678C48.5964 48.9656 48.5708 48.9545 48.5507 48.936C48.5306 48.9176 48.5173 48.893 48.5128 48.8661L48.1196 46.5564C47.3322 46.3281 46.5739 46.0096 45.8596 45.6072L43.9567 46.9632C43.9355 46.98 43.9092 46.9892 43.8821 46.9892C43.855 46.9892 43.8287 46.98 43.8075 46.9632L41.7735 45.2614C41.7526 45.244 41.7381 45.22 41.7324 45.1934C41.7267 45.1668 41.73 45.139 41.7419 45.1145L42.7679 42.9788C42.266 42.3509 41.8361 41.6686 41.4865 40.9448L39.1067 40.9742C39.0793 40.9754 39.0524 40.9671 39.0305 40.9506C39.0087 40.9341 38.9932 40.9104 38.9869 40.8838L38.3089 38.3255C38.3014 38.2995 38.3029 38.2717 38.3131 38.2467C38.3234 38.2216 38.3418 38.2008 38.3654 38.1876L40.4695 37.0124C40.4537 36.7593 40.4469 36.5446 40.4469 36.3344C40.4471 35.7644 40.4932 35.1953 40.5848 34.6326L38.5847 33.2766C38.5622 33.2609 38.5456 33.2381 38.5375 33.212C38.5293 33.1858 38.53 33.1577 38.5395 33.132L39.4435 30.646C39.4536 30.6207 39.4716 30.5993 39.4948 30.5851C39.518 30.5708 39.5452 30.5644 39.5723 30.5669L41.9882 30.8155C42.3975 30.1399 42.8812 29.5122 43.4301 28.9442L42.5645 26.6729C42.5544 26.6476 42.5533 26.6196 42.5616 26.5936C42.5698 26.5676 42.5868 26.5453 42.6097 26.5305L44.7771 25.0118C44.7986 24.9948 44.8253 24.9855 44.8528 24.9855C44.8802 24.9855 44.9069 24.9948 44.9285 25.0118L46.7613 26.5938C47.4856 26.2716 48.2437 26.0313 49.0213 25.8774L49.6112 23.536C49.6185 23.5097 49.6341 23.4865 49.6557 23.4698C49.6773 23.4531 49.7037 23.4438 49.731 23.4434H52.3797C52.4068 23.4436 52.4331 23.4528 52.4543 23.4696C52.4756 23.4863 52.4907 23.5097 52.4972 23.536L53.0848 25.8616C54.4867 26.124 55.8207 26.6684 57.0059 27.4616L59.0399 26.2525C59.0631 26.2381 59.0906 26.232 59.1177 26.2353C59.1448 26.2386 59.17 26.251 59.1891 26.2706L61.0604 28.1419C61.0792 28.1614 61.0912 28.1865 61.0945 28.2134C61.0978 28.2404 61.0921 28.2676 61.0784 28.2911L59.8897 30.3296C60.3515 31.0037 60.7344 31.7287 61.031 32.4901L63.3497 32.6687C63.3769 32.6708 63.4026 32.682 63.4226 32.7004C63.4427 32.7189 63.456 32.7435 63.4605 32.7704L63.9125 35.3784C63.9166 35.4052 63.9121 35.4326 63.8995 35.4566C63.8868 35.4807 63.8668 35.5 63.8424 35.5118L61.7406 36.4677C61.7324 37.2945 61.6278 38.1174 61.4287 38.9198L63.1961 40.3798C63.2168 40.3968 63.2314 40.4202 63.2376 40.4464C63.2437 40.4725 63.241 40.5 63.23 40.5244L62.1113 42.9246C62.0998 42.9492 62.0805 42.9694 62.0564 42.9821C62.0323 42.9947 62.0047 42.9991 61.9779 42.9946L59.7179 42.5788C59.2303 43.25 58.6677 43.8634 58.041 44.4071L58.6489 46.6106C58.6562 46.6369 58.6546 46.6649 58.6444 46.6902C58.6342 46.7156 58.6159 46.7368 58.5924 46.7507L56.2985 48.0751C56.2751 48.0879 56.2482 48.0929 56.2217 48.0892C56.1953 48.0856 56.1707 48.0735 56.1516 48.0548L54.5403 46.4185C53.7581 46.6862 52.9472 46.8614 52.1243 46.9406L51.3559 49.1124C51.3487 49.1332 51.3361 49.1516 51.3194 49.1659C51.3028 49.1802 51.2826 49.1898 51.261 49.1938ZM48.7275 48.7282L51.1774 48.9407L51.9413 46.7846C51.9488 46.7626 51.9627 46.7434 51.9812 46.7293C51.9997 46.7152 52.022 46.707 52.0452 46.7055C52.9008 46.6291 53.7436 46.4462 54.5538 46.1609C54.5759 46.1532 54.5997 46.1518 54.6225 46.157C54.6452 46.1622 54.6661 46.1737 54.6826 46.1903L56.2805 47.8152L58.4094 46.5858L57.8037 44.3958C57.7972 44.3736 57.7973 44.35 57.8041 44.3279C57.811 44.3058 57.8242 44.2862 57.8421 44.2715C58.4985 43.7124 59.0837 43.0749 59.5846 42.3731C59.598 42.354 59.6167 42.3392 59.6383 42.3304C59.6599 42.3216 59.6837 42.3191 59.7066 42.3234L61.9418 42.7347L62.9814 40.5086L61.2276 39.06C61.2088 39.0454 61.1949 39.0256 61.1876 39.003C61.1804 38.9804 61.1801 38.9561 61.1869 38.9334C61.3991 38.1009 61.5077 37.2455 61.5101 36.3864C61.5102 36.3629 61.5171 36.34 61.53 36.3204C61.5428 36.3007 61.561 36.2852 61.5824 36.2756L63.6684 35.3242L63.2413 32.9037L60.9383 32.7252C60.9152 32.7235 60.8931 32.7151 60.8746 32.701C60.8562 32.687 60.8422 32.6679 60.8344 32.6461C60.5332 31.853 60.1354 31.1 59.6501 30.4042C59.6375 30.3842 59.6307 30.3611 59.6307 30.3375C59.6307 30.3139 59.6375 30.2907 59.6501 30.2708L60.8366 28.2662L59.0987 26.5283L57.0782 27.7283C57.0588 27.7411 57.036 27.7478 57.0127 27.7478C56.9894 27.7478 56.9666 27.7411 56.9472 27.7283C55.7519 26.9176 54.4 26.3663 52.9786 26.1102C52.9554 26.1061 52.9339 26.0954 52.9166 26.0793C52.8994 26.0633 52.8872 26.0426 52.8814 26.0198L52.2961 23.71H49.8349L49.2496 26.0356C49.2436 26.0583 49.2313 26.0788 49.2141 26.0948C49.1969 26.1108 49.1755 26.1216 49.1524 26.126C48.3414 26.2803 47.5516 26.5306 46.7998 26.8718C46.7785 26.8817 46.7548 26.8853 46.7316 26.882C46.7083 26.8788 46.6865 26.869 46.6687 26.8537L44.8494 25.2717L42.8357 26.6797L43.6968 28.9397C43.705 28.9615 43.7069 28.9852 43.7021 29.0081C43.6973 29.0309 43.686 29.0519 43.6697 29.0685C43.0942 29.6576 42.5898 30.3122 42.1668 31.0189C42.1546 31.0387 42.1372 31.0547 42.1164 31.0651C42.0956 31.0754 42.0724 31.0798 42.0492 31.0776L39.6514 30.8313L38.8107 33.141L40.7949 34.497C40.8147 34.51 40.8301 34.5285 40.8394 34.5502C40.8486 34.5719 40.8512 34.5959 40.8469 34.6191C40.7502 35.1933 40.701 35.7746 40.7 36.357C40.7 36.583 40.7 36.809 40.7294 37.0915C40.7304 37.1147 40.7251 37.1377 40.7139 37.158C40.7027 37.1783 40.6862 37.1952 40.6661 37.2068L38.5779 38.3729L39.2152 40.7459L41.5837 40.703C41.6069 40.7029 41.6296 40.7095 41.6492 40.7219C41.6689 40.7343 41.6845 40.752 41.6944 40.773C42.0517 41.5316 42.4994 42.2442 43.0278 42.8952C43.0423 42.913 43.0515 42.9345 43.0543 42.9573C43.0571 42.9801 43.0534 43.0032 43.0436 43.024L42.0221 45.1439L43.9047 46.7259L45.7941 45.3699C45.814 45.3572 45.8371 45.3505 45.8607 45.3505C45.8843 45.3505 45.9075 45.3572 45.9274 45.3699C46.664 45.793 47.4495 46.1247 48.2665 46.3575C48.2889 46.3636 48.3091 46.376 48.3247 46.3932C48.3404 46.4105 48.3507 46.4318 48.3546 46.4547L48.7275 48.7282ZM51.1051 43.0782C49.7736 43.0778 48.4721 42.6826 47.3653 41.9425C46.2584 41.2025 45.3958 40.1508 44.8866 38.9206C44.3774 37.6903 44.2444 36.3367 44.5044 35.0309C44.7645 33.725 45.4058 32.5256 46.3475 31.5843C47.2891 30.6429 48.4888 30.002 49.7947 29.7424C51.1006 29.4828 52.4542 29.6162 53.6843 30.1259C54.9144 30.6355 55.9657 31.4984 56.7054 32.6055C57.4451 33.7126 57.8399 35.0142 57.8399 36.3457C57.8369 38.1305 57.1262 39.8414 55.8637 41.103C54.6012 42.3647 52.8899 43.0742 51.1051 43.076V43.0782ZM51.1051 29.8572C49.8218 29.8572 48.5673 30.2378 47.5003 30.9507C46.4332 31.6637 45.6016 32.6771 45.1105 33.8627C44.6194 35.0483 44.4909 36.3529 44.7413 37.6115C44.9916 38.8702 45.6096 40.0263 46.517 40.9337C47.4245 41.8412 48.5806 42.4591 49.8392 42.7095C51.0979 42.9598 52.4025 42.8313 53.5881 42.3403C54.7737 41.8492 55.7871 41.0175 56.5 39.9505C57.213 38.8835 57.5935 37.629 57.5935 36.3457C57.5923 34.625 56.9084 32.9751 55.6919 31.7582C54.4754 30.5413 52.8257 29.8568 51.1051 29.855V29.8572Z" fill="#263238"/>
<path d="M36.6257 41.5479C36.5481 41.5477 36.4726 41.5229 36.41 41.477C36.3474 41.4311 36.3011 41.3665 36.2776 41.2925C36.0326 40.5306 35.8467 39.7508 35.7217 38.9602C35.7067 38.864 35.7305 38.7658 35.788 38.6872C35.8454 38.6086 35.9317 38.556 36.0279 38.541C36.1241 38.526 36.2223 38.5499 36.3009 38.6073C36.3795 38.6647 36.4321 38.751 36.4471 38.8472C36.5666 39.6001 36.7434 40.3428 36.976 41.0688C37.0024 41.1602 36.9925 41.2583 36.9483 41.3426C36.9041 41.4268 36.8289 41.4907 36.7387 41.5208C36.7029 41.5365 36.6646 41.5457 36.6257 41.5479Z" fill="#263238"/>
<path d="M35.9045 37.2902C35.8087 37.2903 35.7167 37.253 35.6479 37.1864C35.5792 37.1197 35.5391 37.0289 35.5361 36.9331C35.5361 36.7908 35.5361 36.6484 35.5361 36.506C35.5369 33.3106 36.5158 30.192 38.3412 27.5693C40.1667 24.9466 42.7512 22.9455 45.7474 21.835C48.7436 20.7244 52.008 20.5576 55.1018 21.357C58.1957 22.1564 60.9707 23.8836 63.0539 26.3066C63.0854 26.3431 63.1093 26.3855 63.1244 26.4312C63.1395 26.477 63.1454 26.5253 63.1419 26.5734C63.1383 26.6214 63.1253 26.6683 63.1036 26.7113C63.0819 26.7544 63.052 26.7927 63.0155 26.8242C62.979 26.8556 62.9366 26.8796 62.8909 26.8947C62.8451 26.9098 62.7968 26.9157 62.7487 26.9121C62.7007 26.9086 62.6538 26.8956 62.6108 26.8739C62.5677 26.8522 62.5294 26.8223 62.4979 26.7857C60.5131 24.4746 57.8682 22.8266 54.9188 22.0634C51.9695 21.3002 48.8571 21.4584 46.0004 22.5167C43.1436 23.575 40.6794 25.4827 38.9392 27.9833C37.199 30.4838 36.2661 33.4573 36.2661 36.5038C36.2661 36.6394 36.2661 36.775 36.2661 36.9106C36.2676 36.9588 36.2596 37.0069 36.2424 37.0521C36.2252 37.0972 36.1993 37.1385 36.1661 37.1736C36.1329 37.2087 36.0931 37.2368 36.049 37.2565C36.0049 37.2761 35.9573 37.2868 35.909 37.288L35.9045 37.2902Z" fill="#263238"/>
<path d="M63.8018 25.1587L64.2064 28.5035L61.1079 27.1837L63.8018 25.1587Z" fill="#263238"/>
<path d="M79.602 48.2941L81.4575 47.7404L80.9784 45.0284L79.0325 45.1459C78.7785 44.4778 78.4438 43.8433 78.0359 43.2565L79.2585 41.7152L77.3104 39.7761L75.7555 41.0101C74.749 40.3298 73.6111 39.8679 72.4152 39.6541L72.1892 37.6562H69.432L69.206 39.6677C68.5227 39.7974 67.8573 40.0084 67.224 40.2959L65.868 38.775L63.608 40.357L64.5776 42.1491C64.0924 42.6441 63.6675 43.1949 63.312 43.7899L61.3322 43.3176L60.3966 45.8781L62.2046 46.7821C62.1217 47.2651 62.0802 47.7543 62.0803 48.2444C62.0803 48.4523 62.0803 48.6579 62.1051 48.8636L60.2271 49.6049L60.939 52.2649L62.9119 51.9734C63.215 52.612 63.5944 53.2115 64.0419 53.7587L62.9481 55.4153L65.0589 57.1849L66.4827 55.8289C67.1031 56.1858 67.765 56.4652 68.4535 56.6606L68.5054 58.6087L71.2491 58.8483L71.6378 56.9567C72.3574 56.8938 73.0664 56.742 73.7486 56.5047L74.8945 58.0482L77.2788 56.6719L76.5171 54.9136C77.069 54.4425 77.5616 53.9059 77.9839 53.3158L79.8054 53.9215L80.9693 51.4355L79.3263 50.4366C79.5069 49.7366 79.5995 49.0169 79.602 48.2941ZM76.3431 48.2557C76.3431 49.3437 76.0204 50.4073 75.4159 51.312C74.8114 52.2166 73.9521 52.9217 72.9468 53.338C71.9416 53.7543 70.8354 53.8631 69.7683 53.6506C68.7012 53.4382 67.721 52.9141 66.9518 52.1445C66.1826 51.375 65.6588 50.3946 65.4469 49.3274C65.2349 48.2602 65.3441 47.1541 65.7608 46.149C66.1775 45.1439 66.8829 44.2849 67.7878 43.6808C68.6927 43.0766 69.7565 42.7544 70.8445 42.7548C71.5668 42.7548 72.282 42.8971 72.9493 43.1736C73.6165 43.4501 74.2228 43.8553 74.7334 44.3661C75.244 44.8769 75.649 45.4834 75.9252 46.1507C76.2014 46.8181 76.3434 47.5334 76.3431 48.2557Z" fill="#FFC100"/>
<path d="M71.2467 58.986H71.2354L68.494 58.76C68.464 58.7578 68.4359 58.7446 68.415 58.7229C68.3942 58.7012 68.3821 58.6725 68.381 58.6425L68.3313 56.7825C67.6932 56.5947 67.0783 56.3354 66.4985 56.0096L65.1425 57.2955C65.1201 57.3155 65.0911 57.3266 65.0611 57.3266C65.0311 57.3266 65.0021 57.3155 64.9797 57.2955L62.8689 55.5259C62.846 55.5062 62.831 55.4788 62.8269 55.4488C62.8227 55.4189 62.8296 55.3884 62.8463 55.3632L63.8904 53.7812C63.4831 53.2683 63.1337 52.712 62.8486 52.1224L60.9637 52.4026C60.9339 52.4074 60.9033 52.4008 60.8782 52.384C60.853 52.3673 60.8351 52.3416 60.8281 52.3122L60.1162 49.6477C60.1087 49.6186 60.1121 49.5878 60.1259 49.5611C60.1396 49.5344 60.1627 49.5137 60.1908 49.503L61.9852 48.7934C61.9717 48.5922 61.9672 48.4205 61.9672 48.2555C61.9673 47.7885 62.0043 47.3223 62.0779 46.8611L60.3422 45.9955C60.3151 45.9823 60.2939 45.9595 60.2827 45.9315C60.2714 45.9035 60.2709 45.8724 60.2812 45.8441L61.2236 43.2564C61.2347 43.2285 61.2553 43.2055 61.2818 43.1914C61.3083 43.1773 61.339 43.1731 61.3683 43.1795L63.2599 43.6315C63.5948 43.0837 63.988 42.5737 64.4328 42.1106L63.5062 40.3975C63.492 40.371 63.4881 40.3402 63.4952 40.311C63.5023 40.2819 63.5199 40.2563 63.5446 40.2393L65.8046 38.6573C65.8294 38.6399 65.8598 38.6323 65.8899 38.6361C65.92 38.6398 65.9476 38.6546 65.9674 38.6776L67.2556 40.1308C67.8434 39.8707 68.458 39.6759 69.0884 39.55L69.3144 37.629C69.3182 37.5992 69.3327 37.5718 69.3551 37.5519C69.3776 37.532 69.4064 37.5208 69.4365 37.5205H72.1914C72.2212 37.5209 72.2498 37.5321 72.2718 37.5521C72.2939 37.5721 72.3079 37.5994 72.3112 37.629L72.5372 39.5387C73.6882 39.7571 74.784 40.2035 75.7599 40.8517L77.2448 39.6743C77.2673 39.6547 77.2962 39.644 77.3261 39.644C77.356 39.644 77.3849 39.6547 77.4075 39.6743L79.3533 41.6224C79.3733 41.6448 79.3844 41.6737 79.3844 41.7038C79.3844 41.7338 79.3733 41.7628 79.3533 41.7851L78.1872 43.2541C78.5615 43.8029 78.873 44.3919 79.116 45.0101L80.9715 44.8994C81.0017 44.8978 81.0314 44.9073 81.0551 44.926C81.0788 44.9447 81.0949 44.9714 81.1003 45.0011L81.5772 47.7131C81.5828 47.7427 81.5771 47.7733 81.5612 47.7988C81.5453 47.8244 81.5203 47.843 81.4913 47.851L79.724 48.3775C79.715 49.0501 79.6301 49.7196 79.4709 50.3731L81.0303 51.3314C81.0556 51.3473 81.0744 51.3718 81.0831 51.4005C81.0918 51.4291 81.0899 51.46 81.0777 51.4873L79.9138 53.9733C79.901 54.0004 79.8789 54.0219 79.8515 54.0339C79.8241 54.046 79.7932 54.0477 79.7647 54.0388L78.0267 53.4603C77.6321 54.0054 77.1772 54.5042 76.6707 54.9474L77.3962 56.6243C77.408 56.6516 77.4095 56.6822 77.4004 56.7105C77.3912 56.7388 77.372 56.7628 77.3465 56.778L74.9599 58.1543C74.9343 58.1697 74.9039 58.175 74.8747 58.1691C74.8454 58.1633 74.8194 58.1467 74.8017 58.1227L73.7079 56.6491C73.0715 56.8651 72.4126 57.0076 71.7439 57.074L71.3733 58.882C71.3688 58.912 71.3534 58.9392 71.33 58.9584C71.3066 58.9776 71.2769 58.9874 71.2467 58.986ZM68.6229 58.5091L71.1495 58.7351L71.5134 56.9497C71.5191 56.9238 71.5329 56.9004 71.5528 56.883C71.5727 56.8655 71.5977 56.8548 71.6241 56.8525C72.334 56.7885 73.0331 56.6367 73.7056 56.4005C73.7305 56.3919 73.7575 56.3915 73.7827 56.3992C73.8078 56.4069 73.8299 56.4224 73.8457 56.4435L74.926 57.8989L77.1227 56.6311L76.4018 54.9722C76.392 54.9479 76.39 54.9211 76.3961 54.8956C76.4021 54.8701 76.416 54.8471 76.4357 54.8298C76.9816 54.3653 77.4668 53.8337 77.8798 53.2478C77.8958 53.2269 77.9177 53.2113 77.9428 53.2033C77.9678 53.1952 77.9948 53.195 78.0199 53.2026L79.7375 53.7767L80.8088 51.4783L79.2652 50.5291C79.243 50.5151 79.2258 50.4944 79.2161 50.4701C79.2063 50.4457 79.2045 50.4189 79.211 50.3935C79.3879 49.703 79.4783 48.9932 79.4799 48.2804C79.4799 48.2542 79.4886 48.2287 79.5045 48.2079C79.5204 48.1871 79.5428 48.172 79.568 48.1651L81.3173 47.643L80.8766 45.1457L79.0415 45.2565C79.0152 45.2585 78.9891 45.2519 78.9671 45.2376C78.945 45.2233 78.9283 45.2021 78.9194 45.1774C78.6685 44.5191 78.3383 43.8937 77.9363 43.3151C77.9205 43.2943 77.912 43.2689 77.912 43.2428C77.912 43.2167 77.9205 43.1913 77.9363 43.1705L79.0889 41.7151L77.2922 39.9319L75.8232 41.0981C75.8024 41.1139 75.777 41.1224 75.7509 41.1224C75.7248 41.1224 75.6994 41.1139 75.6786 41.0981C74.6874 40.4244 73.5654 39.9669 72.3858 39.7556C72.36 39.751 72.3364 39.7381 72.3185 39.719C72.3006 39.6998 72.2893 39.6755 72.2863 39.6494L72.0603 37.7578H69.5404L69.3144 39.6607C69.3123 39.6867 69.3016 39.7112 69.284 39.7305C69.2664 39.7497 69.2429 39.7625 69.2172 39.7669C68.5439 39.8954 67.8883 40.1041 67.2646 40.3884C67.2406 40.3988 67.2138 40.4014 67.1883 40.3957C67.1627 40.39 67.1396 40.3764 67.1222 40.3568L65.8453 38.9194L63.7684 40.3726L64.6859 42.0676C64.6979 42.0909 64.7024 42.1173 64.6987 42.1432C64.6951 42.1691 64.6835 42.1932 64.6656 42.2123C64.1866 42.6999 63.7678 43.2432 63.4181 43.8304C63.4039 43.8525 63.3833 43.8698 63.3591 43.8799C63.3349 43.89 63.3081 43.8924 63.2825 43.8869L61.4089 43.4349L60.5434 45.817L62.2564 46.6735C62.2798 46.6856 62.2988 46.7048 62.3106 46.7284C62.3224 46.7519 62.3263 46.7786 62.322 46.8046C62.2413 47.281 62.2004 47.7633 62.1999 48.2465C62.1999 48.4295 62.1999 48.6239 62.2248 48.8567C62.2263 48.8825 62.2197 48.9081 62.2059 48.93C62.1921 48.9518 62.1719 48.9689 62.148 48.9787L60.3716 49.6816L61.027 52.1291L62.8915 51.8534C62.9177 51.8496 62.9444 51.8543 62.9676 51.867C62.9908 51.8796 63.0093 51.8994 63.0203 51.9235C63.3178 52.5525 63.6896 53.1435 64.1277 53.684C64.1431 53.705 64.1515 53.7303 64.1515 53.7563C64.1515 53.7824 64.1431 53.8077 64.1277 53.8287L63.0949 55.3948L65.0362 57.0243L66.3922 55.7519C66.411 55.7334 66.4353 55.7216 66.4615 55.7184C66.4876 55.7151 66.5141 55.7205 66.5369 55.7338C67.1476 56.0865 67.7997 56.3621 68.4782 56.5542C68.5034 56.561 68.5257 56.5756 68.542 56.5959C68.5582 56.6162 68.5676 56.6412 68.5686 56.6672L68.6229 58.5091ZM70.8444 53.8716C69.7323 53.8716 68.6452 53.5418 67.7205 52.924C66.7958 52.3061 66.0752 51.428 65.6496 50.4005C65.224 49.3731 65.1126 48.2425 65.3296 47.1518C65.5466 46.061 66.0821 45.0591 66.8685 44.2728C67.6548 43.4864 68.6567 42.9508 69.7475 42.7339C70.8382 42.5169 71.9688 42.6283 72.9962 43.0539C74.0237 43.4794 74.9018 44.2001 75.5197 45.1248C76.1375 46.0495 76.4673 47.1366 76.4673 48.2487C76.4673 49.7406 75.8751 51.1715 74.8208 52.2271C73.7665 53.2827 72.3363 53.8766 70.8444 53.8784V53.8716ZM70.8444 42.8699C69.7805 42.8695 68.7403 43.1846 67.8555 43.7753C66.9707 44.3661 66.2809 45.206 65.8735 46.1888C65.466 47.1716 65.3592 48.2532 65.5664 49.2967C65.7737 50.3402 66.2858 51.2988 67.038 52.0513C67.7901 52.8038 68.7485 53.3163 69.792 53.524C70.8354 53.7317 71.917 53.6253 72.9 53.2183C73.883 52.8113 74.7232 52.1219 75.3143 51.2373C75.9055 50.3527 76.221 49.3127 76.221 48.2487C76.2174 46.8243 75.6496 45.4593 74.642 44.4525C73.6343 43.4457 72.2689 42.8791 70.8444 42.8767V42.8699Z" fill="#263238"/>
<path d="M70.7561 61.6187C67.7176 61.6112 64.7755 60.5514 62.4302 58.6196C62.3553 58.5576 62.3081 58.4683 62.299 58.3715C62.2899 58.2746 62.3196 58.1782 62.3816 58.1032C62.4437 58.0283 62.5329 57.9811 62.6298 57.972C62.7266 57.9629 62.8231 57.9926 62.898 58.0546C65.0703 59.8505 67.7912 60.8499 70.6095 60.887C73.4277 60.9241 76.174 59.9967 78.3928 58.2586C80.6115 56.5205 82.1695 54.0762 82.8083 51.331C83.447 48.5859 83.1282 45.7048 81.9046 43.1658C81.8795 43.1219 81.8637 43.0732 81.8581 43.0229C81.8526 42.9726 81.8575 42.9217 81.8725 42.8734C81.8875 42.8251 81.9123 42.7804 81.9453 42.7421C81.9784 42.7037 82.0189 42.6726 82.0645 42.6507C82.1101 42.6288 82.1598 42.6164 82.2103 42.6145C82.2609 42.6126 82.3113 42.6211 82.3584 42.6396C82.4056 42.658 82.4484 42.6859 82.4842 42.7216C82.5201 42.7573 82.5482 42.8 82.5668 42.8471C83.5283 44.844 83.967 47.0523 83.842 49.2651C83.7169 51.4779 83.0322 53.6227 81.8519 55.4986C80.6716 57.3745 79.0344 58.9201 77.0937 59.9905C75.153 61.0609 72.9724 61.6211 70.7561 61.6187Z" fill="#263238"/>
<path d="M80.9942 44.3003L80.9829 40.9307L83.9051 42.6053L80.9942 44.3003Z" fill="#263238"/>
<path d="M39.7013 93.6387C46.1506 93.6387 51.3788 92.3233 51.3788 90.7007C51.3788 89.0781 46.1506 87.7627 39.7013 87.7627C33.2521 87.7627 28.0239 89.0781 28.0239 90.7007C28.0239 92.3233 33.2521 93.6387 39.7013 93.6387Z" fill="#263238"/>
<path d="M64.3014 88.2553C64.3014 88.1243 64.3172 87.9932 64.3172 87.8576C64.3172 84.6936 61.3453 82.1353 57.6773 82.1353C54.0093 82.1353 51.0352 84.6981 51.0352 87.8576C51.0352 87.9932 51.0352 88.1243 51.0532 88.2553H64.3014Z" fill="white"/>
<path d="M64.3013 88.3796H51.0532C51.0223 88.3797 50.9926 88.3681 50.97 88.3471C50.9473 88.3261 50.9335 88.2974 50.9312 88.2666C50.9199 88.1129 50.9131 87.9818 50.9131 87.8575C50.9131 84.6348 53.9483 82.0132 57.6773 82.0132C61.4063 82.0132 64.4414 84.6348 64.4414 87.8575C64.4414 87.9818 64.4414 88.1107 64.4234 88.2666C64.4206 88.2972 64.4066 88.3257 64.384 88.3465C64.3615 88.3674 64.332 88.3792 64.3013 88.3796ZM51.1662 88.14H64.1838C64.1838 88.0406 64.1838 87.9502 64.1838 87.8643C64.1838 84.7772 61.2594 82.264 57.666 82.264C54.0726 82.264 51.1459 84.7772 51.1459 87.8643C51.1572 87.9457 51.1617 88.0338 51.1662 88.14Z" fill="#263238"/>
<path d="M64.3014 88.7998C64.3014 88.6687 64.3172 88.5353 64.3172 88.402C64.3172 85.238 61.3453 82.6797 57.6773 82.6797C54.0093 82.6797 51.0352 85.2425 51.0352 88.402C51.0352 88.5353 51.0352 88.6687 51.0532 88.7998H64.3014Z" fill="#263238"/>
<path d="M64.3013 88.9218H51.0532C51.0227 88.9219 50.9933 88.9106 50.9707 88.8901C50.9481 88.8696 50.934 88.8414 50.9312 88.811C50.9199 88.6551 50.9131 88.5263 50.9131 88.402C50.9131 85.1792 53.9483 82.5576 57.6773 82.5576C61.4063 82.5576 64.4414 85.1792 64.4414 88.402C64.4414 88.5263 64.4414 88.6551 64.4234 88.811C64.4205 88.8414 64.4064 88.8696 64.3839 88.8901C64.3613 88.9106 64.3318 88.9219 64.3013 88.9218ZM51.1662 88.6777H64.1838C64.1838 88.5783 64.1838 88.4879 64.1838 88.402C64.1838 85.3148 61.2594 82.8017 57.666 82.8017C54.0726 82.8017 51.1459 85.3148 51.1459 88.402C51.1572 88.4879 51.1617 88.5783 51.1662 88.6777Z" fill="#263238"/>
<path d="M43.4077 51.8782L47.9752 59.0989L52.9946 56.2739L53.2997 58.7238C53.2997 58.7238 48.4656 62.5274 47.7921 62.8279C47.1186 63.1285 45.8937 62.9523 45.5886 62.5839C45.2835 62.2155 42.7139 53.1099 42.7139 53.1099C42.7139 53.1099 42.2619 51.3901 43.4077 51.8782Z" fill="white"/>
<path d="M46.9311 63.1106C46.339 63.1106 45.7266 62.9479 45.4938 62.6586C45.1796 62.2812 42.8564 54.0706 42.5942 53.1259C42.5648 53.0197 42.3411 52.1021 42.723 51.7699C42.8925 51.6253 43.1389 51.6185 43.4553 51.7541C43.4781 51.7634 43.4972 51.7801 43.5095 51.8015L48.0159 58.9251L52.9337 56.1656C52.9514 56.1561 52.9712 56.1511 52.9913 56.1511C53.0114 56.1511 53.0312 56.1561 53.049 56.1656C53.0669 56.175 53.0824 56.1885 53.0942 56.205C53.106 56.2214 53.1137 56.2405 53.1168 56.2605L53.4219 58.7081C53.4247 58.7289 53.422 58.7501 53.4141 58.7695C53.4061 58.789 53.3932 58.806 53.3767 58.8189C53.1778 58.9748 48.5199 62.627 47.8419 62.9366C47.5535 63.0565 47.2435 63.1157 46.9311 63.1106ZM43.0507 51.9123C42.9903 51.9098 42.931 51.929 42.8835 51.9665C42.6823 52.1405 42.7434 52.7372 42.8292 53.0717C43.853 56.7012 45.4576 62.2156 45.6836 62.5117C45.9503 62.8303 47.121 63.0044 47.7402 62.7219C48.3595 62.4394 52.6354 59.1059 53.1642 58.6787L52.8885 56.4797L48.034 59.2121C48.0066 59.2272 47.9744 59.2311 47.9441 59.2232C47.9138 59.2152 47.8877 59.1958 47.8713 59.1691L43.3242 51.9801C43.2378 51.9414 43.1452 51.9184 43.0507 51.9123Z" fill="#263238"/>
<path d="M52.7507 55.9171L49.2612 58.1206L51.1167 61.7321L54.0343 58.55L53.7293 55.1826L52.7507 55.9171Z" fill="#FFC100"/>
<path d="M51.1168 61.8541H51.101C51.0817 61.8507 51.0633 61.843 51.0473 61.8317C51.0313 61.8204 51.018 61.8056 51.0083 61.7886L49.1529 58.1726C49.1384 58.1453 49.1349 58.1137 49.1428 58.0839C49.1508 58.0541 49.1697 58.0285 49.1958 58.0121L52.6807 55.8222L53.6548 55.0922C53.6721 55.0787 53.6928 55.0701 53.7146 55.0674C53.7364 55.0646 53.7585 55.0678 53.7787 55.0766C53.7988 55.0854 53.8162 55.0995 53.829 55.1173C53.8418 55.1352 53.8495 55.1562 53.8514 55.1781L54.1565 58.5455C54.1587 58.5623 54.157 58.5794 54.1515 58.5955C54.146 58.6115 54.1369 58.6261 54.1249 58.6381L51.2072 61.8225C51.195 61.8336 51.1808 61.8421 51.1652 61.8475C51.1497 61.853 51.1332 61.8552 51.1168 61.8541ZM49.4218 58.1635L51.1462 61.5196L53.9079 58.507L53.6277 55.4131L52.8231 56.0143L49.4218 58.1635Z" fill="#263238"/>
<path d="M38.3521 68.7765L46.8722 77.3396C46.8722 77.3396 44.7298 79.36 43.1997 81.0754C41.6697 82.7907 39.1611 84.992 39.1611 84.992L40.0177 86.0316C40.0177 86.0316 49.9346 78.5736 50.4137 78.0741C50.8928 77.5746 50.9041 76.6051 50.7821 75.3214C50.66 74.0377 47.0485 63.9355 47.0485 63.9355L38.3521 68.7765Z" fill="#263238"/>
<path d="M40.0179 86.1559C39.9997 86.1557 39.9818 86.1516 39.9654 86.1438C39.949 86.136 39.9345 86.1247 39.9229 86.1107L39.0664 85.0688C39.0462 85.0443 39.0363 85.0129 39.0388 84.9813C39.0413 84.9496 39.0561 84.9202 39.08 84.8993C39.1048 84.879 41.6021 82.6822 43.1095 80.994C44.4475 79.4956 46.2736 77.7441 46.6984 77.3373L38.2664 68.8623C38.2531 68.8492 38.2429 68.8332 38.2367 68.8156C38.2304 68.798 38.2282 68.7792 38.2302 68.7606C38.2332 68.7418 38.2405 68.7238 38.2515 68.7082C38.2624 68.6925 38.2768 68.6795 38.2935 68.6702L47.008 63.8293C47.0244 63.8221 47.0421 63.8184 47.06 63.8184C47.0779 63.8184 47.0956 63.8221 47.112 63.8293C47.1285 63.8362 47.1434 63.8463 47.1559 63.8591C47.1683 63.872 47.178 63.8872 47.1843 63.9039C47.3312 64.3152 50.8003 74.0332 50.9246 75.3169C51.0557 76.7 51.0331 77.6583 50.5224 78.1713C50.0116 78.6843 40.5083 85.8349 40.1037 86.14C40.0777 86.1548 40.0475 86.1604 40.0179 86.1559ZM39.3399 85.0055L40.0472 85.8643C41.0597 85.1004 49.8941 78.4402 50.3461 77.9882C50.7981 77.5362 50.7981 76.6051 50.6783 75.3327C50.5653 74.1575 47.4307 65.3209 46.999 64.1118L38.5624 68.8058L46.9696 77.2537C46.9921 77.2776 47.005 77.309 47.0058 77.3419C47.004 77.3749 46.9903 77.4062 46.9674 77.43C46.9448 77.4503 44.8113 79.464 43.3017 81.1567C41.9366 82.6732 39.7919 84.5965 39.324 85.0055H39.3399Z" fill="#263238"/>
<path d="M42.9082 79.9048L44.9738 83.5095L40.7883 85.6994C40.641 86.1819 40.641 86.6973 40.7883 87.1797C41.046 87.8894 41.6923 88.5967 41.7533 88.9877C41.8144 89.3787 41.8822 89.5663 41.046 89.5663C40.2098 89.5663 39.308 88.8589 38.856 88.3436C38.404 87.8283 38.3407 86.4113 37.952 85.8328C37.5633 85.2542 36.9215 84.4157 37.4367 83.6428C37.952 82.8699 38.9803 82.7388 38.9803 82.7388L42.9082 79.9048Z" fill="#FFC100"/>
<path d="M41.0416 89.6838C40.115 89.6838 39.1726 88.8905 38.7613 88.4204C38.4991 88.1221 38.3635 87.5684 38.2324 87.0328C38.1611 86.6395 38.0324 86.2588 37.8505 85.9028L37.7669 85.7785C37.3623 85.1819 36.8086 84.366 37.3352 83.5773C37.8279 82.836 38.7477 82.6574 38.933 82.6281L42.836 79.8121C42.8499 79.7993 42.8664 79.7897 42.8843 79.7838C42.9023 79.778 42.9212 79.776 42.94 79.7782C42.9566 79.7817 42.9723 79.7888 42.986 79.7989C42.9997 79.809 43.011 79.822 43.0191 79.837L45.0802 83.453C45.0883 83.4673 45.0934 83.483 45.0954 83.4993C45.0973 83.5156 45.096 83.5321 45.0915 83.5479C45.087 83.5636 45.0793 83.5781 45.0688 83.5906C45.0583 83.6031 45.0452 83.6132 45.0305 83.6202L40.8902 85.7853C40.7639 86.2291 40.7686 86.7 40.9037 87.1413C41.0519 87.4974 41.2376 87.8368 41.4574 88.1538C41.6421 88.3984 41.7835 88.6728 41.8755 88.9651V89.0058C41.9072 89.2001 41.9366 89.3674 41.8236 89.5007C41.7106 89.6341 41.4936 89.6838 41.0416 89.6838ZM42.8699 80.0833L39.0528 82.836C39.0366 82.849 39.017 82.8569 38.9963 82.8586C38.9963 82.8586 38.0155 82.9919 37.5386 83.7061C37.1047 84.357 37.5838 85.0621 37.968 85.6339L38.0539 85.7604C38.2545 86.1412 38.3955 86.5505 38.472 86.974C38.594 87.4803 38.7228 88.0046 38.9443 88.2577C39.4415 88.8272 40.3116 89.4397 41.0416 89.4397C41.3829 89.4397 41.584 89.4058 41.6382 89.3403C41.6925 89.2747 41.6586 89.1843 41.6382 89.0442V89.0035C41.5487 88.7457 41.4198 88.5033 41.2563 88.2849C41.0257 87.9527 40.8317 87.5966 40.6777 87.2227C40.5197 86.7141 40.5197 86.1695 40.6777 85.661C40.6818 85.6457 40.6892 85.6316 40.6994 85.6195C40.7095 85.6074 40.7222 85.5976 40.7365 85.5909L44.8045 83.4598L42.8699 80.0833Z" fill="#263238"/>
<path d="M41.602 89.4958C40.698 89.2359 39.8595 88.5127 39.2855 87.7239C38.6437 86.8425 38.8041 85.317 38.1555 84.7566C37.7623 84.4108 37.7306 83.7328 37.7645 83.2627C37.6361 83.3698 37.5234 83.4946 37.43 83.6333C36.9148 84.4063 37.5589 85.2447 37.9453 85.8233C38.3318 86.4018 38.3973 87.8188 38.8493 88.3341C39.3013 88.8494 40.2053 89.5568 41.0393 89.5568C41.2289 89.567 41.419 89.5464 41.602 89.4958Z" fill="#263238"/>
<path d="M41.0416 89.6835C40.115 89.6835 39.1726 88.8902 38.7613 88.4201C38.4991 88.1218 38.3635 87.5681 38.2324 87.0325C38.1611 86.6392 38.0324 86.2585 37.8505 85.9025L37.7669 85.7782C37.3623 85.1816 36.8086 84.3657 37.3352 83.577C37.4351 83.4277 37.5561 83.2937 37.6945 83.1792C37.7129 83.1641 37.7352 83.1545 37.7589 83.1517C37.7825 83.1489 37.8065 83.153 37.8279 83.1634C37.8497 83.1743 37.8677 83.1916 37.8794 83.213C37.8911 83.2344 37.896 83.2589 37.8934 83.2832C37.8663 83.6651 37.8731 84.3522 38.2437 84.6753C38.6144 84.9985 38.7274 85.5613 38.8562 86.1647C38.9714 86.7026 39.0822 87.2585 39.385 87.6631C40.0178 88.5332 40.8382 89.1614 41.645 89.3897C41.6703 89.3961 41.6929 89.4106 41.7092 89.431C41.7255 89.4514 41.7347 89.4766 41.7354 89.5027C41.7357 89.5286 41.7281 89.5539 41.7136 89.5754C41.699 89.5968 41.6782 89.6132 41.6541 89.6225C41.4547 89.6767 41.2477 89.6973 41.0416 89.6835ZM37.6516 83.5815C37.6143 83.6233 37.5803 83.6679 37.5499 83.7148C37.116 84.3657 37.5951 85.0708 37.9793 85.6426L38.0652 85.7692C38.2658 86.15 38.4068 86.5593 38.4833 86.9828C38.6053 87.489 38.7341 88.0134 38.9556 88.2665C39.4528 88.836 40.3229 89.4485 41.0529 89.4485H41.1026C40.3405 89.0703 39.6854 88.5069 39.1974 87.81C38.872 87.358 38.7454 86.7817 38.6279 86.228C38.5104 85.6743 38.4019 85.1341 38.0923 84.872C37.742 84.551 37.6426 84.0335 37.6403 83.5725L37.6516 83.5815Z" fill="#263238"/>
<path d="M37.6514 67.7705C37.6514 67.7705 39.3034 70.8125 40.5894 72.5866C42.3024 74.9528 45.4032 78.5643 45.4032 78.5643L44.915 90.0112L46.445 90.1942C46.445 90.1942 49.2 78.9326 49.261 78.0128C49.322 77.093 45.2811 68.4643 45.2811 68.4643" fill="#263238"/>
<path d="M46.4451 90.3162H46.4293L44.8993 90.1331C44.8685 90.1292 44.8404 90.1136 44.8207 90.0897C44.801 90.0658 44.7911 90.0353 44.7931 90.0043L45.279 78.6071C44.949 78.2184 42.0946 74.8736 40.49 72.6588C39.2154 70.8983 37.552 67.8608 37.552 67.8292C37.5368 67.8007 37.5335 67.7673 37.5428 67.7364C37.5521 67.7055 37.5733 67.6795 37.6017 67.6642C37.6156 67.6563 37.631 67.6512 37.6469 67.6493C37.6628 67.6474 37.6789 67.6487 37.6942 67.6531C37.7096 67.6575 37.724 67.665 37.7364 67.675C37.7489 67.6851 37.7592 67.6976 37.7667 67.7117C37.7848 67.7433 39.4323 70.7672 40.7047 72.5142C42.3952 74.851 45.4824 78.4489 45.514 78.4851C45.5326 78.509 45.5429 78.5384 45.5434 78.5687L45.0417 89.9026L46.3525 90.0608C46.6304 88.9127 49.0825 78.8557 49.139 78.006C49.1865 77.2782 46.2914 70.9096 45.1705 68.514C45.1572 68.4845 45.1559 68.4511 45.1669 68.4207C45.1779 68.3903 45.2002 68.3654 45.2292 68.3512C45.2438 68.3444 45.2595 68.3405 45.2756 68.3397C45.2916 68.3389 45.3077 68.3413 45.3228 68.3468C45.3379 68.3523 45.3518 68.3607 45.3637 68.3715C45.3756 68.3824 45.3852 68.3954 45.392 68.41C45.8078 69.2959 49.4441 77.0974 49.3831 78.0195C49.3221 78.9416 46.6711 89.7602 46.5626 90.2235C46.5565 90.25 46.5415 90.2736 46.5201 90.2905C46.4988 90.3073 46.4723 90.3164 46.4451 90.3162Z" fill="#263238"/>
<path d="M49.2338 78.6478C49.2012 78.6478 49.1699 78.635 49.1467 78.6122C49.1234 78.5894 49.1101 78.5583 49.1095 78.5257C49.0959 75.2985 47.7535 72.7266 46.3252 70.0033L46.0607 69.497C46.0529 69.4804 46.0488 69.4623 46.0488 69.4439C46.0488 69.4256 46.0529 69.4074 46.0607 69.3908L46.7817 67.7546C46.7881 67.7397 46.7973 67.7263 46.8089 67.715C46.8205 67.7038 46.8341 67.6949 46.8491 67.6889C46.8641 67.6829 46.8802 67.68 46.8963 67.6802C46.9125 67.6804 46.9284 67.6838 46.9433 67.6902C46.9581 67.6966 46.9716 67.7058 46.9828 67.7174C46.9941 67.7289 47.003 67.7426 47.0089 67.7576C47.0149 67.7726 47.0179 67.7887 47.0177 67.8048C47.0175 67.821 47.0141 67.8369 47.0077 67.8518L46.3297 69.4338L46.5557 69.8858C47.9953 72.6362 49.3536 75.2329 49.3694 78.519C49.3694 78.5515 49.3566 78.5828 49.3338 78.6061C49.311 78.6293 49.2799 78.6427 49.2473 78.6433L49.2338 78.6478Z" fill="white"/>
<path d="M46.2735 83.8459H46.2599C46.2279 83.8424 46.1986 83.8265 46.1783 83.8015C46.1579 83.7765 46.1483 83.7446 46.1515 83.7125C46.1515 83.7125 46.1808 83.4119 46.2351 82.9848C46.2368 82.9688 46.2416 82.9533 46.2494 82.9393C46.2572 82.9252 46.2677 82.9128 46.2804 82.9029C46.293 82.893 46.3075 82.8858 46.323 82.8816C46.3386 82.8774 46.3548 82.8764 46.3707 82.8786C46.3867 82.8802 46.4022 82.8851 46.4162 82.8929C46.4303 82.9007 46.4426 82.9112 46.4526 82.9238C46.4625 82.9365 46.4697 82.951 46.4739 82.9665C46.4781 82.9821 46.4791 82.9983 46.4769 83.0142C46.4249 83.4391 46.3955 83.7351 46.3955 83.7374C46.3917 83.7671 46.3773 83.7945 46.3548 83.8145C46.3324 83.8344 46.3035 83.8456 46.2735 83.8459Z" fill="white"/>
<path d="M46.463 82.2934H46.4472C46.4312 82.2914 46.4158 82.2863 46.4018 82.2782C46.3878 82.2702 46.3756 82.2594 46.3659 82.2466C46.3562 82.2337 46.3492 82.219 46.3453 82.2033C46.3414 82.1877 46.3407 82.1714 46.3433 82.1555C46.4969 81.0594 46.6416 80.3678 46.7749 80.1012C46.8148 80.043 46.8422 79.9773 46.8554 79.9081C46.8686 79.8388 46.8674 79.7676 46.8518 79.6989C46.7907 79.5701 46.5647 79.5136 46.3455 79.4593C46.3031 79.453 46.2634 79.4348 46.231 79.4068C46.1986 79.3788 46.1748 79.3421 46.1625 79.3011C46.1173 79.1248 46.3207 78.9395 46.6145 78.6593C46.8276 78.4812 47.0174 78.2769 47.1795 78.0513C47.2134 77.9948 47.2043 77.9677 47.1998 77.9587C47.1591 77.8344 46.8337 77.6988 46.5218 77.57C46.0703 77.4085 45.6476 77.1758 45.2698 76.8807C44.6144 76.3066 41.6877 71.7505 40.4605 69.8182C40.4432 69.7908 40.4374 69.7577 40.4441 69.7261C40.4509 69.6944 40.4697 69.6666 40.4966 69.6487C40.5103 69.6399 40.5255 69.634 40.5414 69.6312C40.5573 69.6284 40.5736 69.6288 40.5894 69.6324C40.6052 69.636 40.6201 69.6427 40.6333 69.652C40.6464 69.6614 40.6576 69.6733 40.6661 69.6871C43.2109 73.6918 44.9918 76.3134 45.4302 76.6931C45.7874 76.9712 46.1873 77.1895 46.6145 77.3394C47.0484 77.5202 47.3625 77.6491 47.4371 77.8796C47.4526 77.929 47.4567 77.9813 47.4493 78.0325C47.4419 78.0837 47.423 78.1327 47.3942 78.1756C47.2213 78.4213 47.0169 78.6432 46.7862 78.8356C46.6487 78.9517 46.5231 79.0812 46.4111 79.222C46.6823 79.2898 46.9625 79.3621 47.0687 79.5949C47.1032 79.6966 47.114 79.8049 47.1003 79.9114C47.0866 80.018 47.0487 80.12 46.9896 80.2096C46.906 80.3746 46.7636 80.8537 46.5806 82.1871C46.5764 82.2157 46.5624 82.242 46.5409 82.2614C46.5195 82.2808 46.4919 82.2921 46.463 82.2934Z" fill="white"/>
<path d="M40.3274 69.4925C40.3065 69.4927 40.2859 69.4873 40.2676 69.477C40.2494 69.4667 40.2342 69.4518 40.2235 69.4338L39.9432 68.9818C39.9339 68.9683 39.9273 68.953 39.9239 68.9369C39.9206 68.9208 39.9205 68.9042 39.9238 68.8881C39.927 68.872 39.9335 68.8567 39.9427 68.8431C39.952 68.8295 39.964 68.818 39.9778 68.8092C39.9917 68.8003 40.0072 68.7944 40.0234 68.7917C40.0396 68.789 40.0562 68.7896 40.0722 68.7935C40.0882 68.7974 40.1032 68.8044 40.1164 68.8143C40.1296 68.8241 40.1406 68.8365 40.1489 68.8507L40.4291 69.3027C40.438 69.3162 40.444 69.3313 40.447 69.3471C40.4499 69.3629 40.4497 69.3792 40.4464 69.395C40.443 69.4107 40.4366 69.4257 40.4274 69.4389C40.4182 69.4522 40.4065 69.4635 40.393 69.4722C40.3736 69.4853 40.3508 69.4924 40.3274 69.4925Z" fill="white"/>
<path d="M44.696 83.9863L48.7097 84.3253L47.6204 89.9753C47.7716 90.2987 47.9891 90.5866 48.259 90.8202C48.5289 91.0539 48.8449 91.228 49.1866 91.3313C50.3415 91.6703 50.8183 91.8737 50.8183 92.4184C50.8183 92.963 50.3415 93.0964 48.4385 93.302C46.5356 93.5077 44.5604 92.7596 44.5604 92.7596C44.5604 92.7596 43.6767 92.6218 43.6089 92.0116C43.5411 91.4014 44.4926 89.6974 44.4926 89.6974L44.696 83.9863Z" fill="#FFC100"/>
<path d="M47.7448 93.46C46.6465 93.4439 45.5582 93.2501 44.522 92.886C44.4 92.8656 43.5547 92.6939 43.4801 92.0339C43.4123 91.4237 44.2146 89.9434 44.3638 89.6745L44.5672 83.9906C44.5679 83.9737 44.572 83.9572 44.5794 83.942C44.5868 83.9269 44.5973 83.9134 44.6101 83.9025C44.6224 83.8917 44.6367 83.8835 44.6523 83.8784C44.6678 83.8734 44.6843 83.8716 44.7005 83.8731L48.7143 84.2121C48.7312 84.2133 48.7476 84.2182 48.7624 84.2264C48.7772 84.2346 48.7901 84.2459 48.8002 84.2595C48.8103 84.2734 48.8176 84.2891 48.8215 84.3058C48.8253 84.3225 48.8258 84.3398 48.8228 84.3567L47.7493 89.948C47.8954 90.2472 48.1014 90.5133 48.3545 90.7298C48.6075 90.9463 48.9023 91.1087 49.2205 91.2068C50.3189 91.53 50.9404 91.7447 50.9404 92.4114C50.9404 93.0781 50.294 93.2204 48.4544 93.4171C48.2188 93.4439 47.9819 93.4582 47.7448 93.46ZM44.8068 84.1172L44.6056 89.7016C44.606 89.7216 44.6005 89.7413 44.5898 89.7581C44.3322 90.2101 43.67 91.5277 43.722 91.9978C43.7785 92.5085 44.5627 92.6374 44.5717 92.6374H44.5943C44.6147 92.6374 46.5628 93.3719 48.416 93.173C50.3053 92.9718 50.676 92.843 50.676 92.4114C50.676 91.9797 50.2895 91.7831 49.1301 91.4418C48.7702 91.3335 48.4374 91.1497 48.1541 90.9026C47.8708 90.6555 47.6434 90.3509 47.4871 90.009C47.4804 89.9869 47.4804 89.9633 47.4871 89.9412L48.5493 84.429L44.8068 84.1172Z" fill="#263238"/>
<path d="M48.4383 93.3017C50.2463 93.1096 50.7661 92.9762 50.8136 92.4948C49.7171 92.7489 48.5861 92.8191 47.4665 92.7028C46.146 92.5375 44.8617 92.1557 43.6652 91.5728C43.6198 91.7142 43.6007 91.8628 43.6087 92.0112C43.6765 92.6214 44.5602 92.7593 44.5602 92.7593C44.5602 92.7593 46.5332 93.5073 48.4383 93.3017Z" fill="#263238"/>
<path d="M47.7446 93.46C46.6464 93.4439 45.5581 93.2501 44.5219 92.8859C44.3998 92.8656 43.5546 92.6938 43.48 92.0339C43.4713 91.8705 43.4912 91.7068 43.5388 91.5503C43.5437 91.533 43.5523 91.5169 43.564 91.5033C43.5757 91.4896 43.5902 91.4787 43.6066 91.4712C43.623 91.4628 43.6412 91.4585 43.6597 91.4585C43.6781 91.4585 43.6963 91.4628 43.7128 91.4712C44.8976 92.0466 46.1688 92.4237 47.4757 92.5876C48.5808 92.7063 49.698 92.6368 50.7798 92.382C50.7989 92.3776 50.8188 92.378 50.8377 92.3831C50.8566 92.3883 50.874 92.3979 50.8883 92.4113C50.9025 92.424 50.9136 92.4397 50.9207 92.4574C50.9278 92.475 50.9306 92.4941 50.929 92.513C50.8702 93.1142 50.2013 93.243 48.443 93.4306C48.2109 93.4525 47.9778 93.4623 47.7446 93.46ZM43.749 91.7559C43.7306 91.8367 43.7245 91.9197 43.7309 92.0023C43.7874 92.513 44.5716 92.6419 44.5806 92.6419H44.6032C44.6236 92.6419 46.5717 93.3764 48.4249 93.1775C49.9165 93.0193 50.4589 92.9018 50.6329 92.6554C49.5882 92.883 48.5135 92.9387 47.4508 92.8204C46.1684 92.6635 44.9189 92.3042 43.749 91.7559Z" fill="#263238"/>
<path d="M37.6019 53.3651C37.6019 53.3651 32.9576 55.7336 31.8886 56.8953C30.8197 58.0569 31.6626 59.1236 32.074 60.3305C32.4853 61.5373 37.9341 68.4506 38.3522 68.7761C38.7703 69.1015 40.906 68.08 43.7875 66.8257C46.669 65.5714 47.3629 65.0606 47.3629 64.3646C47.3629 63.6685 43.6384 52.3866 43.4079 51.8781C43.1773 51.3696 38.8088 52.6578 37.6019 53.3651Z" fill="white"/>
<path d="M38.5938 68.9592C38.4817 68.9665 38.3704 68.9363 38.2774 68.8733C37.9497 68.618 32.4014 61.6413 31.9494 60.3712C31.868 60.1452 31.7686 59.9057 31.6736 59.6797C31.2827 58.7576 30.8781 57.8016 31.7889 56.8117C32.8556 55.6523 37.3056 53.372 37.5338 53.2567C38.6774 52.5991 42.5194 51.4216 43.3194 51.6747C43.3602 51.6846 43.3984 51.7032 43.4312 51.7294C43.464 51.7555 43.4906 51.7886 43.5093 51.8262C43.7669 52.3912 47.4756 63.6595 47.4756 64.3624C47.4756 65.1443 46.7253 65.6732 43.8257 66.9365C43.4279 67.1083 43.0437 67.2778 42.6776 67.4405C40.4854 68.41 39.2062 68.957 38.5938 68.9592ZM43.0415 51.8713C42.081 51.8713 38.8107 52.807 37.6627 53.4714C37.6175 53.494 33.0251 55.8422 31.9855 56.9744C31.181 57.8491 31.52 58.6514 31.9155 59.5825C32.0127 59.8085 32.1121 60.048 32.1957 60.2898C32.6319 61.5509 38.1101 68.4259 38.4333 68.6767C38.7565 68.9276 40.6097 68.0891 42.594 67.2145L43.7443 66.7105C46.4563 65.5285 47.2473 64.9997 47.2473 64.3624C47.2473 63.7657 43.611 52.6104 43.3014 51.9324C43.2629 51.8894 43.1658 51.8713 43.0415 51.8713Z" fill="#263238"/>
<path d="M36.3247 62.6021L39.4367 62.7264L35.2557 61.9083C35.2557 61.9083 32.329 60.5998 32.329 59.0426C32.329 57.4855 34.137 56.9273 34.137 56.9273L38.5598 55.743L38.8717 53.0039C38.8016 53.0039 38.6005 53.0039 38.3202 53.022C38.0722 53.1213 37.8307 53.236 37.597 53.3655C37.597 53.3655 32.9527 55.734 31.8838 56.8956C30.8148 58.0573 31.6578 59.124 32.0691 60.3308C32.4804 61.5377 37.9293 68.451 38.3474 68.7764C38.7655 69.1019 40.9012 68.0804 43.7827 66.8261L43.8731 66.7854C43.0459 66.9526 40.3904 67.6035 39.5565 66.8893C38.6864 66.1413 36.8806 64.2745 36.8806 64.2745L43.6041 64.3355L36.3247 62.6021Z" fill="#FFC100"/>
<path opacity="0.5" d="M36.3247 62.6021L39.4367 62.7264L35.2557 61.9083C35.2557 61.9083 32.329 60.5998 32.329 59.0426C32.329 57.4855 34.137 56.9273 34.137 56.9273L38.5598 55.743L38.8717 53.0039C38.8016 53.0039 38.6005 53.0039 38.3202 53.022C38.0722 53.1213 37.8307 53.236 37.597 53.3655C37.597 53.3655 32.9527 55.734 31.8838 56.8956C30.8148 58.0573 31.6578 59.124 32.0691 60.3308C32.4804 61.5377 37.9293 68.451 38.3474 68.7764C38.7655 69.1019 40.9012 68.0804 43.7827 66.8261L43.8731 66.7854C43.0459 66.9526 40.3904 67.6035 39.5565 66.8893C38.6864 66.1413 36.8806 64.2745 36.8806 64.2745L43.6041 64.3355L36.3247 62.6021Z" fill="white"/>
<path d="M36.3022 54.0523C36.8634 54.8905 37.5903 55.605 38.4379 56.1518C39.9228 57.0807 40.8991 56.8953 41.4098 55.9642C41.8279 55.2049 41.159 52.9539 40.9013 52.1606C39.6199 52.5087 38.2097 53.0127 37.6017 53.3652C37.6017 53.3652 37.0639 53.6409 36.3022 54.0523Z" fill="#263238"/>
<path d="M40.1396 56.8842C39.6334 56.8842 39.0413 56.6741 38.3723 56.256C37.5118 55.6977 36.7731 54.9713 36.2004 54.1203C36.1906 54.1064 36.1838 54.0905 36.1807 54.0737C36.1776 54.0569 36.1781 54.0396 36.1824 54.0231C36.1866 54.0065 36.1943 53.9909 36.2047 53.9773C36.2152 53.9637 36.2284 53.9523 36.2434 53.944C36.9937 53.5372 37.5406 53.266 37.5451 53.2547C38.1373 52.9134 39.5068 52.414 40.8673 52.0411C40.8979 52.0332 40.9303 52.0372 40.958 52.0523C40.9857 52.0674 41.0066 52.0925 41.0165 52.1224C41.3126 53.0264 41.9521 55.2344 41.516 56.0254C41.4198 56.2209 41.2836 56.394 41.1162 56.5334C40.9487 56.6728 40.7538 56.7754 40.5442 56.8345C40.412 56.8685 40.2761 56.8852 40.1396 56.8842ZM36.4784 54.0954C37.0239 54.8716 37.7147 55.5347 38.5124 56.0481C39.3125 56.5475 39.9792 56.726 40.4944 56.5972C40.6717 56.5458 40.8361 56.4577 40.9771 56.3385C41.1181 56.2194 41.2324 56.0719 41.3126 55.9057C41.6945 55.2164 41.0866 53.1055 40.8312 52.31C39.543 52.6671 38.2299 53.1485 37.6672 53.4717C37.6514 53.4762 37.1632 53.7248 36.4784 54.0954Z" fill="#263238"/>
<path d="M40.5263 51.6004C40.4221 51.7205 40.3436 51.8607 40.2958 52.0123C40.248 52.1639 40.2318 52.3237 40.2483 52.4818C40.3409 52.9474 40.8065 54.7576 40.759 55.3611C40.7116 55.9645 40.1556 56.0594 38.994 55.5871C37.8323 55.1147 37.091 53.7791 36.9035 53.4514C36.7159 53.1237 35.9746 51.1755 35.9746 51.1755L36.4854 50.8501C36.4854 50.8501 36.9984 51.6388 38.2504 51.6388C39.5025 51.6388 40.3884 50.988 40.5263 51.2682C40.6641 51.5484 40.5263 51.6004 40.5263 51.6004Z" fill="white"/>
<path d="M40.1509 56.012C39.735 55.9833 39.3277 55.8799 38.9485 55.7069C38.1711 55.3973 37.4547 54.6695 36.8128 53.5463L36.797 53.5192C36.6094 53.1892 35.893 51.3044 35.8614 51.2253C35.8516 51.199 35.8509 51.1703 35.8595 51.1436C35.8682 51.1169 35.8855 51.0939 35.9088 51.0784L36.4196 50.753C36.447 50.7357 36.48 50.7299 36.5117 50.7366C36.5433 50.7434 36.5711 50.7622 36.5891 50.7891C36.6094 50.8185 37.084 51.5236 38.2502 51.5236C38.7905 51.5079 39.3248 51.4049 39.8322 51.2185C40.23 51.0874 40.5102 50.9925 40.6322 51.2185C40.6672 51.2728 40.6902 51.334 40.6996 51.398C40.7089 51.4619 40.7045 51.5271 40.6865 51.5892C40.6697 51.6314 40.6406 51.6677 40.6029 51.6931C40.5137 51.7974 40.4466 51.9186 40.4054 52.0495C40.3642 52.1804 40.3499 52.3182 40.3633 52.4547C40.3836 52.5542 40.4198 52.7124 40.465 52.9067C40.6322 53.6435 40.917 54.8752 40.8763 55.3679C40.8765 55.4731 40.8506 55.5767 40.8009 55.6694C40.7512 55.7621 40.6793 55.841 40.5916 55.899C40.4586 55.9784 40.3056 56.0176 40.1509 56.012ZM36.1258 51.2321C36.275 51.6231 36.8535 53.1237 37.0095 53.3972L37.0253 53.4243C37.6377 54.5 38.3157 55.1916 39.0389 55.4809C39.9316 55.8357 40.3068 55.7928 40.4673 55.6933C40.5217 55.655 40.5657 55.6038 40.5952 55.5442C40.6248 55.4846 40.6391 55.4185 40.6368 55.3521C40.6729 54.9001 40.3836 53.639 40.23 52.9632C40.1848 52.7666 40.1486 52.6062 40.1283 52.5112C40.1076 52.3343 40.1243 52.155 40.1773 51.9848C40.2302 51.8147 40.3182 51.6576 40.4356 51.5236C40.4437 51.5135 40.4537 51.5051 40.465 51.4988C40.4661 51.4402 40.4496 51.3828 40.4175 51.3338C40.2432 51.346 40.0721 51.3872 39.9113 51.4558C39.3784 51.6507 38.8174 51.7575 38.2502 51.7722C37.9148 51.7876 37.5801 51.7285 37.2702 51.5992C36.9603 51.4698 36.683 51.2735 36.458 51.0242L36.1258 51.2321Z" fill="#263238"/>
<path d="M38.3883 53.6296L40.5263 51.5956L40.4585 51.2137C40.2008 51.121 39.3759 51.6408 38.2504 51.6408C36.9984 51.6408 36.4854 50.8521 36.4854 50.8521L35.9746 51.1775C35.9746 51.1775 36.7181 53.1279 36.9035 53.4533C37.0888 53.7788 37.8323 55.1257 38.994 55.589C39.1115 55.6365 39.22 55.6772 39.3285 55.7111L38.3883 53.6296Z" fill="#FFC100"/>
<path opacity="0.5" d="M38.3883 53.6296L40.5263 51.5956L40.4585 51.2137C40.2008 51.121 39.3759 51.6408 38.2504 51.6408C36.9984 51.6408 36.4854 50.8521 36.4854 50.8521L35.9746 51.1775C35.9746 51.1775 36.7181 53.1279 36.9035 53.4533C37.0888 53.7788 37.8323 55.1257 38.994 55.589C39.1115 55.6365 39.22 55.6772 39.3285 55.7111L38.3883 53.6296Z" fill="white"/>
<path d="M34.0718 49.6479L35.0458 50.9022L36.3001 50.3914L35.3713 48.6738L34.0718 49.6479Z" fill="#263238"/>
<path d="M35.0459 51.0239C35.0277 51.0241 35.0097 51.0201 34.9933 51.0122C34.9768 51.0044 34.9624 50.9929 34.951 50.9787L33.9747 49.7199C33.9646 49.7068 33.9572 49.6919 33.953 49.676C33.9487 49.6601 33.9476 49.6435 33.9498 49.6272C33.955 49.5951 33.9719 49.5661 33.9973 49.5458L35.2991 48.5718C35.313 48.5609 35.3291 48.5533 35.3463 48.5494C35.3634 48.5455 35.3813 48.5454 35.3985 48.5492C35.4157 48.5529 35.4318 48.5603 35.4458 48.5708C35.4599 48.5813 35.4715 48.5948 35.4799 48.6102L36.4087 50.3278C36.4222 50.3604 36.4222 50.3969 36.4087 50.4295C36.4032 50.4454 36.3943 50.4599 36.3826 50.472C36.3709 50.4842 36.3567 50.4935 36.3409 50.4996L35.0866 51.0103C35.074 51.0173 35.0602 51.0219 35.0459 51.0239ZM34.2436 49.6679L35.0866 50.7504L36.1285 50.3255L35.3307 48.852L34.2436 49.6679Z" fill="#263238"/>
<path d="M35.744 50.1717C35.744 50.1717 34.3496 48.3118 34.388 47.7558C34.4264 47.1998 37.3373 45.0867 38.1283 45.2269C38.9193 45.367 40.1623 47.7309 40.1623 47.7309L40.8606 48.4293L40.6346 49.0802C40.6346 49.0802 41.8256 50.7277 41.6855 50.9605C41.5454 51.1933 40.4787 51.8419 39.1769 52.1221C37.8752 52.4024 36.6231 51.5639 36.6231 51.5639C36.6231 51.5639 35.7417 51.9345 35.3688 51.704C34.9959 51.4735 34.4874 50.635 34.5801 50.4497C34.6727 50.2644 35.744 50.1717 35.744 50.1717Z" fill="white"/>
<path d="M38.6254 52.2896C37.9145 52.2665 37.2217 52.0602 36.614 51.6907C36.388 51.7766 35.6738 52.0252 35.3077 51.7969C34.9416 51.5687 34.3269 50.6669 34.4715 50.3844C34.5596 50.2059 35.0501 50.111 35.5179 50.059C35.1563 49.5618 34.2319 48.2352 34.2749 47.7334C34.302 47.3944 35.0275 46.7888 35.4569 46.4565C36.1349 45.939 37.5564 44.9875 38.1689 45.1005C38.9779 45.2429 40.1147 47.3379 40.2797 47.6521L40.9577 48.3301C40.9746 48.3464 40.9862 48.3674 40.991 48.3903C40.9958 48.4133 40.9937 48.4372 40.9848 48.4589L40.7746 49.0488C41.5702 50.1539 41.9046 50.8138 41.7962 51.0104C41.6334 51.2794 40.5306 51.9438 39.2085 52.2286C39.0167 52.2688 38.8213 52.2893 38.6254 52.2896ZM36.6253 51.4308C36.6494 51.4306 36.673 51.4377 36.6931 51.4511C36.7066 51.4511 37.9203 52.2557 39.1542 51.9913C40.4854 51.7065 41.4798 51.0579 41.5837 50.8861C41.5995 50.7325 41.0549 49.8556 40.5373 49.1414C40.5255 49.1254 40.5179 49.1067 40.5151 49.0869C40.5124 49.0672 40.5146 49.0471 40.5215 49.0284L40.7272 48.4499L40.0831 47.808C40.0743 47.7984 40.0667 47.7878 40.0605 47.7764C39.7237 47.1345 38.7045 45.4418 38.1146 45.3356C37.7485 45.2723 36.6456 45.8486 35.606 46.6509C34.8738 47.2136 34.5303 47.6182 34.519 47.7538C34.4873 48.1267 35.3122 49.3832 35.8411 50.0861C35.8541 50.1038 35.8622 50.1246 35.8646 50.1464C35.867 50.1683 35.8635 50.1903 35.8546 50.2104C35.8458 50.2304 35.8317 50.2475 35.8137 50.2599C35.7958 50.2722 35.7747 50.2794 35.7529 50.2805C35.2444 50.3257 34.754 50.4251 34.6862 50.5065C34.6636 50.6375 35.0817 51.3743 35.4365 51.5958C35.6964 51.7585 36.3654 51.537 36.5665 51.4466C36.5844 51.4363 36.6046 51.4308 36.6253 51.4308Z" fill="#263238"/>
<path d="M39.179 52.1109C39.6883 51.9991 40.1838 51.8324 40.6571 51.6137C40.6132 51.6118 40.5694 51.6072 40.526 51.6001C39.9768 51.4894 38.388 51.1323 37.7733 50.3639C37.5024 49.9984 37.1933 49.6628 36.8512 49.3627L40.291 47.8418L40.1689 47.7197C40.1689 47.7197 38.9259 45.3558 38.1349 45.2156C37.3439 45.0755 34.4398 47.1864 34.3946 47.7446C34.3494 48.3028 35.7506 50.1583 35.7506 50.1583C35.7506 50.1583 34.6816 50.2532 34.589 50.4385C34.4963 50.6238 35.0071 51.46 35.3777 51.6928C35.7484 51.9256 36.632 51.5527 36.632 51.5527C36.632 51.5527 37.8795 52.3889 39.179 52.1109Z" fill="#FFC100"/>
<path opacity="0.5" d="M39.179 52.1109C39.6883 51.9991 40.1838 51.8324 40.6571 51.6137C40.6132 51.6118 40.5694 51.6072 40.526 51.6001C39.9768 51.4894 38.388 51.1323 37.7733 50.3639C37.5024 49.9984 37.1933 49.6628 36.8512 49.3627L40.291 47.8418L40.1689 47.7197C40.1689 47.7197 38.9259 45.3558 38.1349 45.2156C37.3439 45.0755 34.4398 47.1864 34.3946 47.7446C34.3494 48.3028 35.7506 50.1583 35.7506 50.1583C35.7506 50.1583 34.6816 50.2532 34.589 50.4385C34.4963 50.6238 35.0071 51.46 35.3777 51.6928C35.7484 51.9256 36.632 51.5527 36.632 51.5527C36.632 51.5527 37.8795 52.3889 39.179 52.1109Z" fill="white"/>
<path d="M51.7202 50.5312L56.8775 84.3905L57.5262 84.2979L52.5542 50.4837C52.2793 50.4006 51.9839 50.4174 51.7202 50.5312Z" fill="#263238"/>
<path d="M56.8774 84.5238C56.8479 84.5241 56.8193 84.5138 56.7969 84.4947C56.7745 84.4755 56.7597 84.449 56.7554 84.4198L51.6003 50.5492C51.5964 50.5213 51.6021 50.4929 51.6165 50.4687C51.6309 50.4445 51.6531 50.4258 51.6794 50.4159C51.9728 50.2895 52.3022 50.2742 52.606 50.3729C52.6252 50.3812 52.6419 50.3943 52.6546 50.4109C52.6672 50.4276 52.6754 50.4472 52.6783 50.4678L57.6503 84.2797C57.6528 84.2959 57.6521 84.3124 57.6483 84.3283C57.6444 84.3442 57.6374 84.3592 57.6277 84.3724C57.6074 84.3977 57.5784 84.4146 57.5464 84.4198L56.8955 84.5125L56.8774 84.5238ZM51.8579 50.6238L56.9791 84.2526L57.3882 84.1938L52.4478 50.5786C52.2506 50.542 52.0473 50.5576 51.8579 50.6238Z" fill="#263238"/>
<path d="M51.8599 54.7124C51.8599 54.7124 50.8384 54.4864 50.8384 55.083C50.8384 55.6797 50.7458 56.708 51.1164 56.9408C51.487 57.1735 51.9526 57.0809 52.0001 56.5227C52.0475 55.9644 52.0001 54.5723 51.8599 54.7124Z" fill="#FFC100"/>
<path d="M51.5008 57.1781C51.3402 57.1755 51.1835 57.1277 51.0488 57.0402C50.6759 56.8142 50.6917 56.0526 50.7076 55.3881C50.7076 55.2774 50.7076 55.1734 50.7076 55.0785C50.7049 55.0048 50.7194 54.9316 50.75 54.8645C50.7806 54.7974 50.8265 54.7384 50.8838 54.6921C51.1618 54.4661 51.6771 54.5474 51.8376 54.5791C51.8676 54.5691 51.9001 54.5691 51.9302 54.5791C52.2014 54.7034 52.1133 56.5023 52.1133 56.5204C52.1123 56.6398 52.0798 56.7568 52.0191 56.8595C51.9583 56.9623 51.8716 57.0473 51.7675 57.1057C51.6854 57.1502 51.5941 57.1749 51.5008 57.1781ZM51.4488 54.7847C51.3071 54.7739 51.1656 54.8079 51.0443 54.8819C51.0152 54.9052 50.9924 54.9354 50.9778 54.9697C50.9632 55.004 50.9573 55.0414 50.9607 55.0785C50.9607 55.1734 50.9607 55.2819 50.9607 55.3927C50.9494 55.9034 50.9336 56.6741 51.1867 56.8323C51.2559 56.8827 51.3366 56.9149 51.4215 56.926C51.5064 56.9371 51.5928 56.9266 51.6726 56.8956C51.7385 56.8554 51.7927 56.7985 51.8296 56.7306C51.8666 56.6627 51.8849 56.5863 51.8828 56.5091C51.9212 55.9465 51.9007 55.3815 51.8217 54.8231C51.6989 54.7992 51.574 54.7878 51.4488 54.7892V54.7847Z" fill="#263238"/>
<path d="M52.4593 57.239C52.4593 57.239 52.4231 57.9689 52.5632 58.0413C52.7033 58.1136 54.5769 57.9689 54.647 57.8153C54.717 57.6616 54.6831 57.0853 54.543 57.0491C54.4029 57.013 52.6333 57.0582 52.4593 57.239Z" fill="#FFC100"/>
<path d="M52.8297 58.1839C52.7208 58.1915 52.6115 58.18 52.5065 58.15C52.3687 58.0777 52.3099 57.7703 52.337 57.2347C52.3373 57.2053 52.3486 57.1771 52.3687 57.1556C52.6082 56.9048 54.4772 56.9138 54.5744 56.9296C54.6085 56.941 54.6397 56.9599 54.6655 56.9849C54.6913 57.01 54.7112 57.0405 54.7236 57.0743C54.8174 57.3287 54.8292 57.606 54.7575 57.8675C54.7397 57.8955 54.7166 57.9197 54.6895 57.9387C54.6623 57.9577 54.6317 57.9712 54.5993 57.9783C54.0179 58.1068 53.425 58.1757 52.8297 58.1839ZM52.6286 57.9331C53.2722 57.9436 53.915 57.8822 54.545 57.75C54.5765 57.5567 54.5595 57.3587 54.4953 57.1737C54.2693 57.1443 52.8591 57.1963 52.5788 57.3093C52.562 57.5185 52.5788 57.7291 52.6286 57.9331Z" fill="#263238"/>
<path d="M51.9075 56.2897C51.9075 56.2897 51.8623 57.2185 52.0386 57.3112C52.2149 57.4039 54.6082 57.2185 54.6964 57.0332C54.7845 56.8479 54.7393 56.1044 54.563 56.0592C54.3868 56.014 52.129 56.0592 51.9075 56.2897Z" fill="#FFC100"/>
<path d="M52.364 57.4583C52.2355 57.4678 52.1062 57.4548 51.9821 57.4199C51.7787 57.3137 51.7561 56.7419 51.7832 56.2899C51.7849 56.2604 51.7969 56.2324 51.8171 56.2108C52.1041 55.9102 54.4726 55.9125 54.5947 55.9441C54.6333 55.957 54.6684 55.9786 54.6974 56.0072C54.7264 56.0358 54.7485 56.0707 54.7619 56.1091C54.876 56.4239 54.8918 56.766 54.8071 57.0899C54.7652 57.1547 54.6994 57.2002 54.624 57.2165C53.8804 57.3705 53.1235 57.4515 52.364 57.4583ZM52.0273 56.3554C51.9972 56.6425 52.0233 56.9326 52.1041 57.2097C52.3053 57.2685 54.328 57.1103 54.5901 56.9634C54.6512 56.7894 54.6014 56.247 54.5156 56.1701C54.2986 56.1249 52.355 56.1972 52.0273 56.3554Z" fill="#263238"/>
<path d="M51.815 55.2684C51.815 55.2684 51.7676 56.1973 51.9529 56.2899C52.1382 56.3826 54.6468 56.1973 54.7395 56.012C54.8321 55.8266 54.7869 55.0831 54.6016 55.0356C54.4163 54.9882 52.0455 55.0356 51.815 55.2684Z" fill="#FFC100"/>
<path d="M52.2897 56.4256C52.1588 56.4325 52.0276 56.4241 51.8987 56.4007C51.6863 56.2945 51.6727 55.7227 51.6908 55.2707C51.6928 55.2402 51.7056 55.2113 51.727 55.1894C52.0275 54.8888 54.5045 54.8933 54.631 54.925C54.6722 54.9382 54.7098 54.9608 54.7407 54.991C54.7717 55.0212 54.7953 55.0582 54.8096 55.099C54.9254 55.4113 54.9396 55.7522 54.8503 56.073C54.7305 56.3081 53.0694 56.4256 52.2897 56.4256ZM51.9326 55.3363C51.919 55.7363 51.9552 56.125 52.0162 56.186C52.2174 56.2471 54.3689 56.0843 54.6378 55.9397C54.6988 55.7702 54.6491 55.221 54.5587 55.1509C54.3666 55.1103 52.2806 55.1736 51.9326 55.3363Z" fill="#263238"/>
<path d="M51.6748 54.2398C51.6748 54.2398 51.6273 55.1687 51.8149 55.2613C52.0025 55.354 54.5088 55.1687 54.6015 54.9833C54.6942 54.798 54.6467 54.0545 54.4614 54.007C54.2761 53.9596 51.9076 54.0138 51.6748 54.2398Z" fill="#FFC100"/>
<path d="M52.1495 55.404C52.0168 55.4082 51.884 55.3968 51.754 55.3702C51.5415 55.2639 51.528 54.6922 51.5483 54.2402C51.5498 54.2101 51.5628 54.1818 51.5845 54.161C51.8828 53.8605 54.3598 53.865 54.4863 53.8966C54.5275 53.9099 54.565 53.9325 54.596 53.9627C54.627 53.9929 54.6506 54.0298 54.6649 54.0707C54.7806 54.383 54.7949 54.7238 54.7055 55.0447C54.5903 55.2843 52.9292 55.404 52.1495 55.404ZM51.7947 54.3147C51.7638 54.6006 51.7915 54.8897 51.876 55.1645C52.0794 55.2255 54.2309 55.0605 54.4999 54.9182C54.5609 54.7487 54.4999 54.1995 54.4208 54.1294C54.24 54.0887 52.1427 54.1498 51.7947 54.3147Z" fill="#263238"/>
<path d="M31.4478 58.5498C31.511 59.951 32.7247 60.9477 33.4818 61.4336C33.8258 61.655 34.2275 61.7698 34.6366 61.7635L48.1379 61.585V58.6131L33.5541 56.5791C33.5541 56.5791 32.3947 56.6243 32.0828 57.4967" fill="white"/>
<path d="M34.605 61.8854C34.1817 61.8867 33.7672 61.765 33.4118 61.5351C32.6614 61.0515 31.3936 60.0209 31.3258 58.5542C31.3245 58.5216 31.3362 58.4898 31.3582 58.4657C31.3801 58.4416 31.4107 58.4271 31.4433 58.4254C31.4594 58.4245 31.4755 58.4268 31.4907 58.4323C31.5059 58.4377 31.5198 58.4462 31.5316 58.4572C31.5434 58.4682 31.5529 58.4814 31.5595 58.4961C31.566 58.5109 31.5696 58.5268 31.5699 58.5429C31.6331 59.8989 32.8332 60.873 33.5451 61.3295C33.8673 61.5416 34.2465 61.6504 34.6322 61.6414L48.0227 61.4651V58.7192L33.5428 56.6852C33.5541 56.6852 32.4852 56.7417 32.2049 57.5236C32.1996 57.5388 32.1913 57.5527 32.1806 57.5647C32.1699 57.5766 32.1569 57.5864 32.1424 57.5933C32.1279 57.6002 32.1122 57.6042 32.0962 57.6051C32.0802 57.6059 32.0641 57.6036 32.049 57.5982C32.0186 57.5865 31.9938 57.5635 31.98 57.5341C31.9661 57.5046 31.9641 57.4709 31.9744 57.44C32.3089 56.5021 33.5044 56.4434 33.5564 56.4434L48.1605 58.4774C48.1899 58.4817 48.2167 58.4964 48.2362 58.5187C48.2557 58.5411 48.2665 58.5697 48.2667 58.5994V61.5849C48.2667 61.6168 48.2542 61.6475 48.2318 61.6704C48.2094 61.6932 48.1789 61.7063 48.147 61.7069L34.6344 61.8854H34.605Z" fill="#263238"/>
<path d="M33.5609 56.5698C33.5609 56.5698 32.4015 56.615 32.0896 57.4874L31.4478 58.5496C31.511 59.9508 32.7247 60.9474 33.4818 61.4333C33.8258 61.6548 34.2275 61.7696 34.6366 61.7633L48.1379 61.5848V59.3248C47.8576 59.0038 47.5909 58.71 47.4079 58.5089L47.0983 58.4637L46.4044 60.8457C46.4044 60.8457 38.3091 60.6604 35.8819 60.2242C33.4546 59.7881 32.7066 59.2909 32.6433 58.1699C32.6304 57.8439 32.7096 57.5209 32.8719 57.2379C33.0342 56.9549 33.273 56.7233 33.5609 56.5698Z" fill="#FFC100"/>
<path opacity="0.5" d="M33.5609 56.5698C33.5609 56.5698 32.4015 56.615 32.0896 57.4874L31.4478 58.5496C31.511 59.9508 32.7247 60.9474 33.4818 61.4333C33.8258 61.6548 34.2275 61.7696 34.6366 61.7633L48.1379 61.5848V59.3248C47.8576 59.0038 47.5909 58.71 47.4079 58.5089L47.0983 58.4637L46.4044 60.8457C46.4044 60.8457 38.3091 60.6604 35.8819 60.2242C33.4546 59.7881 32.7066 59.2909 32.6433 58.1699C32.6304 57.8439 32.7096 57.5209 32.8719 57.2379C33.0342 56.9549 33.273 56.7233 33.5609 56.5698Z" fill="white"/>
<path d="M47.1683 58.2426L47.0757 62.6021L51.5279 61.6801C51.5279 61.6801 53.8037 61.8654 54.3145 61.8202C54.8252 61.775 55.2433 61.0292 55.2433 60.6585V59.8223C55.3449 59.7471 55.4273 59.6489 55.4838 59.5358C55.5404 59.4227 55.5695 59.2979 55.5688 59.1715C55.5236 58.8008 54.78 58.568 54.78 58.568C54.78 58.568 52.6443 58.1025 52.0386 58.2426C51.433 58.3827 47.1683 58.2426 47.1683 58.2426Z" fill="#FFC100"/>
<path d="M47.0757 62.7307C47.0476 62.7311 47.0204 62.7215 46.9988 62.7036C46.9847 62.6916 46.9734 62.6767 46.9656 62.6599C46.9578 62.6431 46.9537 62.6249 46.9536 62.6064L47.0463 58.2401C47.048 58.2077 47.0617 58.1771 47.0847 58.1542C47.0957 58.142 47.1094 58.1326 47.1247 58.1267C47.14 58.1208 47.1565 58.1186 47.1728 58.1203C48.6464 58.1678 51.5527 58.231 52.0183 58.1203C52.642 57.9757 54.7303 58.4277 54.8116 58.4457C54.893 58.4638 55.6433 58.7169 55.6976 59.1531C55.7053 59.2931 55.6796 59.4329 55.6226 59.5611C55.5657 59.6892 55.479 59.8019 55.3699 59.8899V60.6696C55.3699 61.0764 54.9179 61.8968 54.328 61.9533C53.8331 61.9985 51.7674 61.8335 51.5392 61.8154L47.096 62.7397L47.0757 62.7307ZM47.2881 58.3689L47.2022 62.4572L51.5098 61.5532H51.5459C51.5685 61.5532 53.8059 61.7363 54.3099 61.6934C54.7506 61.6527 55.128 60.9702 55.128 60.6538V59.8176C55.128 59.7986 55.1325 59.7799 55.1412 59.763C55.1498 59.7461 55.1624 59.7315 55.1778 59.7204C55.1778 59.7204 55.4919 59.4763 55.4557 59.1825C55.4264 58.9565 54.9676 58.7486 54.7506 58.6808C54.1743 58.5565 52.5471 58.2469 52.0748 58.3576C51.512 58.4909 48.009 58.3915 47.2881 58.3689Z" fill="#263238"/>
<path d="M33.4682 50.2061L41.2697 46.6308C41.2697 46.6308 41.5952 46.4048 41.0844 46.3505C40.5704 46.3486 40.0573 46.3956 39.5521 46.4907C39.5521 46.4907 37.9046 44.147 37.5792 44.0544C37.2537 43.9617 37.0684 44.0544 37.0232 44.242L36.9757 44.4273C36.9757 44.4273 34.3044 45.1889 33.2806 46.5359C32.2569 47.8828 33.4682 50.2061 33.4682 50.2061Z" fill="#FFC100"/>
<path d="M33.4682 50.3279C33.4459 50.328 33.4239 50.3219 33.4048 50.3103C33.3857 50.2988 33.3701 50.2822 33.3597 50.2624C33.3078 50.1652 32.128 47.8555 33.1835 46.4633C34.1394 45.2045 36.4379 44.461 36.874 44.3299L36.9034 44.2101C36.9154 44.1578 36.9381 44.1086 36.97 44.0654C37.0019 44.0222 37.0423 43.9861 37.0887 43.9592C37.1702 43.9208 37.2586 43.899 37.3486 43.8952C37.4387 43.8913 37.5285 43.9054 37.6131 43.9366C37.9408 44.0316 39.1679 45.7446 39.6064 46.3571C40.0972 46.2641 40.5962 46.2209 41.0957 46.2283C41.2449 46.2418 41.446 46.278 41.489 46.4339C41.5319 46.5899 41.3737 46.7074 41.3421 46.73H41.3217L33.5179 50.3053C33.5038 50.3174 33.4866 50.3252 33.4682 50.3279ZM37.3486 44.14C37.3014 44.1382 37.2546 44.1491 37.213 44.1717C37.1945 44.1821 37.1785 44.1963 37.166 44.2135C37.1535 44.2306 37.1449 44.2503 37.1407 44.2711L37.0955 44.4564C37.0901 44.4773 37.0793 44.4964 37.0643 44.5119C37.0492 44.5273 37.0304 44.5386 37.0096 44.5446C36.9825 44.5446 34.3632 45.313 33.3801 46.6102C32.5348 47.7244 33.3123 49.5844 33.5247 50.0454L41.2087 46.5243L41.2336 46.5017C41.182 46.4865 41.129 46.4767 41.0754 46.4724C40.5727 46.4714 40.071 46.5175 39.577 46.6102C39.554 46.6145 39.5303 46.6121 39.5087 46.6033C39.4871 46.5944 39.4684 46.5796 39.455 46.5605C38.6662 45.4305 37.7374 44.2417 37.5475 44.1717C37.4829 44.1524 37.416 44.1418 37.3486 44.14Z" fill="#263238"/>
<path d="M37.2355 47.912C37.2149 47.9117 37.1946 47.9065 37.1765 47.8966C37.1584 47.8868 37.1429 47.8726 37.1315 47.8555C37.0592 47.7425 36.4219 46.7255 36.4219 46.2509C36.4219 45.8192 37.0072 45.4531 37.2649 45.313L36.9733 44.7299C36.9589 44.6999 36.957 44.6655 36.9681 44.6341C36.9791 44.6027 37.0021 44.577 37.0321 44.5626C37.062 44.5483 37.0965 44.5464 37.1279 44.5574C37.1592 44.5684 37.1849 44.5914 37.1993 44.6214L37.5474 45.313C37.5599 45.3434 37.5599 45.3775 37.5474 45.4079C37.5425 45.4234 37.5343 45.4377 37.5234 45.4498C37.5125 45.4619 37.499 45.4715 37.4841 45.4779C37.2739 45.5796 36.6705 45.9299 36.6705 46.2509C36.6705 46.5989 37.1564 47.4306 37.3485 47.7221C37.3655 47.7498 37.371 47.783 37.3638 47.8147C37.3566 47.8464 37.3373 47.874 37.3101 47.8916C37.2876 47.9053 37.2617 47.9123 37.2355 47.912Z" fill="#263238"/>
<path d="M34.7001 48.9879C34.6782 48.9874 34.6567 48.9814 34.6377 48.9703C34.6187 48.9593 34.6028 48.9435 34.5917 48.9246C34.5668 48.8771 33.9634 47.7742 33.9634 47.1731C33.984 46.76 34.1432 46.3659 34.4154 46.0544C34.4382 46.0317 34.4691 46.019 34.5013 46.019C34.5334 46.019 34.5643 46.0317 34.5871 46.0544C34.6099 46.0776 34.6227 46.1088 34.6227 46.1414C34.6227 46.1739 34.6099 46.2052 34.5871 46.2284C34.3558 46.4948 34.2184 46.8299 34.1962 47.1821C34.1962 47.72 34.7905 48.8025 34.7951 48.8138C34.803 48.8279 34.8082 48.8434 34.8101 48.8595C34.812 48.8755 34.8107 48.8918 34.8063 48.9074C34.8019 48.9229 34.7944 48.9375 34.7844 48.9501C34.7743 48.9628 34.7618 48.9733 34.7476 48.9811C34.7323 48.9862 34.7162 48.9885 34.7001 48.9879Z" fill="#263238"/>
<path d="M33.5475 49.6407C33.5219 49.6383 33.4976 49.628 33.4783 49.6111C33.4589 49.5941 33.4454 49.5715 33.4396 49.5465C33.4339 49.5214 33.4362 49.4952 33.4462 49.4715C33.4562 49.4479 33.4735 49.428 33.4955 49.4147L37.9906 47.34C38.0206 47.3262 38.0548 47.3249 38.0857 47.3363C38.1167 47.3478 38.1418 47.371 38.1556 47.401C38.1694 47.431 38.1707 47.4652 38.1593 47.4961C38.1478 47.5271 38.1245 47.5522 38.0946 47.566L33.5972 49.6429C33.5806 49.6453 33.5637 49.6445 33.5475 49.6407Z" fill="#263238"/>
<path d="M64.3014 89.2698C64.3014 89.1387 64.3172 89.0054 64.3172 88.872C64.3172 85.708 61.3453 83.1475 57.6773 83.1475C54.0093 83.1475 51.0352 85.7103 51.0352 88.872C51.0352 89.0054 51.0352 89.1387 51.0532 89.2698H64.3014Z" fill="white"/>
<path d="M64.3013 89.3986H51.0532C51.0223 89.3987 50.9926 89.3871 50.97 89.3662C50.9473 89.3452 50.9335 89.3164 50.9312 89.2856C50.9199 89.132 50.9131 89.0031 50.9131 88.8788C50.9131 85.6561 53.9483 83.0322 57.6773 83.0322C61.4063 83.0322 64.4414 85.6561 64.4414 88.8788C64.4414 89.0009 64.4414 89.132 64.4234 89.2856C64.4206 89.3162 64.4066 89.3447 64.384 89.3656C64.3615 89.3864 64.332 89.3982 64.3013 89.3986ZM51.1662 89.1546H64.1838C64.1838 89.0529 64.1838 88.9647 64.1838 88.8788C64.1838 85.7894 61.2594 83.2786 57.666 83.2786C54.0726 83.2786 51.1459 85.7894 51.1459 88.8788C51.1572 88.9647 51.1617 89.0551 51.1662 89.1546Z" fill="#263238"/>
<path d="M64.3014 89.8216C64.3014 89.6882 64.3172 89.5571 64.3172 89.4238C64.3172 86.2598 61.3453 83.6992 57.6773 83.6992C54.0093 83.6992 51.0352 86.2621 51.0352 89.4238C51.0352 89.5571 51.0352 89.6882 51.0532 89.8216H64.3014Z" fill="white"/>
<path d="M64.3013 89.948H51.0532C51.0223 89.9481 50.9926 89.9364 50.97 89.9155C50.9473 89.8945 50.9335 89.8657 50.9312 89.835C50.9199 89.6813 50.9131 89.5502 50.9131 89.4282C50.9131 86.2031 53.9483 83.5815 57.6773 83.5815C61.4063 83.5815 64.4414 86.2031 64.4414 89.4282C64.4414 89.5502 64.4414 89.679 64.4234 89.835C64.4206 89.8655 64.4066 89.894 64.384 89.9149C64.3615 89.9358 64.332 89.9475 64.3013 89.948ZM51.1662 89.7016H64.1838C64.1838 89.6022 64.1838 89.5118 64.1838 89.4282C64.1838 86.3387 61.2594 83.8256 57.666 83.8256C54.0726 83.8256 51.1572 86.332 51.1572 89.4236C51.1572 89.5095 51.1617 89.5977 51.1662 89.6971V89.7016Z" fill="#263238"/>
<path d="M57.6773 83.6992C55.4173 83.6992 53.4217 84.6733 52.2217 86.1604L53.7788 87.3898C54.2247 86.8365 54.7889 86.3902 55.4298 86.0835C56.0708 85.7768 56.7724 85.6177 57.483 85.6177C58.1935 85.6177 58.8951 85.7768 59.5361 86.0835C60.1771 86.3902 60.7412 86.8365 61.1871 87.3898L63.2211 86.2598C62.0233 84.7162 59.987 83.6992 57.6773 83.6992Z" fill="#FFC100"/>
<path d="M61.187 87.5141C61.1685 87.5143 61.1502 87.5102 61.1337 87.5019C61.1172 87.4937 61.1029 87.4815 61.0921 87.4666C60.6576 86.9275 60.1079 86.4926 59.4833 86.1937C58.8588 85.8949 58.1752 85.7398 57.4828 85.7398C56.7905 85.7398 56.1069 85.8949 55.4823 86.1937C54.8577 86.4926 54.308 86.9275 53.8736 87.4666C53.8536 87.4915 53.8247 87.5075 53.793 87.5113C53.7613 87.5151 53.7294 87.5064 53.7041 87.4869L52.1447 86.2552C52.1195 86.2352 52.1032 86.2059 52.0995 86.1739C52.097 86.1414 52.1067 86.1092 52.1266 86.0835C53.3922 84.515 55.4669 83.5771 57.6772 83.5771C59.9372 83.5771 62.0503 84.5535 63.3091 86.1852C63.3193 86.1994 63.3266 86.2155 63.3305 86.2326C63.3344 86.2497 63.3348 86.2674 63.3317 86.2846C63.3283 86.3022 63.321 86.3188 63.3105 86.3332C63.3 86.3477 63.2864 86.3596 63.2707 86.3682L61.2367 87.4982C61.2213 87.5067 61.2044 87.5121 61.187 87.5141ZM57.4828 85.4959C58.1946 85.4946 58.898 85.6499 59.5432 85.9506C60.1884 86.2513 60.7596 86.6902 61.2163 87.2361L63.0243 86.2259C61.8017 84.7184 59.8151 83.8235 57.6749 83.8235C55.5844 83.8235 53.6205 84.6891 52.3933 86.1445L53.7493 87.2225C54.2078 86.6795 54.7796 86.2436 55.4246 85.9453C56.0697 85.647 56.7722 85.4936 57.4828 85.4959Z" fill="#263238"/>
<path d="M59.4897 89.6518C59.4721 89.1286 59.252 88.6326 58.8756 88.2686C58.4993 87.9046 57.9962 87.7012 57.4726 87.7012C56.9491 87.7012 56.446 87.9046 56.0696 88.2686C55.6933 88.6326 55.4731 89.1286 55.4556 89.6518C55.4556 89.7083 55.4556 89.7648 55.4556 89.8213H59.4716C59.4851 89.7648 59.4897 89.7083 59.4897 89.6518Z" fill="#263238"/>
<path d="M59.4808 89.9482H55.4648C55.4341 89.9477 55.4046 89.9359 55.3821 89.9151C55.3596 89.8942 55.3456 89.8657 55.3428 89.8352C55.3428 89.7764 55.3428 89.7176 55.3428 89.6566C55.3608 89.1013 55.5941 88.5748 55.9933 88.1884C56.3925 87.802 56.9263 87.5859 57.4819 87.5859C58.0374 87.5859 58.5712 87.802 58.9704 88.1884C59.3696 88.5748 59.6029 89.1013 59.621 89.6566C59.621 89.7176 59.621 89.7764 59.621 89.8352C59.6199 89.8521 59.6153 89.8685 59.6075 89.8836C59.5998 89.8986 59.5889 89.9119 59.5758 89.9225C59.5626 89.9331 59.5473 89.9409 59.531 89.9453C59.5147 89.9497 59.4976 89.9507 59.4808 89.9482ZM55.5801 89.7018H59.3678V89.6566C59.3678 89.1543 59.1683 88.6726 58.8131 88.3174C58.458 87.9623 57.9762 87.7627 57.474 87.7627C56.9717 87.7627 56.4899 87.9623 56.1348 88.3174C55.7796 88.6726 55.5801 89.1543 55.5801 89.6566V89.7018Z" fill="#263238"/>
</svg>
