<svg width="97" height="101" viewBox="0 0 97 101" fill="none" xmlns="http://www.w3.org/2000/svg">
<path d="M15.0662 47.7105C-3.3987 58.8104 -3.39676 76.7985 15.0662 87.9085C33.5292 99.0185 63.4673 99.0084 81.9322 87.9085C100.397 76.8086 100.395 58.8205 81.9322 47.7105C63.4692 36.6005 33.5311 36.6106 15.0662 47.7105Z" fill="#FAFAFA"/>
<path d="M92.9068 64.062L89.8765 60.4785L57.9324 41.2441C57.137 40.6785 55.9459 41.8258 55.4822 42.9833C55.4101 43.156 55.3555 43.3361 55.3193 43.5206C55.23 44.0014 55.3076 44.4357 55.651 44.6801L87.855 64.0721L92.2743 64.9811L93.4771 65.2296C93.513 65.2379 93.5505 65.2341 93.5841 65.2187C93.6178 65.2034 93.6458 65.1772 93.6642 65.1441C93.6826 65.111 93.6904 65.0726 93.6864 65.0346C93.6824 64.9965 93.6668 64.9608 93.642 64.9326L92.9068 64.062Z" fill="#E0E0E0"/>
<path d="M39.1472 39.3757L3.81985 64.05C3.29411 64.4177 3.29605 64.9732 3.81985 65.2923L51.5826 93.9763C51.8823 94.1314 52.2149 94.2047 52.5491 94.1891C52.8834 94.1736 53.2084 94.0698 53.4935 93.8874L88.8209 69.2131C89.3467 68.8455 89.3447 68.288 88.8209 67.9688L41.0581 39.2868C40.7585 39.1319 40.4259 39.0588 40.0917 39.0743C39.7574 39.0899 39.4325 39.1936 39.1472 39.3757Z" fill="#E0E0E0"/>
<path d="M59.3447 45.167L59.7579 45.4134L60.2546 45.7124L88.4253 62.6804C88.2701 62.3188 88.3904 61.5977 88.7454 60.9068C89.1567 60.0988 89.7872 59.4625 90.2431 59.4383L62.2062 42.5511L61.2537 41.9814C61.8512 42.3854 59.9461 45.5629 59.3447 45.167Z" fill="#455A64"/>
<path d="M62.1635 42.523L61.2401 41.9736C60.9782 41.8059 60.4815 42.2968 60.045 42.9452C59.463 43.8057 58.9936 44.945 59.3408 45.1672L60.0218 45.5712L60.2662 45.7106C59.9189 45.4884 60.3884 44.3471 60.9704 43.4886C61.3875 42.8684 61.8667 42.3897 62.1344 42.5048C62.1456 42.5078 62.1557 42.5142 62.1635 42.523Z" fill="#EBEBEB"/>
<path d="M61.9326 42.3877C61.3235 41.9959 59.4261 45.1895 60.0334 45.5814L60.9549 46.1328C60.3476 45.7409 62.245 42.5473 62.8541 42.9392L61.9326 42.3877Z" fill="#FFC100"/>
<path d="M63.7309 43.4663L62.821 42.9209C62.2274 42.531 60.365 45.5954 60.8694 46.0822C60.8791 46.0925 60.8902 46.1014 60.9023 46.1085L61.8219 46.6498C61.2263 46.2579 63.1275 43.0684 63.7309 43.4663Z" fill="#EBEBEB"/>
<path d="M61.2535 41.9756H61.24C60.98 41.8018 60.4834 42.2967 60.0469 42.9472C59.4649 43.7915 59.0031 44.9086 59.3271 45.1571L55.484 42.8563C55.1755 42.6361 55.096 42.2503 55.1852 41.8119C55.3986 40.6444 56.7101 39.1637 57.5404 39.7536L61.2535 41.9756Z" fill="#F28F8F"/>
<path d="M92.699 62.8219C92.3808 63.2704 92.4119 63.4906 92.4119 63.4906L88.4252 62.6725C88.0372 62.0442 88.2894 61.0221 88.8365 60.2949L89.0111 60.3979L92.699 62.8219Z" fill="#F28F8F"/>
<path d="M93.4966 63.715L92.4121 63.4948C92.4121 63.4948 92.3636 63.2746 92.6992 62.8262L93.6459 63.4483C93.6724 63.4803 93.686 63.5217 93.6838 63.5639C93.6816 63.6061 93.6639 63.6457 93.6343 63.6746C93.6165 63.6929 93.5946 63.7063 93.5705 63.7133C93.5464 63.7204 93.5209 63.721 93.4966 63.715Z" fill="#37474F"/>
<path d="M90.241 59.4346L92.9764 62.6666C92.868 62.6865 92.7691 62.7433 92.6951 62.8282L89.0091 60.4042L88.8345 60.3011C89.2089 59.8022 89.7172 59.4406 90.241 59.4346Z" fill="#FFA8A7"/>
<path d="M92.6992 62.8218C92.7317 62.7749 92.7738 62.7361 92.8225 62.7081C92.8711 62.6802 92.9251 62.6638 92.9805 62.6602L93.6459 63.4439L92.6992 62.8218Z" fill="#455A64"/>
<path opacity="0.2" d="M88.8366 60.2991L55.5714 40.8384C55.3875 41.1364 55.2562 41.4661 55.1834 41.812C55.1019 42.2463 55.1737 42.6342 55.4841 42.8564L59.3447 45.1672L59.7579 45.4137L60.2545 45.7126L88.4253 62.6806C87.9383 61.8969 88.4641 60.7414 88.8366 60.2991Z" fill="black"/>
<path d="M40.0593 40.6201L6.56324 62.0968L5.87842 63.3512V64.3369C5.88125 64.5818 5.9472 64.8215 6.06937 65.0307C6.19155 65.24 6.36546 65.4113 6.57294 65.5267L50.9504 92.2432C51.3034 92.4435 51.7035 92.536 52.1047 92.5099C52.5136 92.4958 52.9112 92.3667 53.2552 92.1362L85.9946 69.2577V68.2739L40.0593 40.6201Z" fill="#263238"/>
<path d="M52.0989 91.5259C51.6981 91.5517 51.2985 91.4585 50.9466 91.2572L6.57294 64.5407C6.36532 64.4255 6.1913 64.2543 6.06911 64.0449C5.94691 63.8356 5.88105 63.5959 5.87842 63.3509C5.88286 63.0989 5.94787 62.8521 6.06749 62.633C6.18712 62.4139 6.35755 62.2294 6.56324 62.0965L38.5732 39.7271L85.9907 68.2757L53.2493 91.1502C52.9054 91.381 52.5079 91.5108 52.0989 91.5259Z" fill="#FFC100"/>
<path d="M38.5654 36.8389L6.91435 58.9538L6.59619 59.481L6.61171 63.319C6.61879 63.4248 6.65293 63.5267 6.71058 63.614C6.76823 63.7014 6.8473 63.7712 6.93957 63.816L51.3074 90.5305C51.5544 90.6583 51.8285 90.7187 52.104 90.706C52.3796 90.6933 52.6475 90.6078 52.8826 90.4577L84.5357 68.3428L84.5182 64.5048L38.5654 36.8389Z" fill="#EBEBEB"/>
<path d="M84.5204 64.5067L84.1324 64.7834L78.9817 68.381L78.0233 69.0537L52.877 86.6277C52.6418 86.7776 52.3739 86.8629 52.0984 86.8756C51.8229 86.8884 51.5488 86.8281 51.3018 86.7004L6.9165 59.9778C6.48388 59.7152 6.48194 59.2547 6.9165 58.9517L7.33748 58.6588L38.5715 36.8428L84.1266 64.2683L84.2216 64.3289L84.5204 64.5067Z" fill="#F0F0F0"/>
<path d="M52.0795 86.8722L52.095 90.7102C51.8255 90.7271 51.5568 90.6655 51.319 90.5325L6.93371 63.8139C6.84155 63.7692 6.76266 63.6994 6.70532 63.612C6.64797 63.5246 6.61428 63.4227 6.60779 63.317L6.59033 59.479C6.59839 59.5842 6.63271 59.6854 6.68987 59.7726C6.74704 59.8597 6.82507 59.9298 6.91625 59.9759L51.2937 86.6945C51.5344 86.8294 51.8067 86.891 52.0795 86.8722Z" fill="#E0E0E0"/>
<path d="M84.5183 63.9958L78.8206 67.9752L77.9262 68.5994L52.8672 86.1087C52.6322 86.259 52.3644 86.3446 52.0889 86.3577C51.8134 86.3708 51.5392 86.3108 51.292 86.1835L11.553 62.2586C11.196 62.0566 10.8643 61.8546 10.5539 61.6526C8.93594 60.6224 7.96012 59.679 7.3335 58.6549L7.25784 58.5256C7.20767 58.4467 7.17335 58.3581 7.15696 58.265C7.1267 58.0674 7.16571 57.865 7.26685 57.6948C7.36799 57.5246 7.52454 57.3979 7.70792 57.3379C8.75432 56.9424 9.75456 56.4254 10.6897 55.7966L10.7285 55.7703L38.5617 36.3218L84.5183 63.9958Z" fill="white"/>
<path d="M38.5694 36.5622L84.1594 64.0059L78.7274 67.8055L77.835 68.4297L52.7683 85.9411C52.539 86.087 52.2746 86.1619 52.0059 86.1572C51.7938 86.1629 51.584 86.1114 51.3967 86.0077L11.6403 62.0808C11.3163 61.895 10.9904 61.699 10.649 61.4849C9.12606 60.5133 8.12696 59.5821 7.49258 58.5519L7.45766 58.4933L7.41498 58.4226C7.37713 58.3614 7.35201 58.2926 7.34126 58.2206C7.32066 58.0705 7.35238 57.9177 7.43068 57.7898C7.50897 57.662 7.62867 57.5676 7.76806 57.5237C8.8278 57.1239 9.8405 56.6 10.7867 55.9622L10.81 55.9481H10.8216L38.5636 36.5702M38.5636 36.3319L10.7285 55.7744L10.6897 55.8006C9.75456 56.4294 8.75432 56.9465 7.70792 57.3419C7.52454 57.4019 7.36799 57.5286 7.26685 57.6988C7.16571 57.869 7.1267 58.0714 7.15696 58.2691C7.17335 58.3621 7.20767 58.4508 7.25784 58.5297L7.3335 58.6589C7.96012 59.6831 8.93594 60.6264 10.5539 61.6566C10.8643 61.8586 11.196 62.0606 11.553 62.2626L51.292 86.1835C51.5088 86.3048 51.7521 86.3653 51.9981 86.3592C52.3049 86.3643 52.6066 86.2773 52.8672 86.1087L77.9262 68.5994L78.8206 67.9752L84.5183 63.9958L38.5617 36.3218L38.5636 36.3319Z" fill="#E0E0E0"/>
<path opacity="0.1" d="M78.6012 63.82C78.1977 64.1048 78.1996 64.5351 78.6012 64.7815C78.832 64.9013 79.0884 64.9579 79.346 64.9459C79.6036 64.9338 79.8541 64.8536 80.0737 64.7128C80.4791 64.428 80.4791 63.9977 80.0737 63.7513C79.843 63.6309 79.5866 63.574 79.3289 63.586C79.0711 63.5981 78.8206 63.6786 78.6012 63.82Z" fill="black"/>
<path d="M83.3175 60.4909C82.7549 60.1536 82.0527 60.2425 81.3368 60.7394C80.231 61.5171 79.2765 63.1775 78.8652 64.8885C79.0412 64.9433 79.2261 64.9598 79.4084 64.937C79.7964 63.4119 80.6326 61.9494 81.6123 61.2606C81.8772 61.0608 82.1887 60.9387 82.5144 60.9071C82.6999 60.8956 82.8845 60.9405 83.0459 61.0363C83.5212 61.3232 83.7967 62.0605 83.8006 63.0563C83.8025 63.221 83.7947 63.3856 83.7773 63.5492L84.2953 63.8623C84.3298 63.5864 84.3473 63.3084 84.3477 63.0301C84.3419 61.812 83.9674 60.8828 83.3175 60.4909Z" fill="#263238"/>
<path d="M84.2467 64.1836C84.2416 64.2326 84.2332 64.2812 84.2215 64.329L84.1265 64.2684L84.2467 64.1836Z" fill="#263238"/>
<path opacity="0.1" d="M74.1549 61.1412C73.7514 61.426 73.7534 61.8563 74.1549 62.1027C74.3857 62.2225 74.6421 62.2791 74.8997 62.2671C75.1574 62.255 75.4078 62.1748 75.6274 62.034C76.0329 61.7492 76.0329 61.3189 75.6274 61.0725C75.3966 60.9525 75.1403 60.8958 74.8826 60.9078C74.6249 60.9198 74.3745 61.0002 74.1549 61.1412Z" fill="black"/>
<path d="M78.8708 57.8143C78.3082 57.4749 77.6059 57.5638 76.892 58.0607C75.7842 58.8384 74.8297 60.4989 74.4185 62.2118C74.5948 62.2647 74.7793 62.2812 74.9617 62.2603C75.3497 60.7332 76.1877 59.2707 77.1655 58.5819C77.4304 58.3821 77.7419 58.2601 78.0676 58.2284C78.2533 58.2174 78.438 58.2631 78.5992 58.3597C79.0745 58.6445 79.3499 59.3818 79.3538 60.3797C79.3557 60.5443 79.348 60.7089 79.3305 60.8726L79.8485 61.1857C79.8849 60.9099 79.9024 60.6318 79.9009 60.3534C79.8951 59.1313 79.5207 58.2062 78.8708 57.8143Z" fill="#263238"/>
<path opacity="0.1" d="M69.7065 58.4649C69.3049 58.7477 69.3049 59.178 69.7065 59.4264C69.9375 59.5453 70.1937 59.6014 70.4512 59.5893C70.7086 59.5773 70.959 59.4977 71.1789 59.3577C71.5863 59.0729 71.5844 58.6427 71.1789 58.3962C70.9482 58.2762 70.6918 58.2195 70.4341 58.2316C70.1765 58.2436 69.926 58.3239 69.7065 58.4649Z" fill="black"/>
<path d="M74.4225 55.1457C73.8619 54.8064 73.1596 54.8973 72.4437 55.3922C71.336 56.1699 70.3834 57.8303 69.9702 59.5433C70.1465 59.5961 70.331 59.6125 70.5134 59.5918C70.9014 58.0646 71.7395 56.6022 72.7192 55.9133C72.9832 55.7133 73.2942 55.5912 73.6194 55.5598C73.8055 55.5501 73.9906 55.5956 74.1529 55.6912C74.6262 55.976 74.9036 56.7133 74.9075 57.7112C74.9088 57.8765 74.9004 58.0418 74.8823 58.206L75.4022 58.5171C75.4371 58.2419 75.4539 57.9645 75.4527 57.6869C75.4468 56.4527 75.0782 55.5275 74.4225 55.1457Z" fill="#263238"/>
<path opacity="0.1" d="M65.2599 55.7863C64.8564 56.0711 64.8583 56.5014 65.2599 56.7478C65.4907 56.8676 65.7468 56.9243 66.0044 56.9126C66.262 56.9009 66.5125 56.8213 66.7324 56.6812C67.1378 56.3943 67.1378 55.9641 66.7324 55.7176C66.5015 55.5982 66.2452 55.5418 65.9876 55.5538C65.7301 55.5658 65.4796 55.6458 65.2599 55.7863Z" fill="black"/>
<path d="M69.9762 52.4596C69.4136 52.1202 68.7113 52.2111 67.9974 52.708C66.8897 53.4837 65.9352 55.1442 65.5239 56.8571C65.7002 56.91 65.8848 56.9265 66.0671 56.9056C66.4454 55.3785 67.2913 53.916 68.2729 53.2272C68.5369 53.0271 68.8479 52.905 69.1731 52.8737C69.3593 52.8639 69.5443 52.9095 69.7066 53.005C70.1799 53.2898 70.4554 54.0271 70.4593 55.025C70.4612 55.1903 70.4534 55.3556 70.436 55.5199L70.9559 55.831C70.9898 55.5556 71.0067 55.2783 71.0064 55.0007C71.0044 53.7766 70.6261 52.8515 69.9762 52.4596Z" fill="#263238"/>
<path opacity="0.1" d="M60.8136 53.1099C60.4101 53.3948 60.4121 53.825 60.8136 54.0715C61.0441 54.1913 61.3001 54.2479 61.5575 54.2359C61.8148 54.2238 62.0649 54.1436 62.2841 54.0028C62.6915 53.718 62.6896 53.2877 62.2841 53.0413C62.0537 52.9212 61.7977 52.8646 61.5403 52.8766C61.2829 52.8886 61.0328 52.9689 60.8136 53.1099Z" fill="black"/>
<path d="M65.5295 49.7809C64.9669 49.4415 64.2646 49.5324 63.5506 50.0293C62.4429 50.807 61.4884 52.4655 61.0771 54.1784C61.2531 54.2334 61.438 54.2499 61.6204 54.2269C61.9987 52.7018 62.8445 51.2393 63.8242 50.5505C64.0892 50.3507 64.4006 50.228 64.7263 50.195C64.9118 50.1855 65.0962 50.231 65.2579 50.3263C65.7332 50.6131 66.0086 51.3504 66.0125 52.3463C66.0144 52.5109 66.0066 52.6755 65.9892 52.8392L66.5072 53.1502C66.5421 52.875 66.559 52.5976 66.5576 52.32C66.5538 51.106 66.1774 50.1728 65.5295 49.7809Z" fill="#263238"/>
<path opacity="0.1" d="M56.3649 50.4311C55.9614 50.716 55.9633 51.1462 56.3649 51.3927C56.5954 51.5125 56.8514 51.5691 57.1087 51.5571C57.3661 51.545 57.6162 51.4648 57.8354 51.324C58.2428 51.0392 58.2409 50.6089 57.8354 50.3625C57.6049 50.2428 57.3489 50.1863 57.0916 50.1984C56.8343 50.2104 56.5842 50.2905 56.3649 50.4311Z" fill="black"/>
<path d="M61.0812 47.1022C60.5186 46.7648 59.8163 46.8557 59.1024 47.3506C57.9947 48.1283 57.0363 49.7888 56.6289 51.5098C56.8052 51.5628 56.9897 51.5792 57.1721 51.5583C57.5504 50.0312 58.3962 48.5687 59.3759 47.8799C59.6408 47.6801 59.9524 47.558 60.278 47.5264C60.4637 47.5162 60.6482 47.5618 60.8096 47.6577C61.2849 47.9425 61.5604 48.6798 61.5643 49.6777C61.5662 49.8423 61.5584 50.0069 61.541 50.1706L62.059 50.4837C62.0935 50.2084 62.111 49.9311 62.1113 49.6534C62.1055 48.4212 61.7311 47.4941 61.0812 47.1022Z" fill="#263238"/>
<path opacity="0.1" d="M51.9186 47.755C51.5151 48.0398 51.517 48.47 51.9186 48.7165C52.1491 48.8363 52.4051 48.8929 52.6624 48.8809C52.9198 48.8689 53.1699 48.7886 53.3891 48.6478C53.7965 48.363 53.7946 47.9327 53.3891 47.6863C53.1587 47.5663 52.9027 47.5096 52.6453 47.5216C52.3879 47.5336 52.1378 47.614 51.9186 47.755Z" fill="black"/>
<path d="M56.6345 44.426C56.0719 44.0887 55.3696 44.1775 54.6537 44.6745C53.544 45.4501 52.5934 47.1126 52.186 48.8235C52.362 48.8785 52.5469 48.895 52.7292 48.872C53.1172 47.3469 53.9534 45.8844 54.9331 45.1936C55.1985 44.9952 55.5098 44.8738 55.8352 44.8421C56.0206 44.8313 56.2051 44.8762 56.3667 44.9714C56.842 45.2582 57.1175 45.9955 57.1214 46.9914C57.1223 47.156 57.1145 47.3206 57.0981 47.4843L57.6161 47.7954C57.6507 47.5201 57.6682 47.2428 57.6685 46.9651C57.6588 45.7451 57.2844 44.8179 56.6345 44.426Z" fill="#263238"/>
<path opacity="0.1" d="M47.4699 45.0763C47.0664 45.3612 47.0683 45.7914 47.4699 46.0379C47.7007 46.1577 47.957 46.2142 48.2147 46.2022C48.4723 46.1902 48.7227 46.11 48.9423 45.9692C49.3478 45.6864 49.3478 45.2541 48.9423 45.0077C48.7114 44.8882 48.4552 44.8319 48.1976 44.8439C47.94 44.8559 47.6896 44.9359 47.4699 45.0763Z" fill="black"/>
<path d="M52.1862 41.7493C51.6236 41.4099 50.9232 41.5008 50.2074 41.9957C49.0996 42.7734 48.1452 44.4338 47.7339 46.1468C47.9102 46.1998 48.0947 46.2162 48.2771 46.1953C48.6651 44.6682 49.5012 43.2057 50.4829 42.5169C50.7469 42.3168 51.0579 42.1947 51.383 42.1634C51.5686 42.1532 51.7531 42.1988 51.9146 42.2947C52.3899 42.5795 52.6654 43.3168 52.6692 44.3147C52.6712 44.4793 52.6634 44.6439 52.646 44.8075L53.1659 45.1206C53.1998 44.8453 53.2166 44.568 53.2163 44.2904C53.2105 43.0663 52.8361 42.1411 52.1862 41.7493Z" fill="#263238"/>
<path opacity="0.1" d="M43.0236 42.4C42.6201 42.6828 42.622 43.113 43.0236 43.3615C43.2545 43.4809 43.5108 43.5373 43.7683 43.5253C44.0259 43.5133 44.2763 43.4333 44.4961 43.2928C44.9015 43.008 44.9015 42.5777 44.4961 42.3313C44.2653 42.2113 44.0089 42.1546 43.7513 42.1666C43.4936 42.1786 43.2431 42.259 43.0236 42.4Z" fill="black"/>
<path d="M47.7399 39.0709C47.1773 38.7316 46.475 38.8225 45.7611 39.3194C44.6534 40.0971 43.6989 41.7555 43.2876 43.4685C43.4637 43.5224 43.6484 43.5388 43.8308 43.5169C44.2091 41.9898 45.0549 40.5273 46.0346 39.8385C46.2999 39.6395 46.6113 39.5175 46.9367 39.485C47.1223 39.4748 47.3068 39.5204 47.4683 39.6163C47.9436 39.9011 48.2191 40.6384 48.223 41.6363C48.2249 41.8016 48.2171 41.9669 48.1997 42.1312L48.7177 42.4423C48.7531 42.1671 48.7706 41.8897 48.77 41.6121C48.7642 40.388 48.3898 39.4628 47.7399 39.0709Z" fill="#263238"/>
<path opacity="0.1" d="M38.5754 39.7214C38.1718 40.0062 38.1738 40.4364 38.5754 40.6829C38.8062 40.8027 39.0625 40.8593 39.3201 40.8472C39.5778 40.8352 39.8282 40.755 40.0478 40.6142C40.4552 40.3294 40.4533 39.8991 40.0478 39.6527C39.8169 39.5332 39.5606 39.4769 39.3031 39.4889C39.0455 39.5009 38.7951 39.5809 38.5754 39.7214Z" fill="black"/>
<path d="M43.2912 36.3943C42.7305 36.0549 42.0282 36.1458 41.3124 36.6407C40.2046 37.4184 39.2521 39.0789 38.8389 40.7918C39.0152 40.8447 39.1997 40.8612 39.3821 40.8403C39.7701 39.3132 40.6081 37.8507 41.5878 37.1619C41.8519 36.9618 42.1629 36.8397 42.488 36.8084C42.6743 36.7978 42.8595 36.8434 43.0215 36.9397C43.4949 37.2245 43.7723 37.9618 43.7762 38.9597C43.7772 39.1243 43.7694 39.2888 43.7529 39.4526L44.2709 39.7657C44.3057 39.4904 44.3226 39.2131 44.3213 38.9354C44.3155 37.7113 43.9411 36.7862 43.2912 36.3943Z" fill="#263238"/>
<path d="M47.6216 81.2039C47.5329 81.2074 47.4451 81.1848 47.3682 81.1387C47.2914 81.0926 47.2285 81.0249 47.187 80.9433C47.121 80.8132 47.1027 80.6625 47.1356 80.5194C47.1684 80.3763 47.2501 80.2506 47.3655 80.1656L71.7164 63.1511C71.771 63.1117 71.833 63.0848 71.8983 63.0722C71.9636 63.0595 72.0308 63.0615 72.0953 63.0779C72.1599 63.0944 72.2204 63.1249 72.2727 63.1674C72.3251 63.21 72.3682 63.2636 72.3992 63.3248C72.4652 63.4549 72.4835 63.6056 72.4507 63.7487C72.4178 63.8918 72.3361 64.0176 72.2207 64.1025L47.8718 81.1231C47.7969 81.173 47.7104 81.2009 47.6216 81.2039Z" fill="#EBEBEB"/>
<path d="M44.6572 79.4262C44.5685 79.4298 44.4807 79.4072 44.4038 79.3611C44.327 79.315 44.2642 79.2473 44.2226 79.1657C44.1568 79.0353 44.1388 78.8845 44.172 78.7414C44.2052 78.5983 44.2873 78.4726 44.403 78.388L68.752 61.3715C68.8068 61.3323 68.869 61.3057 68.9344 61.2932C68.9998 61.2807 69.067 61.2828 69.1316 61.2992C69.1962 61.3156 69.2568 61.3459 69.3094 61.3883C69.362 61.4307 69.4054 61.4842 69.4368 61.5452C69.5026 61.6755 69.5206 61.8263 69.4874 61.9695C69.4541 62.1126 69.372 62.2382 69.2564 62.3229L44.9074 79.3394C44.8333 79.3918 44.7467 79.4218 44.6572 79.4262Z" fill="#EBEBEB"/>
<path d="M41.6909 77.6404C41.6023 77.6436 41.5147 77.6207 41.4382 77.5742C41.3616 77.5277 41.2992 77.4597 41.2583 77.3778C41.1923 77.2477 41.174 77.0971 41.2069 76.954C41.2397 76.8109 41.3214 76.6851 41.4368 76.6001L65.7876 59.5897C65.8424 59.5509 65.9044 59.5245 65.9696 59.5123C66.0348 59.5 66.1018 59.5021 66.1662 59.5185C66.2305 59.5349 66.2909 59.5651 66.3433 59.6073C66.3957 59.6495 66.4391 59.7027 66.4705 59.7634C66.5365 59.8935 66.5548 60.0442 66.5219 60.1873C66.4891 60.3304 66.4074 60.4561 66.292 60.5411L41.9412 77.5516C41.8671 77.6045 41.7806 77.6352 41.6909 77.6404Z" fill="#EBEBEB"/>
<path d="M38.7265 75.8572C38.6377 75.8603 38.5499 75.8374 38.473 75.7909C38.3962 75.7445 38.3334 75.6765 38.292 75.5946C38.226 75.4645 38.2077 75.3139 38.2405 75.1708C38.2734 75.0277 38.3551 74.9019 38.4705 74.8169L62.8213 57.8025C62.8758 57.7627 62.9379 57.7355 63.0033 57.7227C63.0687 57.7099 63.1359 57.7118 63.2006 57.7283C63.2652 57.7447 63.3257 57.7753 63.3781 57.8181C63.4305 57.8608 63.4735 57.9147 63.5042 57.9762C63.5702 58.1063 63.5885 58.2569 63.5556 58.4C63.5228 58.5431 63.4411 58.6689 63.3257 58.7539L38.9749 75.7683C38.9015 75.8213 38.8156 75.852 38.7265 75.8572Z" fill="#EBEBEB"/>
<path d="M35.7602 74.0692C35.6715 74.0728 35.5837 74.0502 35.5069 74.0041C35.43 73.958 35.3672 73.8903 35.3256 73.8087C35.2598 73.6783 35.2419 73.5275 35.2751 73.3844C35.3083 73.2413 35.3904 73.1156 35.506 73.031L59.8569 56.0165C59.9118 55.9774 59.9739 55.9507 60.0394 55.9382C60.1048 55.9258 60.172 55.9278 60.2366 55.9442C60.3012 55.9606 60.3618 55.991 60.4143 56.0333C60.4669 56.0757 60.5103 56.1292 60.5417 56.1902C60.6075 56.3205 60.6255 56.4714 60.5923 56.6145C60.5591 56.7576 60.477 56.8832 60.3613 56.9679L36.0104 73.9824C35.9363 74.0348 35.8497 74.0648 35.7602 74.0692Z" fill="#EBEBEB"/>
<path d="M32.7958 72.2856C32.7069 72.2892 32.6189 72.2664 32.542 72.2199C32.465 72.1734 32.4024 72.1051 32.3613 72.023C32.2955 71.8926 32.2775 71.7418 32.3107 71.5987C32.3439 71.4556 32.426 71.33 32.5417 71.2453L56.8906 54.2308C56.9454 54.1913 57.0076 54.1644 57.073 54.1518C57.1385 54.1391 57.2058 54.1411 57.2705 54.1575C57.3352 54.1739 57.3958 54.2044 57.4484 54.247C57.501 54.2896 57.5443 54.3433 57.5755 54.4045C57.6414 54.5346 57.6597 54.6853 57.6269 54.8284C57.594 54.9715 57.5123 55.0972 57.397 55.1822L33.0461 72.1967C32.9725 72.2505 32.8857 72.2813 32.7958 72.2856Z" fill="#EBEBEB"/>
<path d="M29.8315 70.4978C29.7427 70.5009 29.6549 70.4779 29.578 70.4315C29.5012 70.3851 29.4384 70.317 29.397 70.2352C29.331 70.1051 29.3127 69.9545 29.3455 69.8114C29.3784 69.6683 29.4601 69.5425 29.5754 69.4575L53.9321 52.4451C53.9867 52.4056 54.0488 52.3787 54.1141 52.3661C54.1794 52.3535 54.2466 52.3555 54.3111 52.3719C54.3757 52.3883 54.4361 52.4188 54.4885 52.4614C54.5409 52.5039 54.584 52.5576 54.615 52.6188C54.681 52.7489 54.6993 52.8995 54.6664 53.0426C54.6336 53.1857 54.5519 53.3115 54.4365 53.3965L30.0798 70.411C30.0062 70.4629 29.9203 70.4929 29.8315 70.4978Z" fill="#EBEBEB"/>
<path d="M26.8652 68.7141C26.7765 68.7176 26.6887 68.6951 26.6119 68.649C26.535 68.6029 26.4722 68.5351 26.4306 68.4535C26.3648 68.3232 26.3468 68.1724 26.38 68.0293C26.4132 67.8861 26.4954 67.7605 26.611 67.6758L50.9619 50.6614C51.0164 50.6216 51.0784 50.5944 51.1438 50.5816C51.2092 50.5688 51.2765 50.5707 51.3411 50.5872C51.4058 50.6036 51.4663 50.6342 51.5187 50.677C51.571 50.7197 51.614 50.7736 51.6448 50.8351C51.7108 50.9652 51.7291 51.1158 51.6962 51.2589C51.6634 51.402 51.5817 51.5278 51.4663 51.6128L27.1154 68.6272C27.0411 68.6793 26.9546 68.7094 26.8652 68.7141Z" fill="#EBEBEB"/>
<path d="M23.9009 66.9287C23.8127 66.93 23.726 66.9055 23.6506 66.858C23.5751 66.8105 23.514 66.7419 23.4741 66.6601C23.4083 66.5298 23.3903 66.379 23.4235 66.2358C23.4567 66.0927 23.5388 65.9671 23.6545 65.8824L47.9957 48.8841C48.0503 48.8443 48.1125 48.8171 48.178 48.8043C48.2436 48.7915 48.311 48.7934 48.3758 48.8098C48.4406 48.8262 48.5013 48.8568 48.5538 48.8996C48.6063 48.9424 48.6495 48.9963 48.6805 49.0578C48.7463 49.1881 48.7643 49.3389 48.7311 49.4821C48.6979 49.6252 48.6157 49.7508 48.5001 49.8355L24.1511 66.8419C24.077 66.8943 23.9904 66.9243 23.9009 66.9287Z" fill="#EBEBEB"/>
<path d="M20.9346 65.1449C20.846 65.1481 20.7584 65.1251 20.6818 65.0786C20.6053 65.0322 20.5429 64.9641 20.5019 64.8823C20.4359 64.7522 20.4177 64.6015 20.4505 64.4584C20.4833 64.3153 20.5651 64.1895 20.6804 64.1046L45.0313 47.0901C45.0859 47.0507 45.1479 47.0237 45.2132 47.0111C45.2786 46.9985 45.3457 47.0005 45.4103 47.0169C45.4748 47.0333 45.5353 47.0638 45.5877 47.1064C45.6401 47.149 45.6832 47.2026 45.7142 47.2638C45.7802 47.3939 45.7984 47.5446 45.7656 47.6877C45.7328 47.8308 45.651 47.9565 45.5357 48.0415L21.1848 65.056C21.1108 65.1089 21.0242 65.1396 20.9346 65.1449Z" fill="#EBEBEB"/>
<path d="M17.9707 63.3612C17.8819 63.3643 17.794 63.3414 17.7172 63.2949C17.6403 63.2485 17.5776 63.1805 17.5361 63.0986C17.4701 62.9685 17.4518 62.8179 17.4847 62.6748C17.5175 62.5317 17.5992 62.4059 17.7146 62.3209L42.0674 45.3044C42.122 45.265 42.184 45.2381 42.2494 45.2255C42.3147 45.2129 42.3819 45.2148 42.4464 45.2313C42.511 45.2477 42.5714 45.2782 42.6238 45.3207C42.6762 45.3633 42.7193 45.417 42.7503 45.4782C42.8163 45.6083 42.8346 45.7589 42.8017 45.902C42.7689 46.0451 42.6872 46.1709 42.5718 46.2559L18.219 63.2724C18.1456 63.325 18.0597 63.3557 17.9707 63.3612Z" fill="#EBEBEB"/>
<path d="M15.0043 61.5736C14.9157 61.5771 14.8279 61.5545 14.751 61.5084C14.6741 61.4624 14.6113 61.3946 14.5698 61.313C14.504 61.1827 14.486 61.0319 14.5192 60.8887C14.5524 60.7456 14.6345 60.62 14.7502 60.5353L39.1011 43.5208C39.1558 43.4814 39.218 43.4544 39.2835 43.4418C39.3489 43.4292 39.4163 43.4311 39.481 43.4475C39.5457 43.464 39.6063 43.4945 39.6588 43.537C39.7114 43.5796 39.7547 43.6333 39.7859 43.6946C39.8517 43.8249 39.8697 43.9757 39.8365 44.1188C39.8033 44.2619 39.7211 44.3876 39.6055 44.4723L15.2546 61.4867C15.1804 61.5391 15.0938 61.5692 15.0043 61.5736Z" fill="#EBEBEB"/>
<path d="M12.04 59.792C11.9514 59.7953 11.8637 59.7726 11.7868 59.7265C11.71 59.6804 11.6471 59.6128 11.6054 59.5314C11.5396 59.4011 11.5216 59.2502 11.5548 59.1071C11.588 58.964 11.6702 58.8384 11.7858 58.7537L36.1348 41.7372C36.1896 41.6981 36.2518 41.6714 36.3172 41.6589C36.3826 41.6465 36.4498 41.6485 36.5144 41.6649C36.579 41.6813 36.6396 41.7117 36.6922 41.754C36.7448 41.7964 36.7882 41.8499 36.8196 41.9109C36.8854 42.0412 36.9034 42.1921 36.8702 42.3352C36.837 42.4783 36.7549 42.6039 36.6392 42.6886L12.2902 59.7031C12.2163 59.7562 12.1297 59.7869 12.04 59.792Z" fill="#EBEBEB"/>
<path d="M50.6343 82.9959C50.5454 82.999 50.4576 82.976 50.3808 82.9296C50.3039 82.8831 50.2412 82.8151 50.1997 82.7333C50.1337 82.6032 50.1154 82.4525 50.1483 82.3094C50.1811 82.1663 50.2628 82.0406 50.3782 81.9556L76.1336 63.9271C76.1884 63.8876 76.2505 63.8607 76.316 63.8481C76.3815 63.8354 76.4488 63.8374 76.5135 63.8538C76.5782 63.8702 76.6388 63.9007 76.6914 63.9433C76.7439 63.9859 76.7872 64.0395 76.8184 64.1008C76.8848 64.2314 76.903 64.3826 76.8698 64.5262C76.8366 64.6698 76.7542 64.7958 76.638 64.8805L50.8826 82.907C50.809 82.9593 50.7232 82.99 50.6343 82.9959Z" fill="#FFC100"/>
<path d="M53.1931 72.1646C53.1562 72.0535 53.1019 71.9404 53.0243 71.9626C53.001 71.9748 52.9816 71.9936 52.9682 72.0168C52.9548 72.0401 52.948 72.0668 52.9486 72.0939C52.9491 72.1298 52.9556 72.1654 52.968 72.1989C52.9913 72.2797 53.0398 72.3221 53.065 72.4009C53.3521 73.3887 52.4112 73.7018 51.9146 73.7382C50.5062 73.8472 49.1229 73.1867 47.829 72.4676C45.9724 71.4374 44.1236 70.3042 42.1797 69.6396C40.5462 69.0841 38.0242 68.5326 37.0852 71.1041C37.0678 71.1566 37.126 71.2515 37.1512 71.193C38.1697 68.8094 40.4996 69.3022 42.106 69.8557C44.0692 70.5324 45.9336 71.6838 47.8115 72.7221C49.0667 73.415 50.3859 74.0189 51.7478 73.9826C52.3705 73.9684 53.6257 73.5927 53.2377 72.304C53.226 72.2757 53.2105 72.2211 53.1931 72.1646Z" fill="#263238"/>
<path d="M60.9156 41.8485C60.0388 40.2002 59.0047 38.3842 57.9164 35.7239C56.8281 33.0635 55.9027 33.0413 53.4544 32.1283C51.4232 31.3728 45.8884 28.9468 43.6787 27.9671C40.8347 26.7046 40.049 26.5531 37.6259 23.6968C34.9895 20.5799 26.1373 10.3486 26.1373 10.3486L14.8853 32.0333C18.643 34.2836 21.7878 36.1582 24.075 37.6792C26.0732 39.0044 27.2974 40.1517 28.4148 44.2463C29.1753 47.0258 29.2645 48.2317 31.3539 50.7103C32.9738 52.6373 33.4472 53.1827 35.3232 55.3219L42.6796 52.1162C42.4466 51.7285 42.3019 51.2904 42.2567 50.8355C42.1946 49.1932 44.4198 49.4498 45.4383 49.5609C47.8226 49.8235 55.4798 53.3504 55.4798 53.3504L60.0038 49.6275C60.7372 48.8195 61.455 47.8358 60.7042 45.5875C61.2086 44.9916 61.7925 43.4989 60.9156 41.8485Z" fill="#FFA8A7"/>
<path d="M55.3209 35.5984C55.1195 35.3375 54.8775 35.1135 54.605 34.9359C54.4576 34.8308 54.3121 34.7339 54.1646 34.6268C53.9952 34.5005 53.8175 34.3864 53.6331 34.2854C53.5981 34.2693 53.604 34.3299 53.6175 34.346C54.1122 34.8631 54.7815 35.154 55.1831 35.7742C55.3438 36.0357 55.4833 36.3107 55.6002 36.5963C55.7593 36.9538 55.9223 37.3053 56.0949 37.6568C56.1085 37.6831 56.126 37.6568 56.1221 37.6346C55.9417 36.9296 55.7418 36.1963 55.3209 35.5984Z" fill="#F28F8F"/>
<path d="M60.722 45.6036C60.8499 45.4427 60.9587 45.2664 61.046 45.0784C60.528 43.9492 59.3 41.9332 58.3164 39.4224C58.9973 41.4222 59.5793 42.42 60.722 45.6036Z" fill="#F28F8F"/>
<path d="M56.9603 35.5398C56.939 35.3808 56.8999 35.2248 56.8439 35.0752C56.7484 34.8029 56.605 34.5515 56.421 34.3339C56.2011 34.1064 55.9435 33.9223 55.6605 33.7905C55.3604 33.6205 55.0401 33.4922 54.708 33.4087C54.708 33.4087 54.708 33.4208 54.708 33.4249C54.9874 33.5905 55.2764 33.74 55.5558 33.9056C55.8227 34.0422 56.0633 34.2284 56.2658 34.4551C56.6111 34.8813 56.7392 35.4449 56.9681 35.9377C56.9817 35.966 57.0108 35.96 57.0108 35.9377C57.0052 35.8038 56.9883 35.6706 56.9603 35.5398Z" fill="#F28F8F"/>
<path d="M60.5858 48.9003C60.5004 47.7227 59.9107 46.9631 59.2957 45.4986C58.5197 43.6604 56.8086 40.1497 56.2324 38.0913C56.4264 39.9396 57.6118 46.3329 58.4751 50.8981L60.0115 49.6336C60.2253 49.4091 60.4176 49.1635 60.5858 48.9003Z" fill="#F28F8F"/>
<path d="M42.5265 51.8757C42.4395 51.6384 42.333 51.4093 42.2084 51.1909C42.0978 50.9687 42.0008 50.7384 41.9057 50.5081C41.7272 50.0786 41.5762 49.6373 41.4537 49.187C41.3308 48.7291 41.2586 48.2581 41.2384 47.7831C41.2293 47.5514 41.2338 47.3194 41.2519 47.0883C41.2616 46.9671 41.2772 46.8459 41.2946 46.7247C41.3082 46.6338 41.3334 46.5328 41.3392 46.4419C41.3451 46.351 41.3392 46.3025 41.3509 46.2399C41.3509 46.1995 41.281 46.1025 41.2519 46.1671C41.1999 46.2715 41.1564 46.3803 41.122 46.4924C41.0949 46.5942 41.0729 46.6973 41.056 46.8014C41.0224 47.0051 41.0023 47.211 40.9959 47.4175C40.9854 47.8038 41.0121 48.1902 41.0754 48.5709C41.2041 49.3253 41.4457 50.0539 41.7913 50.7303C41.8902 50.9323 41.9969 51.1161 42.1036 51.308C42.2099 51.525 42.3401 51.7284 42.4916 51.914C42.5207 51.9302 42.5323 51.8938 42.5265 51.8757Z" fill="#F28F8F"/>
<path d="M56.5487 50.4089L51.914 41.2866C51.914 41.2866 47.1785 42.7006 44.93 43.9954C42.6816 45.2903 41.632 49.7726 42.4953 51.9078L42.5865 51.928C42.4024 51.5951 42.2911 51.224 42.2606 50.8412C42.1985 49.199 44.4237 49.4555 45.4422 49.5666C47.8264 49.8292 55.4836 53.3561 55.4836 53.3561L56.6088 52.4289L56.5487 50.4089Z" fill="#F28F8F"/>
<path d="M26.2302 23.5123C28.8252 17.1621 28.1317 10.7749 24.681 9.24606C21.2304 7.71725 16.3294 11.6258 13.7344 17.976C11.1393 24.3262 11.8329 30.7135 15.2836 32.2423C18.7342 33.7711 23.6352 29.8625 26.2302 23.5123Z" fill="#FFA8A7"/>
<path d="M52.9096 33.9766C55.5965 35.2108 55.9127 36.748 56.388 38.7377C56.8633 40.7274 58.6811 44.9654 59.393 46.8803C60.105 48.7953 60.2622 49.2861 59.5502 51.8798C58.8382 54.4735 56.8206 59.5558 56.8206 59.5558C56.8206 59.5558 50.7736 39.6225 50.3798 37.5722C49.986 35.5219 50.2207 33.2393 52.9096 33.9766Z" fill="#FFA8A7"/>
<path d="M58.9507 50.5464C58.9478 50.5516 58.9463 50.5575 58.9463 50.5635C58.9463 50.5696 58.9478 50.5755 58.9507 50.5807C59.0361 50.609 59.166 50.5484 59.2514 50.5322C59.3368 50.5161 59.4687 50.4878 59.5773 50.4716C59.686 50.4555 59.7907 50.4454 59.9032 50.4393C59.9168 50.3646 59.9285 50.2918 59.9401 50.2232C59.6655 50.2566 59.3959 50.3244 59.1369 50.4252C59.0637 50.443 58.9982 50.4856 58.9507 50.5464ZM58.9391 49.193C59.207 49.0877 59.4846 49.0112 59.7674 48.9647C59.8414 48.9546 59.9159 48.9485 59.9905 48.9465C59.9905 48.8698 59.9731 48.793 59.9595 48.7183C59.878 48.7183 59.7985 48.7304 59.717 48.7425C59.4108 48.7785 59.115 48.8796 58.8479 49.0394C58.7606 49.0859 58.8576 49.2212 58.9391 49.193ZM59.8392 49.4899C59.6675 49.4976 59.4965 49.5165 59.3271 49.5465C58.978 49.5988 58.6412 49.718 58.3338 49.8979C58.2601 49.9444 58.359 50.0474 58.423 50.0252C58.7121 49.9098 59.0091 49.8173 59.3115 49.7485C59.457 49.7197 59.6041 49.7008 59.7519 49.6919C59.8276 49.6919 59.911 49.6919 59.9925 49.6919C59.9925 49.6212 60.0022 49.5545 60.0041 49.4899C59.9459 49.4899 59.8935 49.4899 59.8392 49.4899Z" fill="#F28F8F"/>
<path d="M57.1928 46.4274C56.0953 44.1914 55.1394 41.883 54.3313 39.517L51.914 38.7373L51.1128 40.3412C52.8181 46.3588 56.8203 59.5534 56.8203 59.5534C56.8203 59.5534 57.119 58.7999 57.5284 57.7354C57.5284 57.7354 58.0677 53.0732 58.3044 50.9866C58.5411 48.8999 57.9707 47.9485 57.1928 46.4274Z" fill="#F28F8F"/>
<path d="M48.4802 57.8732C48.3308 57.7682 48.1815 57.6712 48.034 57.552C46.0339 56.0209 43.9038 54.4433 42.6796 52.1162L35.3076 55.324C36.5641 56.7637 37.9026 58.1236 39.3157 59.3963C40.5088 60.5235 44.1366 62.0708 46.4937 63.305C48.8508 64.5392 49.8402 65.1513 50.4338 64.8038C51.1283 64.416 51.98 60.3497 48.4802 57.8732Z" fill="#FFA8A7"/>
<path d="M39.9791 59.907C40.0043 59.8181 40.0295 59.7313 40.0606 59.6444C40.1253 59.4638 40.1998 59.2871 40.2837 59.1152C40.3838 58.9511 40.4683 58.7772 40.5359 58.596C40.5456 58.5516 40.4874 58.4769 40.4447 58.5112C40.2919 58.6579 40.168 58.8342 40.08 59.0303C39.9757 59.2287 39.8868 59.4354 39.8142 59.6485C39.8006 59.6868 39.7909 59.7272 39.7773 59.7656L39.9791 59.907Z" fill="#F28F8F"/>
<path d="M40.7496 60.3129C40.8276 60.0104 40.9328 59.7162 41.0639 59.4342C41.1769 59.1958 41.3156 58.9715 41.4771 58.7656C41.5895 58.6191 41.7149 58.4838 41.8515 58.3616C41.964 58.2666 42.0824 58.1818 42.1852 58.0768C42.2123 58.0485 42.1735 57.9737 42.1347 57.9838C41.8484 58.0776 41.5913 58.2491 41.3898 58.4808C41.1723 58.7063 40.9874 58.9635 40.8408 59.2443C40.6823 59.5502 40.5586 59.8742 40.4722 60.2099L40.7341 60.3674C40.7399 60.3573 40.7399 60.3351 40.7496 60.3129Z" fill="#F28F8F"/>
<path d="M41.5563 60.2465C41.6367 60.0146 41.7333 59.7891 41.8453 59.5718C41.8935 59.4786 41.9466 59.3882 42.0044 59.3012C42.0726 59.2212 42.1259 59.1287 42.1616 59.0285C42.1616 58.984 42.1111 58.9133 42.0665 58.9375C41.8714 59.0866 41.7131 59.2818 41.6048 59.5072C41.4827 59.718 41.3776 59.9389 41.2905 60.1677C41.2362 60.3132 41.1877 60.4606 41.1431 60.6101L41.3953 60.7495C41.4457 60.5798 41.4961 60.4122 41.5563 60.2465Z" fill="#F28F8F"/>
<path d="M45.5122 62.8017C45.6167 62.0318 45.9747 61.3235 46.5249 60.7979C46.5249 60.7979 48.2146 61.5352 48.9363 62.2119C49.658 62.8886 50.2148 64.3813 49.7647 64.8601C48.7307 64.8641 47.3358 63.8036 45.5122 62.8017Z" fill="#FFC4C3"/>
<path opacity="0.3" d="M45.5122 62.8017C45.7256 62.9188 45.9312 63.036 46.133 63.1532C46.3537 62.3874 46.484 61.5965 46.521 60.7979C45.9722 61.3241 45.6157 62.0323 45.5122 62.8017Z" fill="white"/>
<path d="M48.62 45.5248C49.8034 47.5448 51.6232 51.1808 51.6445 51.6494C51.7648 54.3017 51.6193 57.0731 51.6193 59.9415C51.6193 62.8099 51.596 64.9046 52.8046 66.8095C53.8988 68.5265 55.9086 68.9992 56.1938 67.1226C56.4421 65.5167 56.5973 62.2483 56.8204 59.5597C57.0435 56.8711 57.6352 52.9765 57.7904 50.801C57.9456 48.6255 56.5721 46.4903 55.6467 43.6765C54.8436 41.2302 54.1626 38.1396 52.9036 36.8287C51.6445 35.5177 46.8799 33.0614 45.1436 32.1079L48.62 45.5248Z" fill="#FFA8A7"/>
<path d="M57.6525 50.9687C57.5034 50.9798 57.3536 50.9798 57.2044 50.9687C56.894 50.9361 56.5865 50.878 56.2848 50.795C56.2072 50.7788 56.2266 50.894 56.2732 50.9202C56.578 51.0654 56.9081 51.1445 57.2432 51.1525C57.4098 51.1657 57.5771 51.1657 57.7437 51.1525H57.7592C57.7592 51.0859 57.7689 51.0233 57.7728 50.9606L57.6525 50.9687Z" fill="#F28F8F"/>
<path d="M55.8718 49.0194C55.8194 49.0457 55.8854 49.1406 55.932 49.1285C56.2924 49.0284 56.6688 49.0064 57.0378 49.0639C57.2012 49.0941 57.3612 49.1422 57.515 49.2073L57.6566 49.278C57.6392 49.1911 57.6198 49.1043 57.6004 49.0174C57.4349 48.9477 57.2625 48.8975 57.0863 48.8679C56.6761 48.7886 56.2524 48.8415 55.8718 49.0194Z" fill="#F28F8F"/>
<path d="M56.5837 49.7221C56.2895 49.7102 55.995 49.736 55.7068 49.7988C55.4643 49.8554 55.1093 49.918 54.9502 50.1382C54.9502 50.1382 54.9502 50.1725 54.9599 50.1725C55.0951 50.1683 55.2291 50.1439 55.3576 50.0998C55.4973 50.0634 55.637 50.0311 55.7786 50.0089C56.3023 49.9215 56.838 49.9546 57.348 50.1059C57.4979 50.1515 57.6444 50.2082 57.7865 50.2755C57.7865 50.1725 57.7865 50.0735 57.769 49.9645C57.6623 49.9241 57.5537 49.8877 57.4489 49.8574C57.1668 49.7763 56.8763 49.7308 56.5837 49.7221Z" fill="#F28F8F"/>
<path d="M56.6691 61.089C56.5682 61.0547 56.4635 61.0244 56.3607 60.9941C56.1473 60.9355 55.9339 60.883 55.7166 60.8405C55.7053 60.8376 55.6936 60.8371 55.6822 60.8391C55.6708 60.8411 55.6599 60.8456 55.6502 60.8523C55.6405 60.8589 55.6323 60.8676 55.626 60.8778C55.6197 60.8879 55.6156 60.8993 55.6138 60.9112C55.6138 60.9678 55.6642 61.0062 55.7108 61.0143C55.9048 61.0547 56.0988 61.0991 56.3025 61.1536L56.5876 61.2405L56.6905 61.2748L56.7021 61.0991L56.6691 61.089Z" fill="#F28F8F"/>
<path d="M56.0232 60.3533C56.2426 60.4212 56.4578 60.5036 56.6673 60.5997L56.7371 60.6321L56.7545 60.3937L56.7313 60.3816C56.508 60.2884 56.2793 60.2101 56.0465 60.1473C55.8161 60.085 55.5822 60.0378 55.3461 60.0059C55.0972 59.9558 54.8419 59.951 54.5915 59.9917C54.5449 59.9917 54.5662 60.0786 54.605 60.0867C54.8514 60.1372 55.1036 60.1513 55.35 60.1957C55.577 60.2351 55.8018 60.2877 56.0232 60.3533Z" fill="#F28F8F"/>
<path d="M55.6604 59.7173C55.9669 59.7886 56.2693 59.8776 56.5663 59.9839C56.6381 60.0102 56.708 60.0405 56.7778 60.0708C56.7778 60.0041 56.7894 59.9395 56.7933 59.8688L56.6459 59.8102C56.3216 59.7009 55.9885 59.6225 55.6506 59.5759C55.5633 59.5698 55.5963 59.7031 55.6604 59.7173Z" fill="#F28F8F"/>
<path d="M56.5487 63.2967C55.4118 62.1554 54.2207 62.5614 54.2207 62.5614C54.0795 63.527 54.0269 64.5043 54.0635 65.4803C54.145 66.8458 55.0103 67.5144 55.6718 67.6316C56.3333 67.7487 56.4206 66.4014 56.5487 63.2967Z" fill="#FFC4C3"/>
<path opacity="0.3" d="M56.5274 63.7996C56.5274 63.638 56.5409 63.4704 56.5487 63.2967C55.4119 62.1554 54.2207 62.5614 54.2207 62.5614C54.4477 62.9815 55.7048 63.7188 56.5274 63.7996Z" fill="white"/>
<path d="M53.5439 37.1903C53.0182 36.4429 52.2306 36.0026 51.4546 35.5905C51.0161 35.3694 50.591 35.1205 50.1819 34.8451C50.1586 34.8269 50.1528 34.8794 50.1664 34.8936C50.7814 35.4592 51.5244 35.8531 52.1956 36.3258C52.9317 36.806 53.5018 37.5177 53.8233 38.3579C54.0289 38.8447 54.1997 39.3456 54.3859 39.8405C54.3995 39.8789 54.4286 39.8547 54.4247 39.8224C54.3199 38.9053 54.0716 37.9438 53.5439 37.1903Z" fill="#F28F8F"/>
<path d="M40.2354 13.3928C40.2695 13.4469 40.2969 13.5053 40.3169 13.5665L40.2122 13.1767C40.2062 13.1534 40.1991 13.1305 40.1908 13.108V13.0938C40.1838 13.0701 40.1747 13.0471 40.1637 13.0252L40.1481 12.9928C40.1481 12.9747 40.1307 12.9585 40.119 12.9403L40.0647 12.8595C40.0434 12.8333 40.022 12.807 39.9988 12.7828C39.8115 12.6005 39.5813 12.473 39.3314 12.4131C38.3362 12.1404 36.9413 12.5343 36.2158 13.2938C36.1186 13.392 36.0339 13.5026 35.9636 13.6231C35.9494 13.6434 35.9371 13.6651 35.9267 13.6877C35.9176 13.6989 35.911 13.712 35.9073 13.7261C35.8934 13.7512 35.8817 13.7776 35.8724 13.8049C35.8341 13.892 35.8086 13.9846 35.7967 14.0796C35.7802 14.1908 35.7862 14.3043 35.8142 14.4129L35.9325 14.8593C35.9127 14.7851 35.9035 14.7081 35.9054 14.6311C36.0965 14.9082 36.3814 15.0995 36.7027 15.1664C37.6979 15.4411 39.0947 15.0472 39.8203 14.2877C40.0638 14.0559 40.2124 13.7355 40.2354 13.3928Z" fill="#FFC100"/>
<path d="M53.8873 65.7736L49.4815 67.026L49.3652 66.5776L35.921 14.8656C35.9011 14.7913 35.8919 14.7144 35.8938 14.6373C35.921 14.2906 36.0752 13.968 36.3245 13.7364C37.05 12.9769 38.4449 12.585 39.4401 12.8597C39.6899 12.9174 39.9203 13.0436 40.1075 13.2253C40.1562 13.2759 40.1992 13.3322 40.2355 13.393C40.2696 13.4471 40.297 13.5055 40.317 13.5667C40.317 13.5667 40.317 13.5889 40.3267 13.597V13.6091L53.8873 65.7736Z" fill="#F0F0F0"/>
<path d="M52.9969 65.0201C53.9922 65.2928 54.2114 66.1331 53.4839 66.8926C52.7564 67.6522 51.3635 68.0461 50.3682 67.7713C49.373 67.4966 49.1557 66.6583 49.8813 65.8988C50.6069 65.1393 52.0017 64.7454 52.9969 65.0201Z" fill="#FFC100"/>
<path d="M53.7669 69.3385C53.7669 69.3183 53.7669 69.2961 53.7669 69.2759L53.9027 66.0904V66.054C53.9036 66.0345 53.9036 66.0149 53.9027 65.9954V65.9631C53.893 65.5389 53.5787 65.1773 52.9889 65.0157C51.9937 64.741 50.5988 65.1349 49.8733 65.8944C49.4523 66.3348 49.3514 66.8034 49.5318 67.1711L49.5474 67.1933C49.5662 67.2299 49.5876 67.265 49.6114 67.2983L49.625 67.3205L51.2817 69.995C51.3902 70.1502 51.551 70.2569 51.7318 70.294C52.0456 70.3624 52.3704 70.3527 52.6799 70.2657C52.9894 70.1786 53.2747 70.0167 53.5127 69.793C53.6446 69.676 53.7342 69.5157 53.7669 69.3385Z" fill="#E0E0E0"/>
<path d="M44.3016 34.7623C44.3025 34.7605 44.3029 34.7584 44.3029 34.7563C44.3029 34.7542 44.3025 34.7521 44.3016 34.7502L44.2861 34.6876C44.2563 34.6264 44.2133 34.5732 44.1605 34.5322C44.1076 34.4912 44.0464 34.4635 43.9815 34.4513C43.7858 34.4096 43.5834 34.4163 43.3906 34.4711C43.1978 34.5258 43.0201 34.627 42.8718 34.7664C42.8229 34.8093 42.7841 34.8633 42.7582 34.9242C42.7323 34.9851 42.7201 35.0513 42.7225 35.1179L42.7438 35.1987L51.2798 68.0156L53.0821 68.5125L44.3016 34.7623Z" fill="#455A64"/>
<path d="M50.5835 65.3774L51.2703 68.0195L53.0725 68.5165L52.1413 64.937C51.5981 64.9679 51.0672 65.118 50.5835 65.3774Z" fill="#37474F"/>
<path d="M53.5828 70.7287L53.705 67.8401C53.7079 67.8146 53.7079 67.7888 53.705 67.7633C53.705 67.4563 53.48 67.1977 53.0571 67.0805C52.6689 66.9968 52.2673 67.0094 51.8847 67.1175C51.5021 67.2256 51.1494 67.4261 50.8552 67.7027C50.5584 68.0138 50.4846 68.341 50.6107 68.6016V68.6178L50.6534 68.6864L52.186 71.1387C52.2475 71.2259 52.3382 71.2857 52.4401 71.3064C52.6169 71.3451 52.8 71.3397 52.9743 71.2906C53.1486 71.2414 53.3093 71.1499 53.4431 71.0236C53.485 70.9874 53.519 70.9424 53.5431 70.8916C53.5672 70.8408 53.5807 70.7853 53.5828 70.7287Z" fill="#FFC100"/>
<path opacity="0.1" d="M53.5828 70.7287L53.705 67.8401C53.7079 67.8146 53.7079 67.7888 53.705 67.7633C53.705 67.4563 53.48 67.1977 53.0571 67.0805C52.6689 66.9968 52.2673 67.0094 51.8847 67.1175C51.5021 67.2256 51.1494 67.4261 50.8552 67.7027C50.5584 68.0138 50.4846 68.341 50.6107 68.6016V68.6178L50.6534 68.6864L52.186 71.1387C52.2475 71.2259 52.3382 71.2857 52.4401 71.3064C52.6169 71.3451 52.8 71.3397 52.9743 71.2906C53.1486 71.2414 53.3093 71.1499 53.4431 71.0236C53.485 70.9874 53.519 70.9424 53.5431 70.8916C53.5672 70.8408 53.5807 70.7853 53.5828 70.7287Z" fill="black"/>
<path d="M53.449 71.0256C53.3144 71.1514 53.1533 71.2423 52.9787 71.2911C52.8041 71.3399 52.6209 71.3451 52.444 71.3064C52.3426 71.2859 52.2524 71.2259 52.1918 71.1388L51.4158 69.8985C51.2936 69.6965 51.3382 69.448 51.5691 69.2036C51.7837 69.0025 52.0407 68.8567 52.3194 68.7781C52.5982 68.6995 52.8907 68.6903 53.1735 68.7511C53.4761 68.8339 53.6391 69.0198 53.643 69.24V69.2985L53.5828 70.7287C53.5808 70.785 53.5679 70.8403 53.5449 70.8913C53.5219 70.9423 53.4893 70.988 53.449 71.0256Z" fill="#FFC100"/>
<path opacity="0.1" d="M53.2914 70.4217C53.6115 70.5106 53.6794 70.7792 53.4486 71.0277C53.3148 71.154 53.1541 71.2455 52.9798 71.2947C52.8054 71.3438 52.6224 71.3492 52.4456 71.3105C52.1255 71.2236 52.0576 70.9529 52.2885 70.7045C52.4224 70.5784 52.5831 70.4871 52.7574 70.438C52.9317 70.3888 53.1147 70.3833 53.2914 70.4217Z" fill="black"/>
<path d="M40.1712 18.8669C40.1475 18.7966 40.1056 18.7345 40.0502 18.6875C39.9947 18.6404 39.9278 18.6102 39.8569 18.6003C39.6624 18.5577 39.461 18.5637 39.2691 18.6178C39.0772 18.6719 38.9004 18.7725 38.753 18.9114C38.6963 18.9589 38.6532 19.0216 38.6282 19.0928C38.6033 19.164 38.5975 19.241 38.6114 19.3154L42.7204 35.1239C42.718 35.0573 42.7302 34.9911 42.7561 34.9302C42.782 34.8693 42.8208 34.8153 42.8697 34.7724C43.018 34.633 43.1957 34.5318 43.3885 34.4771C43.5813 34.4224 43.7837 34.4156 43.9794 34.4573C44.0443 34.4695 44.1055 34.4972 44.1583 34.5382C44.2112 34.5792 44.2542 34.6324 44.284 34.6936L40.1712 18.8669Z" fill="#FAFAFA"/>
<path d="M40.0299 19.263C39.8823 19.4015 39.7054 19.5018 39.5137 19.5559C39.3219 19.6099 39.1206 19.6162 38.926 19.5741C38.8561 19.5636 38.7902 19.5335 38.7354 19.4868C38.6807 19.4402 38.6393 19.3789 38.6156 19.3095C38.5999 19.2355 38.6044 19.1583 38.6288 19.0869C38.6532 19.0155 38.6963 18.9526 38.7534 18.9055C38.9007 18.7666 39.0776 18.666 39.2694 18.6119C39.4613 18.5579 39.6627 18.5519 39.8572 18.5944C39.9281 18.6044 39.995 18.6345 40.0505 18.6816C40.1059 18.7287 40.1478 18.7908 40.1715 18.8611C40.1849 18.9351 40.1788 19.0116 40.1539 19.0824C40.1289 19.1531 40.0861 19.2155 40.0299 19.263Z" fill="#F5F5F5"/>
<path d="M40.8463 16.52V16.4998C40.8472 16.4897 40.8472 16.4796 40.8463 16.4695L40.1266 13.7082C40.1219 13.6863 40.1161 13.6647 40.1091 13.6435V13.6274C40.016 13.3446 39.7502 13.1123 39.3331 12.9951C38.839 12.8882 38.3276 12.9043 37.8405 13.0418C37.3534 13.1794 36.9044 13.4347 36.5298 13.7869C36.2 14.1303 36.0875 14.4919 36.169 14.7969L36.8984 17.5946C36.8976 17.5993 36.8976 17.6041 36.8984 17.6088V17.6249C36.9857 17.9199 37.2535 18.1602 37.69 18.2814C38.1841 18.388 38.6954 18.3718 39.1825 18.2342C39.6695 18.0967 40.1186 17.8416 40.4933 17.4896C40.792 17.1704 40.9084 16.819 40.8463 16.52Z" fill="#FFC100"/>
<path opacity="0.05" d="M40.8463 16.52V16.4998C40.8472 16.4897 40.8472 16.4796 40.8463 16.4695L40.1266 13.7082C40.1219 13.6863 40.1161 13.6647 40.1091 13.6435V13.6274C40.016 13.3446 39.7502 13.1123 39.3331 12.9951C38.839 12.8882 38.3276 12.9043 37.8405 13.0418C37.3534 13.1794 36.9044 13.4347 36.5298 13.7869C36.2 14.1303 36.0875 14.4919 36.169 14.7969L36.8984 17.5946C36.8976 17.5993 36.8976 17.6041 36.8984 17.6088V17.6249C36.9857 17.9199 37.2535 18.1602 37.69 18.2814C38.1841 18.388 38.6954 18.3718 39.1825 18.2342C39.6695 18.0967 40.1186 17.8416 40.4933 17.4896C40.792 17.1704 40.9084 16.819 40.8463 16.52Z" fill="black"/>
<path opacity="0.1" d="M40.0396 15.8047C40.9359 16.0511 41.1319 16.8147 40.4781 17.4914C40.1034 17.8433 39.6543 18.0984 39.1673 18.236C38.6802 18.3736 38.1689 18.3898 37.6748 18.2832C36.7785 18.0348 36.5826 17.2732 37.2363 16.5965C37.6109 16.2443 38.0599 15.989 38.547 15.8514C39.0341 15.7138 39.5455 15.6978 40.0396 15.8047Z" fill="black"/>
<path d="M53.5149 71.9286L53.2336 70.7691C53.2234 70.735 53.2041 70.7046 53.178 70.6814C53.1519 70.6581 53.1201 70.643 53.0861 70.6378C52.9955 70.6187 52.9018 70.6219 52.8125 70.6471C52.7233 70.6724 52.6409 70.719 52.572 70.7833C52.5469 70.8055 52.5277 70.8341 52.5162 70.8663C52.5046 70.8984 52.5012 70.9331 52.5061 70.9671L52.7835 72.1266C52.8016 72.1901 52.835 72.2478 52.8805 72.2942C52.9385 72.3545 53.0138 72.3936 53.0949 72.4056C53.1761 72.4175 53.2588 72.4016 53.3306 72.3604C53.4024 72.3192 53.4594 72.2547 53.493 72.1769C53.5265 72.099 53.5349 72.0119 53.5168 71.9286H53.5149Z" fill="#455A64"/>
<path d="M53.5226 72.0029C53.5255 71.9801 53.5255 71.957 53.5226 71.9342C53.5073 71.9072 53.4865 71.884 53.4618 71.8662C53.437 71.8485 53.4088 71.8365 53.3791 71.8312C53.2885 71.8111 53.1945 71.8138 53.1051 71.8391C53.0157 71.8644 52.9334 71.9115 52.865 71.9766C52.8396 71.9977 52.8203 72.0256 52.809 72.0573C52.7977 72.0889 52.7949 72.1232 52.801 72.1564C52.7998 72.1638 52.7998 72.1713 52.801 72.1786C52.8005 72.1854 52.8005 72.1921 52.801 72.1988C52.8176 72.2387 52.8421 72.2744 52.8727 72.3039C52.9449 72.3755 53.0408 72.4155 53.1405 72.4155C53.2402 72.4155 53.336 72.3755 53.4082 72.3039C53.4475 72.2657 53.4781 72.2189 53.4979 72.1668C53.5177 72.1147 53.5262 72.0588 53.5226 72.0029Z" fill="#263238"/>
<path d="M52.9091 33.9766C55.596 35.2108 55.9122 36.748 56.3875 38.7377C56.8628 40.7274 58.6806 44.9654 59.3925 46.8803C60.1045 48.7953 60.2617 49.2861 59.5497 51.8798C58.8377 54.4735 56.8201 59.5558 56.8201 59.5558C56.8201 59.5558 50.7731 39.6225 50.3793 37.5722C49.9855 35.5219 50.2202 33.2393 52.9091 33.9766Z" fill="#FFA8A7"/>
<path d="M58.9502 50.5464C58.9473 50.5516 58.9458 50.5575 58.9458 50.5635C58.9458 50.5696 58.9473 50.5755 58.9502 50.5807C59.0356 50.609 59.1656 50.5484 59.2509 50.5322C59.3363 50.5161 59.4682 50.4878 59.5768 50.4716C59.6855 50.4555 59.7902 50.4454 59.9027 50.4393C59.9163 50.3646 59.928 50.2918 59.9396 50.2232C59.6651 50.2566 59.3954 50.3244 59.1364 50.4252C59.0632 50.443 58.9977 50.4856 58.9502 50.5464ZM58.9386 49.193C59.2065 49.0877 59.4841 49.0112 59.7669 48.9647C59.841 48.9546 59.9154 48.9485 59.9901 48.9465C59.9901 48.8698 59.9726 48.793 59.959 48.7183C59.8775 48.7183 59.798 48.7304 59.7165 48.7425C59.4103 48.7785 59.1145 48.8796 58.8474 49.0394C58.7601 49.0859 58.8571 49.2212 58.9386 49.193ZM59.8387 49.4899C59.667 49.4976 59.496 49.5165 59.3266 49.5465C58.9775 49.5988 58.6407 49.718 58.3333 49.8979C58.2596 49.9444 58.3585 50.0474 58.4225 50.0252C58.7116 49.9098 59.0086 49.8173 59.3111 49.7485C59.4565 49.7197 59.6036 49.7008 59.7514 49.6919C59.8271 49.6919 59.9105 49.6919 59.992 49.6919C59.992 49.6212 60.0017 49.5545 60.0036 49.4899C59.9454 49.4899 59.8931 49.4899 59.8387 49.4899Z" fill="#F28F8F"/>
<path d="M57.1928 46.4279C56.0953 44.1919 55.1394 41.8835 54.3313 39.5175L51.914 38.7378L51.1128 40.3417C52.8181 46.3593 56.8203 59.5539 56.8203 59.5539C56.8203 59.5539 57.119 58.8004 57.5284 57.7359C57.5284 57.7359 58.0677 53.0737 58.3044 50.9871C58.5411 48.9004 57.9707 47.949 57.1928 46.4279Z" fill="#F28F8F"/>
<path d="M48.4802 57.8732C48.3308 57.7682 48.1815 57.6712 48.034 57.552C46.0339 56.0209 43.9038 54.4433 42.6796 52.1162L35.3076 55.324C36.5641 56.7637 37.9026 58.1236 39.3157 59.3963C40.5088 60.5235 44.1366 62.0708 46.4937 63.305C48.8508 64.5392 49.8402 65.1513 50.4338 64.8038C51.1283 64.416 51.98 60.3497 48.4802 57.8732Z" fill="#FFA8A7"/>
<path d="M39.9791 59.907C40.0043 59.8181 40.0295 59.7313 40.0606 59.6444C40.1253 59.4638 40.1998 59.2871 40.2837 59.1152C40.3838 58.9511 40.4683 58.7772 40.5359 58.596C40.5456 58.5516 40.4874 58.4769 40.4447 58.5112C40.2919 58.6579 40.168 58.8342 40.08 59.0303C39.9757 59.2287 39.8868 59.4354 39.8142 59.6485C39.8006 59.6868 39.7909 59.7272 39.7773 59.7656L39.9791 59.907Z" fill="#F28F8F"/>
<path d="M40.7491 60.3134C40.8271 60.0109 40.9324 59.7167 41.0634 59.4347C41.1765 59.1963 41.3151 58.972 41.4766 58.7661C41.589 58.6195 41.7144 58.4843 41.851 58.3621C41.9635 58.2671 42.0819 58.1823 42.1847 58.0773C42.2119 58.049 42.1731 57.9742 42.1343 57.9843C41.8479 58.0781 41.5908 58.2496 41.3893 58.4813C41.1718 58.7068 40.9869 58.964 40.8403 59.2448C40.6819 59.5507 40.5582 59.8747 40.4717 60.2104L40.7336 60.3679C40.7394 60.3578 40.7394 60.3356 40.7491 60.3134Z" fill="#F28F8F"/>
<path d="M41.5563 60.2465C41.6367 60.0146 41.7333 59.7891 41.8453 59.5718C41.8935 59.4786 41.9466 59.3882 42.0044 59.3012C42.0726 59.2212 42.1259 59.1287 42.1616 59.0285C42.1616 58.984 42.1111 58.9133 42.0665 58.9375C41.8714 59.0866 41.7131 59.2818 41.6048 59.5072C41.4827 59.718 41.3776 59.9389 41.2905 60.1677C41.2362 60.3132 41.1877 60.4606 41.1431 60.6101L41.3953 60.7495C41.4457 60.5798 41.4961 60.4122 41.5563 60.2465Z" fill="#F28F8F"/>
<path d="M45.5122 62.8017C45.6167 62.0318 45.9747 61.3235 46.5249 60.7979C46.5249 60.7979 48.2146 61.5352 48.9363 62.2119C49.658 62.8886 50.2148 64.3813 49.7647 64.8601C48.7307 64.8641 47.3358 63.8036 45.5122 62.8017Z" fill="#FFC4C3"/>
<path opacity="0.3" d="M45.5122 62.8017C45.7256 62.9188 45.9312 63.036 46.133 63.1532C46.3537 62.3874 46.484 61.5965 46.521 60.7979C45.9722 61.3241 45.6157 62.0323 45.5122 62.8017Z" fill="white"/>
<path d="M48.62 45.5248C49.8034 47.5448 51.6232 51.1808 51.6445 51.6494C51.7648 54.3017 51.6193 57.0731 51.6193 59.9415C51.6193 62.8099 51.596 64.9046 52.8046 66.8095C53.8988 68.5265 55.9086 68.9992 56.1938 67.1226C56.4421 65.5167 56.5973 62.2483 56.8204 59.5597C57.0435 56.8711 57.6352 52.9765 57.7904 50.801C57.9456 48.6255 56.5721 46.4903 55.6467 43.6765C54.8436 41.2302 54.1626 38.1396 52.9036 36.8287C51.6445 35.5177 46.8799 33.0614 45.1436 32.1079L48.62 45.5248Z" fill="#FFA8A7"/>
<path d="M57.6525 50.9687C57.5034 50.9798 57.3536 50.9798 57.2044 50.9687C56.894 50.9361 56.5865 50.878 56.2848 50.795C56.2072 50.7788 56.2266 50.894 56.2732 50.9202C56.578 51.0654 56.9081 51.1445 57.2432 51.1525C57.4098 51.1657 57.5771 51.1657 57.7437 51.1525H57.7592C57.7592 51.0859 57.7689 51.0233 57.7728 50.9606L57.6525 50.9687Z" fill="#F28F8F"/>
<path d="M55.8718 49.0194C55.8194 49.0457 55.8854 49.1406 55.932 49.1285C56.2924 49.0284 56.6688 49.0064 57.0378 49.0639C57.2012 49.0941 57.3612 49.1422 57.515 49.2073L57.6566 49.278C57.6392 49.1911 57.6198 49.1043 57.6004 49.0174C57.4349 48.9477 57.2625 48.8975 57.0863 48.8679C56.6761 48.7886 56.2524 48.8415 55.8718 49.0194Z" fill="#F28F8F"/>
<path d="M56.5837 49.7225C56.2895 49.7107 55.995 49.7364 55.7068 49.7993C55.4643 49.8559 55.1093 49.9185 54.9502 50.1387C54.9502 50.1387 54.9502 50.173 54.9599 50.173C55.0951 50.1688 55.2291 50.1443 55.3576 50.1003C55.4973 50.0639 55.637 50.0316 55.7786 50.0094C56.3023 49.922 56.838 49.9551 57.348 50.1063C57.4979 50.152 57.6444 50.2087 57.7865 50.276C57.7865 50.173 57.7865 50.074 57.769 49.9649C57.6623 49.9245 57.5537 49.8882 57.4489 49.8579C57.1668 49.7768 56.8763 49.7313 56.5837 49.7225Z" fill="#F28F8F"/>
<path d="M56.6691 61.089C56.5682 61.0547 56.4635 61.0244 56.3607 60.9941C56.1473 60.9355 55.9339 60.883 55.7166 60.8405C55.7053 60.8376 55.6936 60.8371 55.6822 60.8391C55.6708 60.8411 55.6599 60.8456 55.6502 60.8523C55.6405 60.8589 55.6323 60.8676 55.626 60.8778C55.6197 60.8879 55.6156 60.8993 55.6138 60.9112C55.6138 60.9678 55.6642 61.0062 55.7108 61.0143C55.9048 61.0547 56.0988 61.0991 56.3025 61.1536L56.5876 61.2405L56.6905 61.2748L56.7021 61.0991L56.6691 61.089Z" fill="#F28F8F"/>
<path d="M56.0232 60.3538C56.2426 60.4217 56.4578 60.504 56.6673 60.6002L56.7371 60.6326L56.7545 60.3942L56.7313 60.3821C56.508 60.2889 56.2793 60.2106 56.0465 60.1478C55.8161 60.0855 55.5822 60.0383 55.3461 60.0064C55.0972 59.9562 54.8419 59.9515 54.5915 59.9922C54.5449 59.9922 54.5662 60.0791 54.605 60.0872C54.8514 60.1377 55.1036 60.1518 55.35 60.1962C55.577 60.2356 55.8018 60.2882 56.0232 60.3538Z" fill="#F28F8F"/>
<path d="M55.6604 59.7173C55.9669 59.7886 56.2693 59.8776 56.5663 59.9839C56.6381 60.0102 56.708 60.0405 56.7778 60.0708C56.7778 60.0041 56.7894 59.9395 56.7933 59.8688L56.6459 59.8102C56.3216 59.7009 55.9885 59.6225 55.6506 59.5759C55.5633 59.5698 55.5963 59.7031 55.6604 59.7173Z" fill="#F28F8F"/>
<path d="M56.5487 63.2967C55.4118 62.1554 54.2207 62.5614 54.2207 62.5614C54.0795 63.527 54.0269 64.5043 54.0635 65.4803C54.145 66.8458 55.0103 67.5144 55.6718 67.6316C56.3333 67.7487 56.4206 66.4014 56.5487 63.2967Z" fill="#FFC4C3"/>
<path opacity="0.3" d="M56.5274 63.7996C56.5274 63.638 56.5409 63.4704 56.5487 63.2967C55.4119 62.1554 54.2207 62.5614 54.2207 62.5614C54.4477 62.9815 55.7048 63.7188 56.5274 63.7996Z" fill="white"/>
<path d="M53.5434 37.1903C53.0177 36.4429 52.2301 36.0026 51.4541 35.5905C51.0156 35.3694 50.5906 35.1205 50.1814 34.8451C50.1581 34.8269 50.1523 34.8794 50.1659 34.8936C50.7809 35.4592 51.5239 35.8531 52.1951 36.3258C52.9312 36.806 53.5013 37.5177 53.8228 38.3579C54.0284 38.8447 54.1992 39.3456 54.3854 39.8405C54.399 39.8789 54.4281 39.8547 54.4242 39.8224C54.3194 38.9053 54.0711 37.9438 53.5434 37.1903Z" fill="#F28F8F"/>
<path d="M57.4243 21.2102C57.4243 14.6977 64.5014 9.41943 73.2314 9.41943C81.9614 9.41943 89.0463 14.6957 89.0463 21.2102C89.0463 27.7247 81.9673 33.0029 73.2373 33.0029C72.7109 33.0029 72.1935 32.9834 71.6853 32.9444C69.9587 36.3238 67.0293 36.9036 64.7401 36.6349C65.5505 36.2395 66.2217 35.5896 66.6591 34.7766C67.0965 33.9635 67.2782 33.0282 67.1786 32.102C61.4479 30.3264 57.4243 26.1188 57.4243 21.2102Z" fill="white"/>
<path d="M64.7108 36.8024C64.675 36.7983 64.6416 36.7821 64.6156 36.7561C64.5896 36.7302 64.5726 36.696 64.5673 36.659C64.5615 36.6217 64.5677 36.5835 64.5849 36.5503C64.6021 36.517 64.6293 36.4906 64.6623 36.4751C65.4233 36.1025 66.0564 35.4963 66.4768 34.738C66.8971 33.9797 67.0844 33.1056 67.0136 32.2331C61.085 30.3566 57.2593 26.0398 57.2593 21.21C57.2593 14.6147 64.4256 9.24756 73.2313 9.24756C82.037 9.24756 89.2053 14.6127 89.2053 21.21C89.2053 27.8073 82.0389 33.1745 73.2313 33.1745C72.7541 33.1745 72.2613 33.1563 71.7705 33.124C70.1389 36.2226 67.549 36.863 65.6905 36.863C65.3631 36.8619 65.036 36.8417 64.7108 36.8024ZM71.6948 32.7624C72.2147 32.8008 72.7347 32.821 73.2468 32.821C81.8721 32.821 88.889 27.6073 88.889 21.1999C88.889 14.7925 81.8721 9.58086 73.2468 9.58086C64.6216 9.58086 57.5891 14.8005 57.5891 21.21C57.5891 25.9126 61.3682 30.1243 67.2173 31.9382C67.2485 31.948 67.2763 31.9673 67.297 31.9936C67.3177 32.0198 67.3305 32.0519 67.3337 32.0857C67.4209 32.9467 67.2771 33.8161 66.9182 34.5971C66.5592 35.378 65.9993 36.0401 65.3006 36.5095C67.1087 36.5963 69.8673 36.1196 71.5299 32.8735C71.544 32.846 71.5649 32.8231 71.5906 32.807C71.6162 32.791 71.6455 32.7826 71.6754 32.7826L71.6948 32.7624Z" fill="#E0E0E0"/>
<path d="M77.018 29.0881L77.6388 29.175L77.5942 29.5527H75.5184L75.5649 29.175L76.1702 29.0801L75.8365 27.7469H74.0575L73.6094 29.0801L74.2923 29.175L74.2457 29.5527H72.459L72.5036 29.175L73.072 29.0801L74.818 24.0725L75.6522 23.9775L77.018 29.0881ZM75.7162 27.2701L75.078 24.7047H75.0547L74.205 27.2701H75.7162Z" fill="#E0E0E0"/>
<path d="M66.0826 24.644L66.1738 21.9251L65.8091 21.8382L65.8324 21.6362H66.4435L66.5075 21.6827L66.459 23.0341L66.3542 23.9936H66.3853L66.5308 23.43C66.6724 22.8745 66.8509 22.6341 67.2039 22.6341C67.6094 22.6341 67.7859 22.9634 67.7859 23.5027C67.7859 24.3531 67.3882 24.8177 66.8353 24.8177C66.5751 24.8189 66.318 24.7596 66.0826 24.644ZM66.5696 24.0158L66.4396 24.4844C66.5606 24.5455 66.6931 24.578 66.8276 24.5794C67.1923 24.5794 67.429 24.1491 67.429 23.5451C67.429 23.3169 67.429 22.9391 67.1496 22.9391C66.8431 22.9411 66.7655 23.325 66.5696 24.0239V24.0158Z" fill="#E0E0E0"/>
<path d="M63.3897 17.9155C63.3922 17.9511 63.3874 17.9868 63.3758 18.0204C63.3641 18.054 63.3458 18.0846 63.322 18.1104C63.2982 18.1361 63.2695 18.1563 63.2377 18.1697C63.2059 18.1831 63.1718 18.1894 63.1375 18.1882C63.0829 18.1876 63.0296 18.1703 62.9844 18.1383C62.9391 18.1063 62.904 18.0611 62.8834 18.0084L62.9648 17.9074C63.1181 17.7276 62.9648 17.6246 62.7708 17.6246C62.41 17.6246 62.2024 17.968 62.2024 18.5881C62.2024 18.976 62.344 19.2871 62.6622 19.2871C62.7667 19.2755 62.8679 19.242 62.9596 19.1885C63.0513 19.1351 63.1317 19.0627 63.1957 18.976L63.3393 19.1315C63.2556 19.2616 63.1441 19.3696 63.0134 19.4471C62.8828 19.5246 62.7367 19.5694 62.5865 19.5779C62.0783 19.5779 61.8105 19.1739 61.8105 18.6023C61.8105 17.8993 62.1791 17.3903 62.7805 17.3903C63.1259 17.3842 63.3897 17.5741 63.3897 17.9155Z" fill="#E0E0E0"/>
<path d="M75.4119 16.1197C75.5923 16.5237 75.3052 16.8327 75.0355 17.0549L74.6902 17.3458C74.8221 17.5842 75.0782 17.8145 75.3847 17.6731C75.5565 17.573 75.6839 17.407 75.7397 17.2105L75.9221 17.2893C75.8919 17.4318 75.8313 17.5654 75.7446 17.6801C75.6579 17.7949 75.5475 17.8877 75.4216 17.9518C74.9618 18.172 74.5486 17.9134 74.3235 17.4044C74.0422 16.7661 74.18 16.1419 74.6921 15.8975C75.0433 15.7258 75.2858 15.8349 75.4119 16.1197ZM74.7542 16.1197C74.4593 16.2631 74.4011 16.6408 74.5913 17.1297L74.9075 16.861C75.1286 16.6752 75.2062 16.5196 75.1015 16.2793C75.0355 16.1379 74.9172 16.0369 74.7542 16.1156V16.1197Z" fill="#E0E0E0"/>
<path d="M73.6309 20.1534L73.3981 20.7392L74.2381 21.0463L74.0809 21.4281L73.2661 21.1311L72.4901 23.1632C72.205 23.9026 71.7432 24.6298 71.266 24.9368C71.1763 25.0062 71.0721 25.0528 70.962 25.0728C70.8518 25.0928 70.7387 25.0857 70.6316 25.0519C70.3833 24.961 70.2669 24.7732 70.3212 24.5712C70.3789 24.4105 70.486 24.2741 70.6258 24.1833L70.8528 24.3975C71.0351 24.5712 71.2311 24.5651 71.3785 24.2561C71.4736 24.0541 71.5454 23.8642 71.6462 23.6056L72.6609 20.9089L72.1371 20.7069L72.2981 20.3756L72.8083 20.5049L72.9441 20.1999C73.2642 19.3919 73.8908 18.9354 74.6804 19.2263C75.0684 19.3677 75.4991 19.7353 75.3187 20.2686C75.3046 20.322 75.2796 20.3716 75.2454 20.4139C75.2111 20.4562 75.1684 20.4903 75.1202 20.5138C75.0721 20.5372 75.0196 20.5495 74.9664 20.5497C74.9132 20.5499 74.8607 20.5381 74.8123 20.515C74.7461 20.492 74.6857 20.4537 74.6356 20.403C74.5856 20.3523 74.5472 20.2905 74.5233 20.2221L74.6455 20.0646C74.8395 19.8141 74.8065 19.6323 74.5349 19.5333C74.1236 19.3919 73.8152 19.6929 73.6309 20.1534Z" fill="#E0E0E0"/>
<path d="M80.3162 20.7413L80.0078 21.1614C79.5247 21.8119 79.1697 22.0826 78.6498 21.8563C78.0872 21.6119 78.0678 20.9756 78.3297 20.3231C78.7371 19.299 79.4937 18.8081 80.2425 19.1273C80.4727 19.2269 80.6832 19.3701 80.8633 19.5495L81.1194 19.499L81.2552 19.6222L80.2289 21.9472C79.8526 22.7997 79.2143 23.5046 78.1725 23.0562C77.8039 22.8966 77.4256 22.5795 77.5905 22.1795C77.6053 22.1276 77.6302 22.0794 77.6637 22.038C77.6972 21.9966 77.7386 21.9628 77.7853 21.9389C77.8319 21.915 77.8829 21.9014 77.9348 21.899C77.9868 21.8966 78.0387 21.9055 78.0872 21.925C78.1439 21.9493 78.1949 21.9861 78.2368 22.0328C78.2786 22.0795 78.3103 22.1351 78.3297 22.1957L78.2191 22.3351C78.0387 22.5371 78.0794 22.6987 78.3685 22.8239C78.9155 23.0602 79.4161 22.6401 79.8351 21.8139L80.3628 20.7716L80.3162 20.7413ZM80.2212 20.4383L80.6596 19.8505C80.5125 19.6941 80.338 19.5687 80.1455 19.4808C79.6527 19.2667 79.1212 19.7171 78.8088 20.4908C78.7157 20.7211 78.4713 21.3352 78.8767 21.5008C79.2822 21.6664 79.6198 21.2342 80.2153 20.4383H80.2212Z" fill="#E0E0E0"/>
<path d="M62.4296 23.9428C62.2908 24.0126 62.1642 24.1061 62.0552 24.2196L61.8088 23.8822C62.0146 23.6156 62.2814 23.4072 62.5848 23.2762C63.0077 23.1086 63.3317 23.2762 63.5024 23.8822L64.195 26.2598C64.2552 26.4618 64.3192 26.5769 64.4783 26.5143C64.6198 26.4367 64.7355 26.3163 64.81 26.1689L65.1029 26.4295C64.9416 26.7679 64.67 27.0357 64.3366 27.1849C63.8284 27.3869 63.5762 27.1466 63.4442 26.6941L62.7245 24.1691C62.6721 23.9752 62.5945 23.8782 62.4296 23.9428ZM62.0921 21.4724C62.1923 21.4351 62.3008 21.4293 62.4041 21.4559C62.5074 21.4824 62.6009 21.5401 62.6729 21.6217C62.7449 21.7033 62.7922 21.8051 62.8089 21.9145C62.8256 22.024 62.811 22.1361 62.7668 22.2369C62.7227 22.3377 62.651 22.4227 62.5607 22.4813C62.4704 22.5399 62.3655 22.5695 62.2591 22.5664C62.1528 22.5633 62.0496 22.5276 61.9626 22.4638C61.8757 22.4 61.8087 22.3109 61.77 22.2077C61.7414 22.1377 61.7271 22.0623 61.7281 21.9863C61.729 21.9103 61.7451 21.8353 61.7754 21.7661C61.8057 21.6969 61.8495 21.6351 61.904 21.5845C61.9586 21.534 62.0226 21.4958 62.0921 21.4724Z" fill="#E0E0E0"/>
<path d="M72.8394 14.9663C72.5387 14.9663 72.4514 14.7825 72.4727 14.532L72.5988 13.0372C72.6279 12.6655 72.5678 12.5504 72.4048 12.5504C72.2108 12.5504 72.1274 12.6978 71.9703 13.1563L71.3883 14.8855H70.9751L71.0546 12.7039C71.0546 12.5584 71.0255 12.5019 70.9188 12.5019C70.8156 12.5156 70.7153 12.547 70.622 12.5948L70.5366 12.3342C70.7163 12.2334 70.9149 12.1741 71.1186 12.1605C71.4057 12.1605 71.5066 12.3443 71.4698 12.6958L71.3437 14.0956H71.3805L71.7472 12.9584C71.9276 12.4009 72.1352 12.1504 72.5232 12.1504C72.9713 12.1504 73.0916 12.4494 73.0412 13.0574L72.9306 14.4088C72.9151 14.5663 72.9306 14.635 73.047 14.635C73.1509 14.6243 73.2491 14.5806 73.3283 14.5098L73.4447 14.6976C73.2761 14.8529 73.0637 14.9472 72.8394 14.9663Z" fill="#E0E0E0"/>
<path d="M83.2842 16.1821C83.9691 16.1821 84.3629 16.7114 84.3629 17.5173C84.3629 18.3233 84.0156 19.0727 83.1329 19.0727C82.4481 19.0727 82.0659 18.5435 82.0659 17.7274C82.0659 16.9113 82.3977 16.1821 83.2842 16.1821ZM83.8759 17.5113C83.8759 16.9214 83.7149 16.5013 83.2435 16.5013C82.6867 16.5013 82.5587 17.1073 82.5587 17.7557C82.5587 18.3617 82.7527 18.7657 83.164 18.7657C83.7207 18.7536 83.8759 18.1637 83.8759 17.5113Z" fill="#E0E0E0"/>
<path d="M66.3133 13.0208C67.617 12.53 68.8993 13.0875 69.4891 14.7843C70.1351 16.6407 69.5007 17.8951 68.1893 18.5617L68.2106 18.6263C68.6486 18.5295 69.1034 18.5567 69.5279 18.7051C70.1972 18.9071 70.4397 18.9071 70.4183 18.59L70.3951 18.2971C70.8684 18.1173 71.1711 18.2789 71.2797 18.594C71.4174 18.998 71.1846 19.3333 70.8296 19.4667C70.4416 19.6141 69.9818 19.5313 69.4134 19.3333C68.6685 19.0586 68.3949 18.9515 67.9448 19.1313C67.6189 19.2525 67.423 19.4464 67.0912 19.7818L66.7362 19.402C66.9182 19.1987 67.1242 19.0202 67.3493 18.8707L67.3318 18.8223C66.096 18.9495 65.1978 18.1375 64.7962 16.982C64.0299 14.7782 65.0271 13.5076 66.3133 13.0208ZM67.9002 18.2122C68.8159 17.8668 69.2155 16.7982 68.6762 15.2347C68.1854 13.8207 67.3376 13.2269 66.3831 13.5864C65.5082 13.9177 64.9844 14.7984 65.5974 16.57C66.0902 17.9779 66.8934 18.594 67.9002 18.2122Z" fill="#E0E0E0"/>
<path d="M79.6972 25.9689C79.617 25.9799 79.539 26.0044 79.4663 26.0417L79.4004 25.8397C79.5397 25.7626 79.6931 25.7172 79.8505 25.7063C80.0736 25.7063 80.1492 25.8477 80.1259 26.1225L80.0697 26.7022H80.0949L80.3064 26.1831C80.4344 25.8639 80.5334 25.7023 80.7642 25.7023C80.802 25.6975 80.8403 25.701 80.8766 25.7127C80.913 25.7243 80.9466 25.7439 80.9751 25.77C81.0037 25.7961 81.0267 25.8283 81.0425 25.8643C81.0583 25.9003 81.0666 25.9394 81.0668 25.979C81.0666 26.0397 81.049 26.0988 81.0161 26.1489C80.9832 26.199 80.9367 26.2376 80.8826 26.2598L80.7914 26.1507C80.7487 26.0942 80.7176 26.0598 80.6594 26.0598C80.6012 26.0598 80.5411 26.1265 80.415 26.4154C80.126 27.0941 80.0697 27.2234 80.0503 27.494L80.0154 27.8294H79.7341L79.8117 26.1305C79.8078 26.0174 79.7806 25.9689 79.6972 25.9689Z" fill="#E0E0E0"/>
<path d="M76.6959 13.243C77.1285 13.1379 77.3264 13.3622 77.3769 13.754L77.664 15.875C77.7319 16.3477 77.8037 16.5093 78.0306 16.4548C78.2576 16.4002 78.3294 16.1498 78.3934 15.4731L78.6301 12.8834L79.3169 12.7178L79.8872 15.8124C79.9241 16.0144 79.9862 16.0912 80.1355 16.0548C80.2716 16.0022 80.3987 15.9271 80.5119 15.8326L80.7214 16.17C80.4982 16.3808 80.2333 16.538 79.9454 16.6305C79.5264 16.7315 79.313 16.5113 79.247 16.0063L78.9832 13.9863H78.925L78.8086 15.7074C78.7484 16.5154 78.5564 16.9578 77.9899 17.0951C77.3672 17.2446 77.1014 16.8507 76.9869 16.0387L76.7134 14.0772C76.6901 13.8752 76.6358 13.7621 76.4806 13.7985C76.3458 13.8467 76.2277 13.9352 76.1411 14.053L75.918 13.7884C76.1189 13.5295 76.39 13.3395 76.6959 13.243Z" fill="#E0E0E0"/>
<path d="M69.6794 27.3344C69.6187 27.6876 69.5345 28.0358 69.4272 28.3767C69.3263 28.7201 69.2836 28.9464 69.5707 28.9969C70.0577 29.0817 70.4806 28.2232 70.5854 27.6738C70.63 27.4334 70.5854 27.3667 70.4651 27.292L70.2924 27.193C70.3041 26.9042 70.4593 26.7304 70.7018 26.7729C71.0141 26.8274 71.1053 27.0819 71.0471 27.4435C70.9152 28.2515 70.3196 29.5625 69.4097 29.4029C69.2682 29.3851 69.139 29.3102 69.0501 29.1942C68.9612 29.0781 68.9196 28.9304 68.9344 28.7828C68.8387 28.9321 68.702 29.048 68.5421 29.1153C68.3823 29.1827 68.2067 29.1984 68.0381 29.1605C67.7704 29.114 67.3591 28.9464 67.5163 28.205L67.8073 26.8133C67.8403 26.6496 67.7549 26.6113 67.6133 26.6254L67.4348 26.6537L67.396 26.3648C67.6027 26.2968 67.821 26.2755 68.0362 26.3022C68.096 26.3062 68.1542 26.3245 68.2061 26.3558C68.2579 26.387 68.3021 26.4304 68.3352 26.4825C68.3683 26.5345 68.3894 26.5939 68.3967 26.6558C68.4041 26.7178 68.3975 26.7806 68.3776 26.8395L68.0944 28.1768C68.0187 28.5242 68.0168 28.7201 68.2554 28.7626C68.7501 28.8494 69.0004 28.1566 69.1323 27.3364C69.1697 27.1058 69.1944 26.8731 69.206 26.6395L69.7395 26.6698C69.7401 26.8929 69.7199 27.1154 69.6794 27.3344Z" fill="#E0E0E0"/>
<path d="M83.6898 23.511L85.0692 21.9071L84.5939 21.6829L84.6889 21.4061L86.0896 21.7313L85.9829 22.0303H85.496L83.75 23.9836L83.4454 25.1754L83.975 25.3774L83.8761 25.6643L82.2678 25.2926L82.3648 25.0037L82.8595 25.0361L83.1796 23.8523L82.5025 21.3152L82.0854 21.1132L82.1922 20.8203L83.7442 21.1779L83.6452 21.4728L83.1466 21.4405L83.6685 23.4968L83.6898 23.511Z" fill="#E0E0E0"/>
</svg>
