<svg width="77" height="77" viewBox="0 0 77 77" fill="none" xmlns="http://www.w3.org/2000/svg">
<path d="M72.1875 48.1249C72.1923 45.7154 71.5941 43.343 70.4472 41.2239C69.3004 39.1049 67.6414 37.3065 65.6216 35.9928C63.6017 34.6791 61.2851 33.8918 58.8831 33.7027C56.481 33.5136 54.0698 33.9287 51.8693 34.9102C49.6687 35.8916 47.7488 37.4082 46.2845 39.3217C44.8202 41.2352 43.858 43.4848 43.4858 45.8654C43.1136 48.2459 43.3431 50.6818 44.1534 52.951C44.9637 55.2201 46.329 57.2504 48.125 58.8568V76.9999L57.75 72.4424L67.375 76.9999V58.8568C68.8877 57.5078 70.0984 55.8544 70.9278 54.005C71.7571 52.1555 72.1864 50.1518 72.1875 48.1249ZM62.5625 69.3961L57.75 67.1174L52.9375 69.3961V61.7202C56.0475 62.8434 59.4524 62.8434 62.5625 61.7202V69.3961ZM57.75 57.7499C55.8463 57.7499 53.9854 57.1854 52.4026 56.1278C50.8198 55.0702 49.5861 53.5669 48.8576 51.8082C48.1291 50.0495 47.9385 48.1142 48.3099 46.2471C48.6813 44.3801 49.598 42.6651 50.9441 41.319C52.2902 39.9729 54.0052 39.0562 55.8722 38.6848C57.7393 38.3134 59.6746 38.504 61.4333 39.2325C63.192 39.961 64.6953 41.1947 65.7529 42.7775C66.8105 44.3603 67.375 46.2212 67.375 48.1249C67.3718 50.6766 66.3567 53.1229 64.5524 54.9273C62.748 56.7316 60.3017 57.7467 57.75 57.7499V57.7499Z" fill="#F5722C"/>
<path d="M60.1562 12.0312H52.9375V9.625C52.9337 8.34982 52.4254 7.12795 51.5237 6.22626C50.6221 5.32456 49.4002 4.81631 48.125 4.8125H28.875C27.5998 4.81631 26.378 5.32456 25.4763 6.22626C24.5746 7.12795 24.0663 8.34982 24.0625 9.625V12.0312H16.8438C15.5686 12.0351 14.3467 12.5433 13.445 13.445C12.5433 14.3467 12.0351 15.5686 12.0312 16.8438V67.375C12.0351 68.6502 12.5433 69.8721 13.445 70.7737C14.3467 71.6754 15.5686 72.1837 16.8438 72.1875H38.5V67.375H16.8438V16.8438H24.0625V24.0625H52.9375V16.8438H60.1562V28.875H64.9688V16.8438C64.9649 15.5686 64.4567 14.3467 63.555 13.445C62.6533 12.5433 61.4314 12.0351 60.1562 12.0312ZM48.125 19.25H28.875V9.625H48.125V19.25Z" fill="#F5722C"/>
</svg>
