<svg width="1440" height="800" viewBox="0 0 1440 800" fill="none" xmlns="http://www.w3.org/2000/svg">
<g clip-path="url(#clip0_493_16898)">
<g clip-path="url(#clip1_493_16898)">
<path d="M0 454L48 453.8C96 453.7 192 453.3 288 476.7C384 500 480 547 576 556C672 565 768 536 864 527.2C960 518.3 1056 529.7 1152 535.3C1248 541 1344 541 1392 541H1440V801H1392C1344 801 1248 801 1152 801C1056 801 960 801 864 801C768 801 672 801 576 801C480 801 384 801 288 801C192 801 96 801 48 801H0V454Z" fill="#FEF2DC"/>
<path d="M0 543L48 550C96 557 192 571 288 581.7C384 592.3 480 599.7 576 610.5C672 621.3 768 635.7 864 630.8C960 626 1056 602 1152 586.8C1248 571.7 1344 565.3 1392 562.2L1440 559V801H1392C1344 801 1248 801 1152 801C1056 801 960 801 864 801C768 801 672 801 576 801C480 801 384 801 288 801C192 801 96 801 48 801H0V543Z" fill="#F8CD98"/>
<path d="M0 681L48 667.5C96 654 192 627 288 623.8C384 620.7 480 641.3 576 650C672 658.7 768 655.3 864 654.8C960 654.3 1056 656.7 1152 655.2C1248 653.7 1344 648.3 1392 645.7L1440 643V801H1392C1344 801 1248 801 1152 801C1056 801 960 801 864 801C768 801 672 801 576 801C480 801 384 801 288 801C192 801 96 801 48 801H0V681Z" fill="#F6A35C"/>
<path d="M0 723L48 715.7C96 708.3 192 693.7 288 690C384 686.3 480 693.7 576 693C672 692.3 768 683.7 864 683C960 682.3 1056 689.7 1152 697.8C1248 706 1344 715 1392 719.5L1440 724V801H1392C1344 801 1248 801 1152 801C1056 801 960 801 864 801C768 801 672 801 576 801C480 801 384 801 288 801C192 801 96 801 48 801H0V723Z" fill="#F5722C"/>
</g>
</g>
<defs>
<clipPath id="clip0_493_16898">
<rect width="1440" height="800" fill="white"/>
</clipPath>
<clipPath id="clip1_493_16898">
<rect width="1440" height="800" fill="white"/>
</clipPath>
</defs>
</svg>
